/* XPM */
static char *dbdb4e0bed674b11f76379f35136b3dd22t0T3LiSRytjFdT[] = {
/* columns rows colors chars-per-pixel */
"64 64 226 2 ",
"   c None",
".  c #090906",
"X  c #0B0B0C",
"o  c #070705",
"O  c #120D0D",
"+  c #180D0B",
"@  c #141109",
"#  c #1A170A",
"$  c #0C0D11",
"%  c #110E10",
"&  c #0D1116",
"*  c #111115",
"=  c #181419",
"-  c #290A0D",
";  c #390A0D",
":  c #260F10",
">  c #28131A",
",  c #381219",
"<  c #342B16",
"1  c #353117",
"2  c #292511",
"3  c #2C2522",
"4  c #3D3925",
"5  c #3B302D",
"6  c #4C090D",
"7  c #440A0E",
"8  c #4C0E12",
"9  c #430F1A",
"0  c #550D10",
"q  c #5A0C11",
"w  c #5E0F1A",
"e  c #451216",
"r  c #561319",
"t  c #640D14",
"y  c #6B0E1A",
"u  c #670F17",
"i  c #740F1D",
"p  c #6C1414",
"a  c #681614",
"s  c #73121B",
"d  c #75171A",
"f  c #483C18",
"g  c #70331A",
"h  c #7E1122",
"j  c #493827",
"k  c #573B32",
"l  c #6D2624",
"z  c #5A4B18",
"x  c #79471E",
"c  c #604818",
"v  c #484629",
"b  c #594428",
"n  c #54512F",
"m  c #5D5A33",
"M  c #694927",
"N  c #76532C",
"B  c #664B33",
"V  c #675738",
"C  c #795739",
"Z  c #6F4E29",
"A  c #7B6927",
"S  c #6B673C",
"D  c #776C3A",
"F  c #55484A",
"G  c #5F504F",
"H  c #654E47",
"J  c #67544E",
"K  c #765847",
"L  c #67565B",
"P  c #795B55",
"I  c #7C645E",
"U  c #785C63",
"Y  c #796568",
"T  c #81181F",
"R  c #842C1E",
"E  c #851922",
"W  c #852623",
"Q  c #893527",
"!  c #93362E",
"~  c #8F5A14",
"^  c #9A6515",
"/  c #AC7612",
"(  c #97462E",
")  c #9A4D33",
"_  c #895F33",
"`  c #A15737",
"'  c #8F6E27",
"]  c #84722B",
"[  c #8C782C",
"{  c #937A26",
"}  c #886638",
"|  c #8D7C31",
" . c #887339",
".. c #917F31",
"X. c #986A2D",
"o. c #AC783D",
"O. c #876549",
"+. c #946E4A",
"@. c #866656",
"#. c #966E5A",
"$. c #94735A",
"%. c #8C7642",
"&. c #866B65",
"*. c #856A6B",
"=. c #8D716F",
"-. c #9A7766",
";. c #8D6D72",
":. c #8B767A",
">. c #947B7D",
",. c #967977",
"<. c #906C64",
"1. c #A37F71",
"2. c #AF7642",
"3. c #B6891F",
"4. c #948334",
"5. c #9D8A36",
"6. c #9B8C3A",
"7. c #958539",
"8. c #9E872E",
"9. c #B58924",
"0. c #A38D33",
"q. c #AB8939",
"w. c #AB9334",
"e. c #A6943A",
"r. c #AB953A",
"t. c #AD9A3B",
"y. c #A59037",
"u. c #B49B3A",
"i. c #B79938",
"p. c #B0873D",
"a. c #BBA33D",
"s. c #B8A23B",
"d. c #C39D30",
"f. c #C7AB3A",
"g. c #CCB03C",
"h. c #D3B63D",
"j. c #D1AD3A",
"k. c #8D8A49",
"l. c #958D47",
"z. c #9A944C",
"x. c #9A9246",
"c. c #9E9750",
"v. c #A59948",
"b. c #B59A45",
"n. c #A39C54",
"m. c #AEA24A",
"M. c #B8A747",
"N. c #B6A955",
"B. c #BBB25C",
"V. c #BCB254",
"C. c #AAA457",
"Z. c #96817D",
"A. c #A9806C",
"S. c #B3826D",
"D. c #C4AE42",
"F. c #C4AD47",
"G. c #CAB243",
"H. c #C9B54A",
"J. c #D2B643",
"K. c #D5BB45",
"L. c #DABD43",
"P. c #D5BD49",
"I. c #DABE49",
"U. c #C9BD52",
"Y. c #C3B758",
"T. c #C6BC65",
"R. c #D6C24A",
"E. c #DAC54C",
"W. c #DEC94D",
"Q. c #DCC346",
"!. c #CDC152",
"~. c #CEC259",
"^. c #D4C553",
"/. c #DBC651",
"(. c #D7C856",
"). c #DCCA54",
"_. c #D1C45A",
"`. c #DDCD59",
"'. c #E2C446",
"]. c #E5C946",
"[. c #E2C54A",
"{. c #E2CC4D",
"}. c #EACD4A",
"|. c #E9CC43",
" X c #EDD24D",
".X c #E8D04C",
"XX c #F1D44D",
"oX c #F6DA49",
"OX c #E2CE53",
"+X c #E0CF5A",
"@X c #E7C959",
"#X c #E5D154",
"$X c #E8D453",
"%X c #E9D85B",
"&X c #F5DA52",
"*X c #F6DC56",
"=X c #FAE556",
"-X c #FBEC55",
";X c #FAEB5B",
":X c #F7E45C",
">X c #FBF35C",
",X c #F6F05E",
"<X c #FBE64C",
"1X c #D7CB68",
"2X c #DED36A",
"3X c #DDD379",
"4X c #CFC671",
"5X c #E5D768",
"6X c #E4DC73",
"7X c #F6E768",
"8X c #FBF362",
"9X c #F8F067",
"0X c #EDE275",
"qX c #F2E67D",
"wX c #F6E978",
"eX c #F9F377",
"rX c #9C7F85",
"tX c #9B8284",
"yX c #9D8589",
"uX c #A78D93",
"iX c #AA8D8C",
"pX c #C59A94",
"aX c #EEE382",
"sX c #F5EA83",
"dX c #F5E987",
"fX c #F7F686",
/* pixels */
"                                                          a.y.XXXXXX&X&Xm.1X                                                    ",
"                                                          u.t.XX XXXXX*XF.T.                                                    ",
"                                                          u.a.XX}.}. X&X^.B.                                                    ",
"                                                        E.t.G.XX].].]. X$XN.                                                    ",
"                                                        Q.e.Q.XX].[.[.}.&XN.                                                    ",
"                                                        I.e. X&XXX X X X&XY.                                                    ",
"                                                        J.y.&X=X-X-X-X=X=X(.C.                                                  ",
"                                                        D.u.*X=X>X>X8X>X;X$XN.                                                  ",
"                                                      P.a.a.*X=X;X8X8X8X;X*XB.                                                  ",
"                                                      K.u.G.*X=X;X>X8X8X;X:XY.3X                                                ",
"                                                      K.w.K.&X=X;X>X8X8X;X:X~.4X                                                ",
"                                                      K.y.[.&X=X;X;X;X8X8X7X`.4XdX                                              ",
"                                                    @XI.0.[.oX Xs...4.M.%X9X5XB.dX                                              ",
"                                                     XK.0.].L.] b b B B  .^.7XB.aX                                              ",
"                                                    }.G.e.L.] b B B j j j D 5XY.3XsX                                            ",
"                                                  {.'.f.w.w.M B V V j 3 3 5 v.Y.4XsX                                            ",
"                                                  I.h.s.w.A B C K K j 3 3 3 m Y.T.qX                                            ",
"                                                  J.g.w.0.N O.O.@.<.P k 5 5 j N.T.0XqX                                          ",
"                                                I.h.f.0.4.C K H J ;.>.Y G G J v.B.6XqX                                          ",
"                                                I.h.f.0.[ C K J H Y >.U J Y Y %.B.6XqX                                          ",
"                                                L.h.h.0.' C H F L &.,.L F L Y } B.2X0X                                          ",
"                                                '.'.h.8.' O.@.P @.-.iX:.Y Y =.C N.1XwXdX                                        ",
"                                              [.].].J.0.' O.-.1.-.S.pXrXyXyX,.N M.B.eXwX                                        ",
"                                              [.].}.G.w.X.} $.A.#.@.=.>.uXuX,.x H.m.0XeX                                        ",
"                                              [.}.XXu.s.9.} $.A.A.@.*.yXuXuX$.^ P.m.1XeX                                        ",
"                                              ].XX X5.G.9._ +.#.@.&.;.>.tXyX+./ K.F.V.wXsX                                      ",
"                                            /.}.XX[.5.Q.d.~ O.@.P P U *.>.>.X./ P.^.v.5XsX                                      ",
"                                            E.}.XXD.r.].j.~ N O.$.,.tXtX>.$.^ 9.E.).x.`.wX                                      ",
"                                            Q.}.XXy.a.E.L.^ g N O.-.tXZ.&.C ~ d.E.).m.V.wX                                      ",
"                                            I.}.}.4.K.[.Q.i.x g M K P I P k c J.E./.H.v.0XqX                                    ",
"                                            I.}.J.5.{.E.E.K.q.N B P *.&.K M 0.E.E.E.(.7.5X0X                                    ",
"                                            [.XXs.t.{.E.E.E.K.r.} O.&.@.} i.P.E.E.E.).6.Y.0X                                    ",
"                                            }.}.5.D.W.E.E.W.{.L.f.u.b.u.g.R.E.).E.E.).v.m.0X                                    ",
"                                          *X}.'.| P.W.W.{.{..X.XE.K.K.K.P.R.E././.).).F.x.5XaX                                  ",
"                                        ;XXX}.K.| E.{.{.{.{.#X$X#XW.E.E.E.E./././././.^.l.2XwXfX                                ",
"                                    ,X>X<X|.].D.5.{.{.{.{.{.#X$X$X#X{.{.OXOX).).).).).).7._.0XeXeX                              ",
"                                  9X>X-XoX|.'.t.e..X{.{.{.{.{.#X$X$X#XOXOXOXOXOX).)./.).x.Y.5X7X7XeX                            ",
"                                9X>X>X-XoX].Q.e.M.{.{.{.{.{.{.#X$X$X$X#XOXOXOXOXOXOX).OXv.N.5X5X*X9XfX                          ",
"                              @X#X:X>X-XoX].[.5.H.{.{.{.{.{.{.{.#X$X$X#X#X#XOXOXOXOX).#XM.v.2X+X*X;XeX                          ",
"                            o.g g x 4.E.XX|.}.4.E.OX{.{.{.W.W.{.#X$X$X$X#X#X#XOXOXOXOXOXU.v.2X+X&X:X9XeX                        ",
"                          2.W t 6 ; + < u.].E.4.{.{.{.[.W.W.W.{.OX#X$X#X#X#X#XOXOXOXOXOX_.v.2X).E.F.p.o.b.                      ",
"                          ) E t 6 ; X X [ L.G.5.#X{.{.{.W.E.W.W.{.#X#X#X#X#X+XOXOXOXOXOX`.x.1Xm.f r q q a X.                    ",
"                          Q h t 6 - . X A g.M.e.#XOX{.W.W.E.E.W.{.#X#X#X#X+X#XOXOXOX).).`.l.~.k.* 8 t t q Q                     ",
"                          W h q 6 - X X z f.r.t.#XOX{.W.E.E.E.W.{.OX#X#X#X+X#XOXOX).).).`.x.B.D * 9 y t y R                     ",
"                        ` E i 0 6 + . X f f.5.b.#X#X{.W.E.E.E.E.W.OX#X#X#X#X+X`.).).).).+Xv.C.V $ 9 y y s R                     ",
"                        ) E y 0 7 O X X 1 u.6.M.#X#XOXW.E.E.E.E.W.{.OXOX#X#X`.).).).).).+Xv.C.v $ , y y s Q                     ",
"                        ( E y 0 ; O X X 2 w.4.H.$X#XOXW.E.E.Q.E.E.W.OXOXOX).`.`.).`.).).+Xm.n.4 $ > y s s Q                     ",
"                        ! E y q ; X X X # 0.| P.$X#XOXW.E.E.R.Q.E.W.).).).`.`.`.`.`.).).`.N.c.4 $ > u s d (                     ",
"                        ! T t q ; X X X @ 4.| P.#X#XOXOXE.E.R.R.Q.E.).).).).).).)./.).).`.V.z.v $ > u i T )                     ",
"                        ! d t q - X . . @ | | R.OX#XOXOXW.E.R.R.R.E.).).).(.^.^.(.^.(.).`.Y.z.n $ = w s E                       ",
"                        ! d t q : X X X @ | | Q.OX#X#XOX).E.R.R.R.E.E./.^.^.^.^.^.^.^.).`.U.z.V $ = r s W                       ",
"                          p t 0 + X X . @ | | Q.OX#X#XOXOXE.E.R.R.R.E.(.^.!.!.U.!.^.(.).`.~.z.S $ * r s W                       ",
"                          p t 0 + X . . @ | 4.E.OXOX#XOXOXW.E.R.R.R./.(.!.U.U.U.U.^.(.).).~.l.S $ * 9 s Q                       ",
"                          p t 8 + X . . @ | 4.E.OXOX#X#XOXOXE.E.Q.E./.^.!.U.U.U.!.^.(.).)._.z.S $ * 9 s Q                       ",
"                          p t 8 % X . . @ ] 4.E.).OX#X#X#XOXW.E.E.E./.(.^.!.!.!.^.(./.).)._.z.S $ & , d                         ",
"                          p p e % X . . @ A ..Q.W.OX#X#X#XOXW.E.E.).).).(.(.(.)././././.(.~.z.S $ & , d                         ",
"                          p p e $ X . . @ A | R.W.OXOX#XOXOX{.E.E.).).`.`.`.).).).).)./.).~.z.S $ & , l                         ",
"                          d p ; $ X . . @ A | R.E.OXOXOXOXOXW.E.E.E.).`.`.`.`.).).).)./.)._.z.m X $ > l                         ",
"                          e 8 : $ $ . o # ] [ K.E.W.OXOXOX).W.E.E.E./.).`.`.`.).).)././.(.~.z.n X $ > l                         ",
"                          X X O $ X . o 2 [ [ J.Q.W.W.W.W.W.E.E.E.E./.).`.`.`.).).)./.).(.~.z.v . $ =                           ",
"                          X . X X X . o 1 { ] G.R.E.W.W.E.E.E.E.R.E./.).).).).).)././.).(.U.k.v . $ =                           ",
"                            X X $ $ X . f { ] D.P.E.E.E.E.E.R.R.R.R.(.(.).).).)./././.^.^.Y.k.4 . $ *                           ",
"                            $ $ $ $ . . z { A a.K.E.E.E.E.R.R.R.R.R.(.(.(.(.).).)././.^.^.V.k.1 . $ *                           ",
"                              $ $ $ . . z { A t.K.R.E.E.E.R.R.R.R.R.(.(.^.^.(.).)././.^._.N.k.2 X $ &                           "
};
