/* XPM */
static char *_9b5f5ddd19c4e1a8245456da0954ad3vheAZZPkzZI2yU9J[] = {
/* columns rows colors chars-per-pixel */
"64 64 201 2 ",
"   c None",
".  c #070609",
"X  c #0A0B0D",
"o  c #080708",
"O  c #120C0D",
"+  c #0D0E12",
"@  c #100F14",
"#  c #0F1115",
"$  c #0F1219",
"%  c #121216",
"&  c #1A1513",
"*  c #13141A",
"=  c #1A171B",
"-  c #16191D",
";  c #1A1A1C",
":  c #1B1916",
">  c #22190F",
",  c #2D1F14",
"<  c #201F1E",
"1  c #1F221E",
"2  c #24231E",
"3  c #2D281D",
"4  c #35291B",
"5  c #35261B",
"6  c #171920",
"7  c #1C1C21",
"8  c #201E22",
"9  c #1E2024",
"0  c #1E2827",
"q  c #232323",
"w  c #292925",
"e  c #25262B",
"r  c #242B2A",
"t  c #2B2B2A",
"y  c #282626",
"u  c #332D2A",
"i  c #312924",
"p  c #2E302F",
"a  c #363328",
"s  c #2B2C32",
"d  c #282B34",
"f  c #2E3238",
"g  c #333334",
"h  c #3A3334",
"j  c #34353B",
"k  c #35383E",
"l  c #3D3B37",
"z  c #352F34",
"x  c #44321F",
"c  c #433826",
"v  c #453A2A",
"b  c #4D3D2B",
"n  c #473528",
"m  c #533D2C",
"M  c #463B3A",
"N  c #4C402C",
"B  c #51422C",
"V  c #534333",
"C  c #5A4232",
"Z  c #554933",
"A  c #5B4B34",
"S  c #54453D",
"D  c #5D4A39",
"F  c #554A3A",
"G  c #5F513A",
"H  c #49403B",
"J  c #61462E",
"K  c #6A4D3B",
"L  c #674B38",
"P  c #714C3A",
"I  c #6B523B",
"U  c #6C5035",
"Y  c #78563C",
"T  c #363A44",
"R  c #3D3F46",
"E  c #403F42",
"W  c #3E424B",
"Q  c #42454C",
"!  c #46484E",
"~  c #4B494B",
"^  c #494646",
"/  c #544C4D",
"(  c #5D4A49",
")  c #574944",
"_  c #5D514E",
"`  c #4C4D53",
"'  c #494C56",
"]  c #4F5155",
"[  c #565558",
"{  c #524852",
"}  c #644B41",
"|  c #614C4C",
" . c #684747",
".. c #685647",
"X. c #745443",
"o. c #7C5B43",
"O. c #74554D",
"+. c #7B5749",
"@. c #6E4F53",
"#. c #615355",
"$. c #6E5854",
"%. c #64555B",
"&. c #6B5757",
"*. c #73555B",
"=. c #755A58",
"-. c #774E55",
";. c #746457",
":. c #5A5E63",
">. c #565B64",
",. c #695C65",
"<. c #5D626A",
"1. c #64656C",
"2. c #6B6468",
"3. c #7D6464",
"4. c #786569",
"5. c #656A75",
"6. c #6B6E74",
"7. c #666B79",
"8. c #7B6B75",
"9. c #756671",
"0. c #73757E",
"q. c #80573F",
"w. c #835E43",
"e. c #805D4B",
"r. c #815B57",
"t. c #8C634A",
"y. c #886447",
"u. c #9D714F",
"i. c #876456",
"p. c #936C51",
"a. c #986A56",
"s. c #986D4F",
"d. c #A4755C",
"f. c #AB765B",
"g. c #A67758",
"h. c #AA7657",
"j. c #856562",
"k. c #826C6B",
"l. c #8B696D",
"z. c #866A69",
"x. c #8F7669",
"c. c #93736B",
"v. c #9F7B6D",
"b. c #95756A",
"n. c #856D78",
"m. c #867273",
"M. c #8B7371",
"N. c #927573",
"B. c #9D7C7A",
"V. c #9A7974",
"C. c #AA7C63",
"Z. c #A67C6B",
"A. c #B17D63",
"S. c #A47A7B",
"D. c #A97D75",
"F. c #AE8163",
"G. c #BA866B",
"H. c #AB8275",
"J. c #A4837D",
"K. c #AC837B",
"L. c #A38173",
"P. c #B38574",
"I. c #BB8A74",
"U. c #BA8B7A",
"Y. c #B6887D",
"T. c #C48A69",
"R. c #C08D75",
"E. c #CB9479",
"W. c #777C83",
"Q. c #957C81",
"!. c #7F8387",
"~. c #9C8389",
"^. c #898C90",
"/. c #8C9398",
"(. c #84878C",
"). c #AE8984",
"_. c #AE8987",
"`. c #B58A84",
"'. c #B78D89",
"]. c #BF9183",
"[. c #BA928C",
"{. c #A18891",
"}. c #B79695",
"|. c #9BA1A5",
" X c #9CA4AA",
".X c #A8AEB3",
"XX c #C28D81",
"oX c #C49584",
"OX c #C99689",
"+X c #D29C8E",
"@X c #D29B86",
"#X c #D6A18D",
"$X c #B1BBC1",
"%X c #B7C1C6",
"&X c #BDC5CC",
"*X c #CDD6DA",
"=X c #D5DDDF",
"-X c #CEDDE2",
";X c #D3DDE2",
":X c #DAE6EA",
">X c #E9F7F8",
/* pixels */
"                                                                                                                                ",
"                                                                                                                                ",
"                                                                                                                                ",
"                                                                                                                                ",
"                                                                                                                                ",
"                                                                                                                                ",
"                                                                                                                                ",
"                                                                                                                                ",
"                                                                                                                                ",
"                                                        Z D ;...F [                                                             ",
"                                                      F Z B Z A N i l )                                                         ",
"                                                      b c a 4 4 b V c l                                                         ",
"                                                      B m D D n c i v Z                                                         ",
"                                                    v J d.I.oXZ.j.=.M V G                                                       ",
"                                                    m u.T.E.#X#X+XOXV.( A                                                       ",
"                                                    L f.T.E.@X#X+XOXoXv.}                                                       ",
"                                                  v U f.G.R.OX+X+XOXoXK.....                                                    ",
"                                                  c Y p.e.e.D.'.K.l.v.L...S                                                     ",
"                                                  n o.w.i.O.+.V.3.*.k.N.;.H                                                     ",
"                                                  K o.P K | +.H.&.( &.k.k.)                                                     ",
"                                                  Y t.Y L O.a.XXl.@.#.k.M.3.                                                    ",
"                                                  q.u.F.Z.d.f.XXS.B.N.J.V.l.                                                    ",
"                                                  p.g.G.E.f.d.Y.S.`.[.`.B.n.                                                    ",
"                                                    p.d.A.a.P @.j.D.).J.B.Q.                                                    ",
"                                                    y.y.i.p.X.| =.c.N.M.m.                                                      ",
"                                                    L X.+.K  .-.*.=.k.4.2.                                                      ",
"                                                    m C X.X.+.r.z.3.=.%.                                                        ",
"                                                      n C X.O.$.z.3._ /                                                         ",
"                                                      4 4 C O.=.3.( M ~                                                         ",
"                                                      x > 5 V | ) h h #.                                                        ",
"                                                  w I J , > 2 u u u ~ 4...                                                      ",
"                                              w 2 2 Y Y b 5 i u l / 2.M.x.u t                                                   ",
"                                            w 2 ; ; A w.X.D S #.,.9.8.k.) q 9 w a                                               ",
"                                        t w q ; = % 3 I +.O.$.4.8.n.8./ w = ; ; w p g                                           ",
"                                    t t y q q = = % : 4 F $.=.4.9.,.Q r - * ; ; q w t g                                         ",
"                                  t w y q 7 ; = = : * ; 2 t h j f r 0 - * * ; = 7 q y t g                                       ",
"                                w y q q 7 ; ; = = * * * ; 1 q r r r - % * * = = 7 7 q q t p                                     ",
"                                q 1 9 7 ; = = = = * * * $ $ * = - $ $ $ * * = * ; ; 7 ; 7 y s                                   ",
"                              y ; ; ; ; ; = = = = = * * * $ + + + $ * $ * * = * = ; = = * ; e                                   ",
"                              < ; : = = = * * = = - - * * * $ $ % * * * % = = % * = = * * - 7 e                                 ",
"                            = = = % % * * % * = = - = = * * * % * * * * * = = % * - * * * * 6 q q                               ",
"                            = % % % * % * * - = = = = = - * * * * * * * * - * * % * * % % - - 7 8                               ",
"                            = % % % * $ % * - = = = = = - * * - * * * * * * * % % % % $ $ * * - 7                               ",
"                            % % % % # $ $ % * - 6 = - = - - * - - * * * * * * % + + # $ $ * * - ;                               ",
"                          = % % % % + + + + * * - - - - - * % * = * * * * * * * + + + + $ * * * =                               ",
"                          = % % % $ $ + X + % * - k ^.>.! :.] R = * * * - * * % $ + X + $ * * * -                               ",
"                          % % % % % $ + o $ $ % s .X*XQ (.|.;X X= * * * * * * % % X X + % % $ * - 7                             ",
"                          % % % % % * $ X + + 7 |.;X` - k ! :X X- * * * * * * % % X X + $ $ * * - 7                             ",
"                          % % % % % * $ X + % W.:X<.- - e  X=X! * * * * * * * % % X X + $ % * * - 6                             ",
"                          % % % % % % % X + g ;X:X.X XW.!.>X5.q * * * * * * * * $ X X + % % * * - 6                             ",
"                          % % % % % % % + + j &X*X-X>X%X|.:X6.!.- * * * * * * * $ X o + + % * * * =                             ",
"                        - % % % % % % $ + + % e s W ;X$X:././.W.* * * * * * * * % X X X + % % * * -                             ",
"                        * % % % % * * * + + X $ $ e %X X7 - 6 - * % 6 - * * * * * + X X + $ % % * 6                             ",
"                        * % + @ % % % % X + X % * - s s T Q [ ] ` ` 1.7.>.- * * * + X X + % $ $ * 6                             ",
"                        * % % # % % % % + + X % % * % * R <.6.6.1.1.>.>.' 9 7 6 * + X X + + $ $ * * 9                           ",
"                        % & : ; = * * $ + + X # % * * * e 6.1.[ :.0.' 5.<.7.7.5.T + X X + % * * * - 9                           ",
"                        * n I i.j.3.,.{ 7 + X # % % * * - k ! Q ! Q f j W f s e 7 + X X + $ $ * - - =                           ",
"                          X.p.C.Y.[.}.{.h X X % $ * * * * * * * * * * * $ * $ $ $ + X & y h ^ #.%.[                             ",
"                          +.p.C.I.].[.~.h X o + $ % % % * * * * * * * * * * * $ $ + & } c.J.).).B.m.                            ",
"                            t.C.I.].'.~.z X o + % % * % * * * * * * * * * * * * $ + & } b.H.Y.`.K.M.                            ",
"                            t.f.I.]._.Q.s X o + # $ % % * * * * * * * * * * * * $ + O C i.v.P.Y.K.N.                            ",
"                            y.f.I.].).m.y o X + + # % % * * * * * * * * * * * * $ + X n X.a.P.U.H.c.                            ",
"                            w.g.G.U.K.4.8 o o + + @ % % * * * * * * * * * * $ $ $ + . 5 P a.P.U.H.c.                            ",
"                            Y t.A.I.P.3.; o X + + @ % % % % * * * * * * * * $ $ % + . , Y g.G.I.Z.z.                            "
};
