/* XPM */
static char *_19420ab50b5492a9b024de8d3e876df[] = {
/* columns rows colors chars-per-pixel */
"64 64 192 2 ",
"   c None",
".  c #09070B",
"X  c #0C0A0C",
"o  c #110E0E",
"O  c #16120E",
"+  c #0D0D13",
"@  c #0E0D18",
"#  c #100F15",
"$  c #0F1116",
"%  c #0F1119",
"&  c #131215",
"*  c #1A1614",
"=  c #1E1915",
"-  c #14141C",
";  c #19171C",
":  c #17181E",
">  c #1B191E",
",  c #231B14",
"<  c #291F15",
"1  c #221D1B",
"2  c #281F1D",
"3  c #26201F",
"4  c #2B231C",
"5  c #31271B",
"6  c #362A1D",
"7  c #392C1F",
"8  c #161721",
"9  c #171822",
"0  c #1D1C22",
"q  c #1F1E28",
"w  c #211E24",
"e  c #211F28",
"r  c #2D1F23",
"t  c #1E2026",
"y  c #232125",
"u  c #2A2625",
"i  c #2D2925",
"p  c #252229",
"a  c #292529",
"s  c #27282C",
"d  c #2C292B",
"f  c #342B23",
"g  c #332D2B",
"h  c #3A2C21",
"j  c #3A3227",
"k  c #36302D",
"l  c #3B332C",
"z  c #2A2932",
"x  c #302E31",
"c  c #3F2D34",
"v  c #363333",
"b  c #3B3532",
"n  c #3F3834",
"m  c #393638",
"M  c #3C3A3B",
"N  c #402E1D",
"B  c #402E24",
"V  c #4A3724",
"C  c #4C3927",
"Z  c #42342C",
"A  c #433A2C",
"S  c #483F2E",
"D  c #453323",
"F  c #5F3C2A",
"G  c #443B34",
"H  c #433D3A",
"J  c #493F3C",
"K  c #523C34",
"L  c #5F3D30",
"P  c #56422E",
"I  c #4D4333",
"U  c #4A413D",
"Y  c #544236",
"T  c #5D4633",
"R  c #5B473F",
"E  c #57483F",
"W  c #5D4A3A",
"Q  c #594639",
"!  c #614735",
"~  c #654C36",
"^  c #6B4E35",
"/  c #62423B",
"(  c #634A3C",
")  c #7F4F37",
"_  c #6F5239",
"`  c #76543B",
"'  c #78523A",
"]  c #7E5A3E",
"[  c #74583D",
"{  c #3D3E40",
"}  c #513D43",
"|  c #464046",
" . c #4C4343",
".. c #4F4748",
"X. c #534442",
"o. c #584144",
"O. c #534949",
"+. c #5E4C4A",
"@. c #584846",
"#. c #5D5356",
"$. c #575254",
"%. c #6A4D46",
"&. c #624B41",
"*. c #695043",
"=. c #625048",
"-. c #6E554F",
";. c #705746",
":. c #7F5940",
">. c #74564B",
",. c #7A594D",
"<. c #755C4E",
"1. c #6D4A51",
"2. c #635254",
"3. c #6C5355",
"4. c #6B5758",
"5. c #64595C",
"6. c #6A5C5B",
"7. c #795756",
"8. c #755E5E",
"9. c #7A5B5B",
"0. c #7E6150",
"q. c #7C6459",
"w. c #685F63",
"e. c #775E61",
"r. c #795B65",
"t. c #696064",
"y. c #766666",
"u. c #7F6061",
"i. c #825F45",
"p. c #8E5948",
"a. c #835E52",
"s. c #836045",
"d. c #8B6344",
"f. c #8D664A",
"g. c #8A6949",
"h. c #9A6C4B",
"j. c #936547",
"k. c #8D6752",
"l. c #8E6259",
"z. c #83695F",
"x. c #916658",
"c. c #9B7051",
"v. c #9D755E",
"b. c #A06E50",
"n. c #A36F58",
"m. c #A77A5E",
"M. c #AA7C5B",
"N. c #A77655",
"B. c #B07D59",
"V. c #806466",
"C. c #826B6C",
"Z. c #896965",
"A. c #906C67",
"S. c #84716D",
"D. c #8C726D",
"F. c #917265",
"G. c #926C70",
"H. c #847372",
"J. c #8C7374",
"K. c #8B7975",
"L. c #9B7271",
"P. c #917A77",
"I. c #9B7C70",
"U. c #96757A",
"Y. c #A87E6C",
"T. c #A27566",
"R. c #B07F6D",
"E. c #A17874",
"W. c #A67F7A",
"Q. c #A97D75",
"!. c #AD825F",
"~. c #B38262",
"^. c #B4846D",
"/. c #BE8C6A",
"(. c #AC8473",
"). c #A5837F",
"_. c #A98279",
"`. c #BC8C74",
"'. c #B3867F",
"]. c #BD8D7A",
"[. c #B28773",
"{. c #C28862",
"}. c #C58A7D",
"|. c #C69377",
" X c #C99274",
".X c #C9917F",
"XX c #C29478",
"oX c #D19478",
"OX c #B28C82",
"+X c #C58F84",
"@X c #C79489",
"#X c #CA9386",
/* pixels */
"                                                                                                                                ",
"                                                                                                                                ",
"                                                                                                                                ",
"                                                                                                                                ",
"                                                                                                                                ",
"                                                                                                                                ",
"                                                                                                                                ",
"                                                                                                                                ",
"                                                                                                                                ",
"                                                                                                                                ",
"                                                            Y W W                                                               ",
"                                                        j A G I S I                                                             ",
"                                                      4 f j l j f g Z                                                           ",
"                                                      4 4 4 1 3 f f f S                                                         ",
"                                                    f 4 < B ( %.,.K f Z                                                         ",
"                                                    5 V ' n. X.X+XQ.%.f A                                                       ",
"                                                  4 6 h.{.oXoX#X@X@X(.R l                                                       ",
"                                                  1 C B.~.^.].+X'._.OXz.n                                                       ",
"                                                  , ~ c.( K >.E.4. .8.D.H                                                       ",
"                                                  6 [ i.( +.%.A.4.2.5.C.U                                                       ",
"                                                  F s.g.! X.>.Y.-.X.w.S.@.                                                      ",
"                                                  ) f.!.v.a.k.`.Z.8.H.K.7.                                                      ",
"                                                  j.d.M.`.R.n.}.L.W.).P.u.                                                      ",
"                                                  f.] b.T.l.p.T.Z.L.).J.                                                        ",
"                                                    ^ d.x.l.L } r.G.U.y.                                                        ",
"                                                    ~ :.,.Y Z c } e.J.6.                                                        ",
"                                                    P ^ *.K / 1.@.+.C.6.                                                        ",
"                                                    h D Y >./ o.V.4.#.$.                                                        ",
"                                                    4 < 4 &.,.9.C...M {                                                         ",
"                                                Z ` V , * 4 Y 3. .s d M                                                         ",
"                                              n j d.^ , * O = w 0 0 x H M                                                       ",
"                                          n n j i P d.N , = 1 y d d  .v v m m                                                   ",
"                                      J G k k g i 4 ^ _ 7 , 3 g v O. .y d g g H                                                 ",
"                                    U G b g g i u 1 3 ;.<.E U @.6.5.p 0 p d u k H  .                                            ",
"                                  G b k g g d u u y > f q.S.S.H.t.z - 0 y a a p g n U                                           ",
"                                l g i d d d i p y w > & u O.#.| t - - 0 y u p y u d g H                                         ",
"                              l g u u p a a u p y w 0 > & $ % % % & > 0 y a u y y y p b U                                       ",
"                              j i y y y a a u y y y 0 > : - & - & - > 0 y a u y y y y d M                                       ",
"                            3 u u y 1 w y a u y y y 0 0 0 > > - - > > 0 y u u a w y w a v m                                     ",
"                            2 1 y y 1 0 y a p y y y y 0 0 > > > 0 0 0 0 y p u a w w 0 y d s                                     ",
"                          r 1 > > 0 > 0 0 p y y y y y w 0 0 0 > 0 0 w w y y y p 0 0 0 y y a                                     ",
"                          w w = > > > 0 > y y p p y y y 0 0 0 0 0 0 w y y y y y 0 > 0 0 0 y y                                   ",
"                          1 w > > : - 0 > w y y p y y y w 0 0 0 0 w y y y y y y 0 > - 0 0 w w                                   ",
"                          1 y > > > & 0 > w y y p p y y y 0 0 0 0 w y y y p y w > & - 0 0 0 w a                                 ",
"                        1 1 y 0 ; > & - - 0 w y y y y y y 0 0 0 0 w w y y p y w > & - - > 0 0 s                                 ",
"                        1 1 y 0 ; 0 & - & > w y y y y y y w 0 0 0 w w w y p p 0 : & & - 0 0 0 a                                 ",
"                        = 1 y 0 ; > & - & > 0 0 y y w y p w 0 0 0 w 0 0 0 p e q 9 # & - 0 0 0 p                                 ",
"                        * 1 w w > > & - & ; 0 0 w w 0 0 y y 0 0 0 0 0 0 0 0 0 0 9 $ & - 0 0 0 y p                               ",
"                      w * 1 w 0 > : - - & * 0 0 0 0 0 0 y y w 0 0 0 0 0 0 0 - 9 0 $ & - > 0 0 y y                               ",
"                      > * 1 w 0 0 > - - & * > > 0 0 0 0 y y y 0 0 0 0 > 0 0 - - 9 & # - : 0 0 y w                               ",
"                      ; * 1 w 0 0 > - - & & > > > 0 0 0 y p p y 0 0 0 > 0 0 - - 9 & & - - 0 0 y y                               ",
"                      ; = 1 1 0 0 > - & & & > > > 0 0 0 y p p p 0 0 0 > 0 0 9 & - # & - - 0 0 y e 0                             ",
"                    0 * = , > w 0 0 - & # * > > > 0 0 0 y p p p y 0 0 > > q 9 & & + & - : 0 0 w p 0                             ",
"                    0 * = , = 0 0 0 - & + & > > > 0 0 0 y y a a p w y 0 0 q 9 % & + + - - > 0 y p >                             ",
"                    0 * = 1 ; 0 0 0 & $ X & > > ; 0 0 0 y y a a p y y 0 0 0 0 @ # + $ & - 0 > y p - w                           ",
"                    > * , y > 0 0 9 % + X & > : - 0 y w y y a a p y p 0 0 0 0 % + + + & - : > 0 p - 0                           ",
"                  w > * 1 > 0 > 9 - $ + X & : : ; > y w y y p a a p y 0 0 0 0 & + + & & & - > 0 p - 0                           ",
"                  w ; * 1 1 w > 9 & + + X & > : ; > y y y y y p a y y 0 0 0 0 - + . + + & - : 0 p : :                           ",
"                    @ & 3 u y w 0 - + + X - - - & ; w y w y y y p y y 0 0 0 0 - + . X & - - > 0 a -                             ",
"                        T i.0.X.p - X X . & - - & ; w w w w y y y w 0 0 0 0 q 9 + . X & - > g X.2.                              ",
"                        s.N. XXXZ.d X X X & - - & & 0 w w w w y y 0 0 0 0 0 w 9 % . X X * W T.(.I.                              ",
"                        s.N./.|.`.=.X X X - - - & & 0 w 0 0 0 w 0 0 0 0 0 0 w 0 % # o O T M.`.[.I.                              ",
"                        ] h.~.`.].q.& . . - 9 - & & > 0 0 0 0 0 0 0 0 0 > > t 0 - # o   d.M.^.(.I.                              ",
"                        ' j.M.`.].F., . . - 9 - & & - 0 w 0 0 9 - > 0 0 > > 0 q - o o   d.m.(._.I.                              "
};
