/* XPM */
static char *_1e2bc93dd4249e1840814f3e1f1a5b7[] = {
/* columns rows colors chars-per-pixel */
"64 64 150 2 ",
"   c None",
".  c #3D1B00",
"X  c #401D00",
"o  c #422000",
"O  c #4B2603",
"+  c #4E2A05",
"@  c #522D04",
"#  c #573205",
"$  c #653E08",
"%  c #614006",
"&  c #6A4B07",
"*  c #714C09",
"=  c #784F0A",
"-  c #735209",
";  c #79520A",
":  c #7B551D",
">  c #825A18",
",  c #956811",
"<  c #986A13",
"1  c #A37414",
"2  c #B18119",
"3  c #BC8A18",
"4  c #B59116",
"5  c #C18F19",
"6  c #C3911A",
"7  c #CB981C",
"8  c #D19D1C",
"9  c #D9A41D",
"0  c #DEA91E",
"q  c #C9B615",
"w  c #E6AF1E",
"e  c #E7B01E",
"r  c #EAB21F",
"t  c #E2BD1A",
"y  c #D0A53E",
"u  c #E3AB20",
"i  c #E7B121",
"p  c #ECB421",
"a  c #E6B920",
"s  c #EDBC21",
"d  c #EAB62B",
"f  c #ECB82F",
"g  c #F0B721",
"h  c #F4BA22",
"j  c #F9BF24",
"k  c #F7BE28",
"l  c #E9B530",
"z  c #ECB933",
"x  c #EFBD39",
"c  c #F0BF3E",
"v  c #DCC11A",
"b  c #DECD19",
"n  c #DDD019",
"m  c #E9C41E",
"M  c #E4CE1B",
"N  c #E9CC1E",
"B  c #E8C129",
"V  c #F4C521",
"C  c #FEC426",
"Z  c #F3C821",
"A  c #FFC52A",
"S  c #FFC732",
"D  c #FFC836",
"F  c #F2C03D",
"G  c #FFC93C",
"H  c #D9AF4E",
"J  c #D7AF51",
"K  c #F0BF40",
"L  c #F2C243",
"P  c #FFCC46",
"I  c #FFCB42",
"U  c #F4C64C",
"Y  c #F4C64C",
"T  c #F6C84F",
"R  c #FCCB49",
"E  c #FFCD48",
"W  c #FFCD4B",
"Q  c #FFCE4B",
"!  c #FFD04A",
"~  c #F1C656",
"^  c #F6C954",
"/  c #F7CB57",
"(  c #F7CA53",
")  c #FFCF50",
"_  c #FFCF51",
"`  c #F8CB55",
"'  c #F8CB56",
"]  c #F9CC57",
"[  c #FDCE53",
"{  c #F2C85A",
"}  c #F8CF59",
"|  c #F9CD5A",
" . c #FACE5C",
".. c #F9CE5B",
"X. c #FCD052",
"o. c #FCD055",
"O. c #FFD054",
"+. c #FFD055",
"@. c #FFD056",
"#. c #FED057",
"$. c #FFD157",
"%. c #FFD055",
"&. c #FFD158",
"*. c #FFD159",
"=. c #FFD25A",
"-. c #FFD25B",
";. c #FFD25C",
":. c #FFD25E",
">. c #FFD35F",
",. c #FFD25C",
"<. c #FBD060",
"1. c #FBD161",
"2. c #FFD360",
"3. c #FFD361",
"4. c #FED261",
"5. c #FCD263",
"6. c #FFD362",
"7. c #FFD462",
"8. c #FFD463",
"9. c #FCD264",
"0. c #FED364",
"q. c #FDD367",
"w. c #FED464",
"e. c #FFD464",
"r. c #FFD465",
"t. c #FFD565",
"y. c #FDD466",
"u. c #FFD466",
"i. c #FFD566",
"p. c #FFD567",
"a. c #FDD364",
"s. c #FDD468",
"d. c #FFD568",
"f. c #FFD669",
"g. c #FED66B",
"h. c #FFD66B",
"j. c #FED66C",
"k. c #FFD66C",
"l. c #FFD76C",
"z. c #FED66D",
"x. c #FFD66D",
"c. c #FFD76D",
"v. c #FFD76E",
"b. c #FFD76F",
"n. c #FFD66B",
"m. c #FFD86F",
"M. c #FFD770",
"N. c #FFD870",
"B. c #FFD871",
"V. c #FFD870",
/* pixels */
"                                                                                                                                ",
"                                                                                                                                ",
"                                                                                                                                ",
"                                                                                                                                ",
"                                                                                                                                ",
"                                                                                                                                ",
"                                                                                                                                ",
"                                                                                                                                ",
"                                                                                                                                ",
"            X X X X                                                                                                             ",
"          X X X X X .                                                                                                           ",
"          X X . . . $ 1                                                                                                         ",
"          . o & ; - 4 Z Z Z V C                                                                                                 ",
"          % * q V m b n n M M V V C C                                                                                           ",
"          v s M Z C C   M V V M M Z C C G i.c.                                                                                  ",
"        M C C   M Z C     N C C C N Z C C G d.c.                                                                                ",
"        M C C   n Z C       N C C I X.F h C G i.c.                                                                              ",
"      n M C C   n M Z G B.| a r C S +.1.L h C G i.c.                                                                            ",
"      m V C C +.B t V S _  .i w p C D *.5.L h C I i.c.                                                                          ",
"      p C C E i.z w h C S R F i w j C E B.| i h C I 8.c.                                                                        ",
"    p h C S d.c.L i h C C D q.F i g C G >.1.z e h C I 8.c.                                                                      ",
"  w h C C A *.d.c.x r C C S *.i.f w h C G c.5.z i j C I >.5.c.                                                                  ",
"  w h C C C A 8.c.x w h C C S 5.x i h C G i.c.q.d h C C C G i.c.                                                                ",
"  w h C C C C *.c.x w g C C A i.q.z h C C G c.d.z e h C C C G i.c.c.                                                            ",
"  w h C C C C S >.x w g C C A 8.c.x e h C D d.c.1.f e h C C C D i.c.c.                                                          ",
"  w h C C C C C *.x w g C C C G 5.1.z h C C G d.d.z w e h C C C G 8.c.c.c.                                                      ",
"  w e h C C C C >. .z e h C C C G 5.K e h C C I i.] f w e h C C C G G >.M.c.c.c.c.c.                                            ",
"  e w p C C C C G 8.L w p C C C C +.c w e h C A i.B.` z w e h C C C C G P +.c.c.c.c.c.c.c.c.c.c.c.c.c.c.c.c.c.                  ",
"    w p C C C C C +./ z e j C C C *./ c z p C C E d.B.` z w e h h C C C C S _ _ _ _ _ i.M.c.c.c.c.c.c.c.c.c.c.c.                ",
"      e j C C C C P i.U w i C C C E i.B.T e j C C E i.B./ f w w e C C C C C C C C C C P *.*.+.+.+.+.+.*.+.+.+.+.+.+.+.+.H : .   ",
"      w r C C C C C Q / d i C C C C E d.] d e j C C E d.c.| z f e j C C C C C C C C C C C C C C C C C C C C C C C C C C < @     ",
"      w e C C C C C E c.( i C C C C C P d.| d e j C C E i.i.d.1.f e e h C C C C C C C C C C C C C C C C C C C C C C C C w 8     ",
"      w e C C C C C E c.` i e C C C C C P d.| d e j C C A I d.c.1.f i i e g C C C C C C C C C C C C C C C C C C j e e e e       ",
"        e p C C C C A Q d.( i e C C C C C I d.| d e j C C C I d.c.1. .x w i p p i p j C C C C C C p i i i i p i e w w           ",
"          e C C C C C I B. .i e C C C C C D c.d.d w e j C C C G G i.B.1./ / / U i w e p p p p p p w w w w w w                   ",
"          e g C C C C S _ q.L i r C C C C A E d.( d w e j C C C C G I I *.B.B.d.U U Y f w w w w                                 ",
"          w e C C C C C G c.d.L i j C C C C C Q d.U d w e j C C C C C C D Q Q _ c.B.B.( L L L L                                 ",
"          e e h C C C C S *.c.d.f g C C C C C C Q d.U x f e j C C C C C C C C A Q +.X.X.8.B.B.B.d.*.+.+.+.!                     ",
"            e e h C C C C D d.d.f w h C C C C C C Q d.c./ d e j j C C C C C C C C C C C I >.>.>.+.A C C C i , X                 ",
"              w w h C C C S 5.d.x d i g C C C C C C Q d.c.` f d i j C C C C C C C C C C C C C C C C C C C 2 @ X                 ",
"              w w e h C C C S >.i.q.x w p C C C C C C Q d.i.i. .f e j C C C C C C C C C C C C C C C C C g 0 7                   ",
"                e w h C C C C S >.c.L i i e p C C C C A S I d.c. .f i i h C C C C C C C C C C C C r e e e e                     ",
"                  w e h C C C C S >.1.| L w w p C C C C C C I d.c. .| z e p p p C C C C C j p p e w                             ",
"                  w w g C C C C C D >.B.q.L e w p C C C C C C G I i.B. .( c w w r p p p p e w                                   ",
"                    e e h h C C C C G E +.q.L i w p h j C C C C C I E E >.1.Y Y L d                                             ",
"                      w w e h C C C C C S *.q.L x i w r j C C C C C C C G _ _ +.c.                                              ",
"                        e w e j C C C C C S *.c.c.L z d r j j C C C C C C C C A _ *.+.i.c.c.m.                                  ",
"                          w w e j C C C C C A *.>.>.d.U f d e j j j C C C C C C C C C E 5.>.{ J                                 ",
"                            w w e j C C C C C C C C _ 5.q./ d d d i h C C C C C C C C C C k 2 +                                 ",
"                              w w e h C C C C C C C C A P i.5.:.~ d e h C C C C C C C C C 3 # O                                 ",
"                                w w e i h C C C C C C C C D D l > 7 e e e e p C C C C C h 9 5 6                                 ",
"                                    w w e p g C C C C C C C u = @ y L   e w e p p p p p e e                                     ",
"                                          w e p p p j C j h 0 1             e w w w w w                                         ",
"                                            e w w w p h p w e                 e e e e                                           ",
"                                                w w w w w                                                                       ",
"                                                                                                                                ",
"                                                                                                                                ",
"                                                                                                                                ",
"                                                                                                                                ",
"                                                                                                                                ",
"                                                                                                                                ",
"                                                                                                                                ",
"                                                                                                                                ",
"                                                                                                                                "
};
