/* XPM */
static char *d16ba0838c0c43ceba5cca40c51b5202[] = {
/* columns rows colors chars-per-pixel */
"64 64 207 2 ",
"   c #005A00",
".  c #005E00",
"X  c #005F01",
"o  c #015F01",
"O  c #005C03",
"+  c #006000",
"@  c #006100",
"#  c #016100",
"$  c #006200",
"%  c #006300",
"&  c #016300",
"*  c #016201",
"=  c #006301",
"-  c #026200",
";  c #026201",
":  c #006102",
">  c #026103",
",  c #016203",
"<  c #026302",
"1  c DarkGreen",
"2  c #006500",
"3  c #006401",
"4  c #006501",
"5  c #026401",
"6  c #006600",
"7  c #016600",
"8  c #006700",
"9  c #006601",
"0  c #016701",
"q  c #026701",
"w  c #006402",
"e  c #006502",
"r  c #016502",
"t  c #036502",
"y  c #006602",
"u  c #006702",
"i  c #016703",
"p  c #006104",
"a  c #006800",
"s  c #016800",
"d  c #006900",
"f  c #006801",
"g  c #006901",
"h  c #026900",
"j  c #006A00",
"k  c #006B00",
"l  c #016B00",
"z  c #016A01",
"x  c #006B01",
"c  c #036A01",
"v  c #006902",
"b  c #006803",
"n  c #026802",
"m  c #036802",
"M  c #036903",
"N  c #006A02",
"B  c #016A03",
"V  c #006B03",
"C  c #026B02",
"Z  c #006C00",
"A  c #006D00",
"S  c #016D00",
"D  c #006C01",
"F  c #036D01",
"G  c #006E00",
"H  c #006F00",
"J  c #016F00",
"K  c #016E01",
"L  c #006F01",
"P  c #026E00",
"I  c #036F00",
"U  c #026E01",
"Y  c #016C02",
"T  c #006D02",
"R  c #006C03",
"E  c #026D03",
"W  c #006E02",
"Q  c #016E03",
"!  c #006F03",
"~  c #026F02",
"^  c #036F02",
"/  c #016C04",
"(  c #006D04",
")  c #016E05",
"_  c #026F04",
"`  c #007000",
"'  c #007100",
"]  c #007001",
"[  c #017101",
"{  c #027000",
"}  c #037100",
"|  c #037101",
" . c #007200",
".. c #017200",
"X. c #007300",
"o. c #007201",
"O. c #007301",
"+. c #017301",
"@. c #027300",
"#. c #027301",
"$. c #007002",
"%. c #007102",
"&. c #017103",
"*. c #017302",
"=. c #007203",
"-. c #027202",
";. c #037303",
":. c #047201",
">. c #007400",
",. c #017400",
"<. c #007500",
"1. c #007401",
"2. c #007501",
"3. c #037400",
"4. c #027500",
"5. c #007600",
"6. c #007700",
"7. c #017700",
"8. c #017601",
"9. c #007701",
"0. c #037600",
"q. c #037601",
"w. c #007402",
"e. c #007502",
"r. c #007503",
"t. c #027402",
"y. c #037402",
"u. c #027403",
"i. c #007602",
"p. c #017603",
"a. c #007703",
"s. c #027702",
"d. c #007304",
"f. c #017304",
"g. c #007604",
"h. c #027704",
"j. c #007800",
"k. c #017800",
"l. c #007900",
"z. c #017900",
"x. c #007801",
"c. c #027800",
"v. c #027901",
"b. c #007A00",
"n. c #007B00",
"m. c #007A01",
"M. c #007B01",
"N. c #027A00",
"B. c #037B00",
"V. c #017802",
"C. c #007902",
"Z. c #027903",
"A. c #007A02",
"S. c #017B02",
"D. c #007A03",
"F. c #007B03",
"G. c #037A02",
"H. c #007C00",
"J. c #017C00",
"K. c #007D00",
"L. c #017D01",
"P. c #027D00",
"I. c #027D01",
"U. c #007E00",
"Y. c #017E00",
"T. c #007F00",
"R. c #007E01",
"E. c #007F01",
"W. c #017F01",
"Q. c #027F01",
"!. c #007C02",
"~. c #007D02",
"^. c #017D03",
"/. c #027C03",
"(. c #017F02",
"). c #027E02",
"_. c #007804",
"`. c #017804",
"'. c #017B04",
"]. c #007C04",
"[. c #017F04",
"{. c #008000",
"}. c #018000",
"|. c #008100",
" X c #008001",
".X c #008101",
"XX c #028100",
"oX c #008200",
"OX c #008300",
"+X c #018300",
"@X c #018201",
"#X c #008301",
"$X c #008002",
"%X c #008102",
"&X c #028002",
"*X c #038002",
"=X c #028003",
"-X c #038103",
";X c #008202",
":X c #018203",
">X c #008303",
",X c #008500",
"<X c #008401",
"1X c #008600",
"2X c #008700",
"3X c #008601",
"4X c #018B00",
/* pixels */
"J ' ,.W.' h ,.,.,.l.l.,.W.W.l.,.,.l.l.l.' ' ' ' ' ,.' ' ' ,.,.,.l.,.h ,.' ' ' ' ' ,.,.l.,.,.l.W.' ,.l.W.' ,.' ,.l.,.,.,.,.l.,.,.",
"' ,.l.l.h J ,.' ' ,.l.l.,.,.l.' ,.l.,.,.,.' ' ' ,.,.' ,.l.,.l.,.l.' ' ' ' ' ' ' ,.' ,.W.l.,.,.l.,.l.l.].,.#XW.J ' ' ,.,.' ,.' J ",
"' ' l.l.,.,.,.' ,.,.,.,.,.l.l.,.l.,.,.,.,.' ' ' ,.,.' ,.l.,.,.l.#Xl.J ,.,.' ,.,.' ' ,.,.l.' ' ,.,.l.l.,.l.l.W.W.J ' ' ' ' ' ' ' ",
"' ' ,.,.,.' h J ,.,.,.' ,.,.,.,.,.,.' ' ' ,.l.' l.' ,.,.' ' ' ,.J J l.W.J W.,.' ' ' ' ' ,.' ' ' ,.,.,.,.l.,.l.,.' ,.' ' ,.' ' ,.",
",.,.l.l.l.W.l.J ,.' ' ' ,.,.,.,.' ' ' ,.J ,.' l.W.,.' ,.' ' ,.' ' ,.l.' l.,.8 ' ' ' ' ' ' ,.W.' ' ' ,.,.l.l.l.J ' ,.' ' ,.' ' ' ",
"' ' ,.,.l.,.,.,.,.' ' ' J J J J ' ,.,.,.J l.l.,.,.' ' ,.' ,.,.' ' ' l.,.l.' l.#Xl.' ' ,.' ,.,.' ' ,.,.,.,.,.J J ,.' ' ' ' ,.J ,.",
"J ,.' ,.' l.' h ' ' ,.J h 8 8 8 ' l.l.,.l.l.l.#XJ J ' ' ,.,.,.' ' ,.l.l.l.l.l.l.' ' ' ' ' ' ,.' ' ,.' ' ,.' ' ' ' ' ,.,.' ' ' #X",
"l.W.J 8 J ,.J ' ,.' ' ,.,.' ,.J J ,.,.' ,.,.#Xl.,.l.' ,.,.,.,.,.' ,.l.,.,.' 8 8 h J W.W.l.,.l.,.' ' ,.' J J J ' ' ,.l.,.,.' l.' ",
"l.l.' h ' ' ' ' ' ' ' ' ,.,.,.' ' ' l.l.,.l.,.,.l.8 h J 8 h 8 8 8 J ,.,.,.,.,.,.,.' l.l.,.,.,.' ' h & 8 8 8 8 8 ' ,.,.,.,.l.l.,.",
",.' ' J 8 8 8 8 8 8 J l.l.l.,.,.' ' ,.l.l.W.,.l.' J ' J h h 8 J h ' l.,.l.W.W.l.' ' l.#X,.l.,.,.' J 8 8 8 8 h ,.' ,.' ' ,.,.,.,.",
"' ,.' J h 8 h h h J d.' ,.W.l.].,.' ,.' ,.' ,.' ' ' ,.,.,.' ,.,.,.' l.l.,.,.2XW.J ' ' ,.,.,.,.' ' ' ' J ' ' ,.' ,.,.l.' l.J ' ' ",
"l.W.J ' ,.' ,.,.' ,.,.,.,.l.W.l.W.,.' ,.' ' ,.' J ' ' ' ' ,.J ,.' ' l.W.l.J J ,.' ,.' ' ,.h J ,.' ' ' ,.' ,.W.' ' l.,.W.l._ ,.,.",
"' J ,.,.' ' ,.l.,.,.l.,.l.,.' ,.h J ,.' ' ,.' ,.,.h ,.' ' l.' ' ' ' ' ,.#X' ' J ' ' ' ' ' 8 #Xl.' ' ,.#X,.' l.' ,.Z.l.W.' ,.,.,.",
",.,.l.,.,.' ,.W.,.J l.,.,.W.' h ' ' J ' ' ' ' ,.l.' l.,.,.,.W.J ' ,.' ' ' ' ,.,.' h l.l.h J #X,.' ' ,.,.l.' l.' l.l.,.J ' ,.,.,.",
"' l.l.W.l.,.,.l.l.h ,.W.,.,.#X' h ' ' ' ,.' ,.l.,.W.,.,.,.l.l.l.W.' ,.,.' ' ' ' ' ' ,.W.W.,.W.,.' ' ' ' l.,.l.l.,.,.l.l._ ' ' ' ",
",.l.l.l.l.' ,.l.l.' J ' l.h J ,.' ' ,.' ,.' ,.l.,.,.' ' ,.Z.,.,.J J ' J J ' ' ' l.W.,.' W.W.l.,.,.' ' ' ' ' J ' J ' ' ' ,.' ,.' ",
"' ,.W.,.W.' ,.W.l.J ,.J h W.,.W.W.,.,.W.' ' J ' ' ' ' ,.,.J ,.' ' h 8 h h ,.' ,.2Xl.l.l.,.l.l.' h 8 8 & 8 8 8 8 8 8 8 h J ,.' ' ",
"' ,.l.,.l.J ,.#X' J ,.,.' ,.#X,.W.,.' #Xl.J W.' ' ' ' W.J J ' ,.' J J h h J ' ' ,.l.,.,.l.l.,.J 8 & 8 8 8 8 8 & 8 8 8 h ' ,.' ' ",
"' J h J h ' ' J J ,.,.' ,.' ,.W.l.l.,.l.,.W.2X,.,.,.8 W.,.& ' ,.W.h & 8 8 8 8 l.2Xl.,.,.l.,.' ,.' ,.' J J 8 h ,.,.,.,.l.l.,.l.,.",
"l.' ,.' ' ,.' J ,.J ' J ,.,.l.l.,.,.,.l.,.l.,.,.' 2X' ' ,.' l.W.,.. 8 8 8 8 h ,.' ,.' ' ,.' ' ,.' ,.h 8 8 J W.W.,.,.l.l.,.W.W.W.",
",.,.l.,.,.l.W.,.8 8 8 8 8 J W.l.,.,.,.W.,.,.' ' ' l.#X,.,.,.l.W.' ,.,.h 8 8 J ' ' ' ' ,.,.' ' ' ' J & 8 & h J h ,.l.,.,.,.,.#X,.",
"l.,.l.' l.,.l.J 8 8 8 8 8 8 h ,.' J J h ,.,.' ,.l.#XW.l.l.l.,.,.l.#X,.8 8 h ,.' ,.' ,.,.,.,.,.l.W.J 8 8 8 8 & J #XW.J h l.J ' W.",
"' l.W.J l.l.l.#Xh 8 8 8 & J W.' J ,.' ,.' ' ' ' ,.l.l.l.l.,.,.,.l.J 8 8 J J J J h ' ,.l.l.,.l.W.l.' h 8 8 8 8 J J h 8 8 l.l.h ' ",
",.,.l.8 8 W.,.' ,.8 & 8 h W.W.' ' W.,.W.,.' ,.' ' ' ' ,.l.' ' ,.' J ' ,.' 8 8 8 h ,.l.l.l.l.l.W.W.' J . .   . 8 8 h ' J l.' ' ' ",
",.,.' h & & ' h h W.J 8 ' l.l.,.,.l.l.l.l.' ,.' ' ' ' ,.' ,.,.' ' ,.' ,.,.' ,.' ,.l.l.#Xl.' l.W.' ' h & . . & J ' l.l.l.' ' ' ,.",
",.,.' ,.' 8 h #Xl.,.W.,.J l.l.,.,.l.l.W.,.' ,.' ,.,.' ' ' W.,.,.,.l.,.,.,.' ' ,.,.l.l.' W.W.' J J ' ' ' ' ' ' ,.l.,.W.,.l.,.,.l.",
"l.' ' ' J J J J l.l.,.l.,.,.l.,.' ,.l.,.' ,.' J ,.,.,.J ' l.l.l.,.,.,.' W.l.' ' ,.#Xl.& ,.' J J ' ' ,.l.l.,.' ' J ,.,.l.,.,.,.J ",
"' ' ' ' J ,.l.l.l.,.,.l.,.,.,.,.,.,.,.,.,.' ' l.,.,.' ' W.l.l.l.J l.l.J ,.l.,.,.' W.h J ' ' ,.,.' J h ,.W.l.,.' ' J ' l.J ' ' J ",
",.' ' ' ' l.l.W.l.,.,.' ' h J J J h 8 J ' J ,.,.,.' ' ' l.J l.' ' ,.l.,.,.,.' ' ' ' ' ,.,.' ' ' ,.#Xl.' ,.W.' ,.' ,.' J ' ,.' ,.",
"l.l.' ' ' ' ,.l.l.l.,.' ' 8 8 8 8 8 8 J ' ,.' ' ,.,.,.,.' ' ,.' ,.' J ' J J ,.' ' ,.g.,.l.l.' ,.,.#XW.W.,.l.,.,.' ' J ' l.' l.W.",
",.l.,.,.' ' ' ' ' ' ' ' ' ,.,.J ' ,.' ,.' J ,.l.l.l.l.,.l.,.l.,.,.J 8 8 & h ,.,.' ' ,.l.l.W.,.' ' ' ' ,.,.,.' ' ,.J h l.,.l.l.,.",
"' ,.,.' ' ,.' ,.,.' ' ' ' ,.J ' ,.' ' ' ' ' ,.,.J l.J ,.' l.,.,.' ,.' J ' ,.,.' ' ,.' ,.l.,.' J h J ' ,.,.l.l.' ,.,.l.' W.W.,.l.",
",.l.,.,.J h h h h 8 J ,.,.,.' ,.,.,.,.' ,.' ' ' ,.,.' ,.' ,.' ,.,.' ,.,.,.' ' ' ' ' l.' ' ' ' ,.#X#X,.' l.,.l.' ' J J ,.l.l.l.,.",
",.' ' ' J 8 8 8 h h ' ' ' ,.,.l.l.l.l.,.' ,.' ,.' ' ' ' ' J h J ' ,.l.l.l.,.' ' ' ,.W.' ' ' ,.' ' J h l.,.l.l.' ,.' l.l.l.' l.J ",
",.' ' ,.' ,.,.,.Z.,.,.' ,.' h J ' l.,.,.' ,.' ' ' ' ,.' 8 . . . h W.,.,.l.' ' l.,.,.' ' ' ' ' ,.' J W.,.,.#X,.' ' ' ' l.,.,.,.,.",
",.' ,.' g.l.' l.,.,.,.,.' ,.,.,.,.' l.l.' ,.,.,.,.' ' ,.' J J h J #XW.l.,.l.W.l.,.,.' ,.l.,.' ,.' J h 8 J ' ' ,.l.,.,.' ' ' ' ,.",
"' ' ,.l.W.,.' l.l.W.,.l.,.' ,.,.h J W.,.' ,.' ' ' ' ,.,.' ,.,.,.,.' #X,.,.W.l.' ,.l.,.,.,.l.' ' 8 & & & > & J l.,.,.l.,.,.,.' ' ",
"' ,.W.,.,.' l.W.#Xl.,.W.W.W.W.l.J W.l.,.' ,.J ,.W.l.l.l.,.' ,.l.,.,.' J #X2XW.J l.l.,.l.W.W.l.' 8 & & & 8 J ' l.l.,.,.,.' ,.' ,.",
"' ,.,.W.' ' W.,.l.' ' l.W.,.' ' ,.' ' ' ' J l.' J l.l.' l.l.W.,.l.,.' J l.g.' J ,.l.,.W.W.#XW.' ,.J J J ' ,.' ,.,.' ,.l.,.' ' ,.",
"J l.,.' ' ' ,.' ' ' ' ' ' ' ' ' ' l.,.,.J ,.,.' ,.' W.W.' W.J ,.,.' ' ' ,.' ,.' J ' l.W.' ,.,.' ' ' ,.,.' ' ,.,.,.,.W.,.' ' l.#X",
"l.,.8 _ ' ,.' ' ' ' ' ' ' ' ' ' ' ,.,.,.,.l.,.l.l.J ,.,.J _ h h h b h 8 h ,.' ' ' ' ,.,.' ' ' ,.,.J ' l.l.,.l.,.l.' ,.' ' ' W.,.",
"l.' l.#XW.' ' ' ' ,.' ' ,.' ' ,.' ' J ,.l.,.,.,.' ,.' 8 8 8 & 8 8 & 8 8 J l.l.,.,.,.' ' ,.' ' ,.Z.' l.l.l.' l.' ,.W.' ,.' ' ,.,.",
",.,.J h J ' ,.' ' ' ' ' ,.,.' ' ,.l.' l.J ,.,.,.,.' ' ' J h h h h h J ,.,.,.l.W.W.W.l.' ' ,.l.,.' ,.W.,.l.J l.,.' ,.,.,.,.,.l.l.",
",.,.J ' ,.,.' ' ,.' W.' ' #X,.' Z.l.#X,.' ,.,.l.,.' ' ' ' ,.' ,.,.,.,.,.,.l.l.,.l.l.,.,.' ' ' ' ' ,.J ,.,.' ' ' J J J J _ ' ,.,.",
"l.W.W.l.,.' ' ' ' ,.l.l.' l.,.l.l.l.' ' ,.,.l.' ' ' ' ,.,.,.,.J ,.l.,.l.l.l.l.,.h ' J ' ' ,.l.l.l.,.,.,.' ,.' ,.h 8 & & ' ,.,.,.",
",.,.=XW.' ,.' ,.,.,.J l.,.l.l.,.l.l.l.' ' ' ,.,.' ' ,.,.l.W.l.,.,.l.' h l.l.,.W.l.h ' ,.' l.,.,.,.,.,.l.,.,.' ' ' ' ' ' ,.' ,.l.",
"W.' J J ' ' ' ' ,.' ,.,.,.,.' ' ' ,.,.' ' ' ' ' ' ' ,.l.l.l.,.' l.l.l.J J ,.,.h ' ,.' ,.' ,.J l.' ,.' ' J J ' ' ' l.J ' ' ' ,.W.",
"W.,.' h h 8 8 8 & ' ,.' ' ' ' ,.' ' ,.,.,.,.' ' ' ' ' W.l.l.W.h l.#X,.' ' J J #X,.W.W.' ,.W.' ' ' ' J ' l.J l.,.,.,.l.' ' ' ' ' ",
"J ' J 8 8 & 8 8 h ' ,.,.' ' l.l.,.,.l.l.,.W.l.' ' ,.' ,.' ,.J J ,.l.h ,.' ,.' l.#Xg.l.' l.W.,.l.#X' ' l.,.l.,.l.,.,.l.,.,.,.' ' ",
",.' ' ' J J h h J J J ' ,.W.W.l.,.,.,.Z.W.l.W.,.' ,.l.h ' h J ,.J h ' ' ' ,.,.' W.l.l.l.,.l.,.W.,.' ' l.l.,.J ,.,.l.,.,.' ' ,.,.",
"' ' ' ,.,.,.' J 8 8 8 8 ,.W.' ,.l.,.,.,.,.#X' ' ' ,.l.,.l.,.l.,.W.,.' ,.' ' ' ,.W.l.,.,.,.g.,.,.,.' ' ,.' ' ' ,.l.J ,.J ' ,.,.,.",
"' ,.,.' ' ,.,.' ' ' ' ' ' ' J #Xl.,.' l.J l.W.' ' ,.,.,.,.,.l.l.W.,.' h 8 8 8 h J ,.,.' ' ' ,.,.' ' ' ' ,.J J W.' h ,.,.,.' ' ,.",
"' ' l.,.,.,.W.2X' ,.,.,.,.J ,.l.l.' h l.,.8 ,.' W.#X,.,.l.,.l.l.l.,.' J J J h 8 ' ' h h h h ' ' ' ' ' ,.,.l.h ' ,.J l.W.W.J ' ' ",
"' ,.l.W.l.l.l.' ' ' J h 8 ' ' ,.,.,.h l.l.J ' ' l.l.' W.l.' W.l.W.#XJ ,.,.' J W.l.J J #X,.W.' ' ' ' ' ' ' W.W.' ,.,.l.W.,.,.,.,.",
",.l.l.l.l.,.#X#XJ 8 . & . J ,.' ' ' J l.' ,.' ' ' ' ' l.l.' ,.#X' l.,.h ' ' ,.W.l.J ,.l.,.#X,.' ' ' ,.' l.W.#Xl.l.l.,.,.,.W.l.' ",
"Z.l.#Xl.' l.W.J ' ' J J h ' ' ' ,.l.l.' ,.' ,.,.,.' ,.' ' ,.' ' ' h ' W.J J l.l.l.' ,.W.W.l.,.' ' ,.' ,.' l.l.W.l.,.,.,.,.,.' ' ",
"l.l.' #Xl.' J ' ' ' ,.,.,.J h l.l.l.,.,.' ,.l.,.,.' ' ,.' ,.' h l.W.' l.W.J ' l.l.' l.l.l.l.,.' ,.,.' ' ' ' ,.J h h ' ,.' ' ' ' ",
"l.W.8 ,.,.,.J ,.' ,.g.' ' 8 8 & ' l.,.,.l.,.' W.' ' ' ,.,.' ' ' h l.W.Z.l.l.' l.l.' ,.l.l.,.' ' ' d.' ' ' ' ,.h . & J ,.' ' ' ' ",
"2X,.8 ' ' J h J h J h J ' & 8 8 h ,.l.h ' 8 h ,.' ,.' ' ' ,.J J ,.' ,.l.,.W.,.l.l.' ' ,.,.,.' ' ,.,.,.,.,.' ,.' ' ' ' J ,.' ,.,.",
",.8 ' ,.' h 8 & 8 & & 8 J _ 8 h & h h 8 & 8 8 J J ' ' ,.,.' l.W.l.W.,.,.,.,.,.' ,.,.' ,.' ' ' ' ' ' ' J h h h ,.,.8 . > J ' ,.:.",
"' ,.,.' ,.' ,.' ' J J ' ,.' J 8 h 8 8 8 h J ,.J h ' ' ' ,.l.' l.l.l.l.,.' ' ' ,.' ' ' ,.' #XJ ' ' ,.J 8 8 8 J ,.J J J J ' W.' J ",
"' ,.,.' ' ,.' ' ,.' J h h ' ' ' ' J ' ' ,.,.' ,.,.' ' ' ' l.,.' ,.l.l.l.,.' ,.' ' ' ,.' J #X' ' J ,.,.' ' ' ,.' W.J l.l.' #X' ,.",
",.,.,.' ' ' ,.' Z.l.,.' J ,.,.l.' l.W.' ,.' ,.' ' ' ,.J l.l.J ' ' ' ,.' ' ' ' ' ' ,.#XW.l.l.,.W.J ' ' ' ' ' ' l.l.l.W.l.,.,.W.' ",
"#X,.' l.l.' ,.W.W.#X#X,.,.#X#Xl.,.#X,.W.,.' ' ' ' ' ' ,.l.,.,.l.l.' ,.' ' ,.' ' ' l.l.#XW.l.,.W.' ' W.4X,.J ,.l.,.l.,.,.' ,.l.l."
};
