/* XPM */
static char *_26257e27f2e4813ec9e89c4a1bb1224zHXB8WoYKemX7X6f[] = {
/* columns rows colors chars-per-pixel */
"32 32 5 1 ",
"  c None",
". c gray13",
"X c #3E2723",
"o c #4E342E",
"O c gray26",
/* pixels */
"                                ",
"                                ",
"           ...........          ",
"          .OOOOOOOOOOO.         ",
"         .OO.........OO.        ",
"        .OO.XoXXXoXXX.OO.       ",
"       .OO.XXoXXXoXXXo.OO.      ",
"       .O.XXXoXXXoXXXoX.O.      ",
"      .OO.XXXoXXXoXXXoX.OO.     ",
"      .O.oXXXoXXXoXXXoXX.O.     ",
"      .O.oXXXoXXXoXXXoXX.O.     ",
"      .O.oXXXoXXXoXXXoXX.O.     ",
"      .O.oXXXoXXXoXXXo...O.     ",
"      .O.oXXXoXXXoXXXoXX.O.     ",
"      .O.o....XXXoXXXoXX.O.     ",
"      .O.oX..oXXXoXXXoXX.O.     ",
"      .O.o.XX.XXXoXXXoXX.O.     ",
"      .O.o.XX.XXXoXXXoXX.O.     ",
"      .O.oX..oXXXoXXXoXX.O.     ",
"      .O.oXXXoXXXoXXXoXX.O.     ",
"      .O.oXXXoXXXoXXXoXX.O.     ",
"      .O.oXXXoXXXoXXXo...O.     ",
"      .O.oXXXoXXXoXXXoXX.O.     ",
"      .O.oXXXoXXXoXXXoXX.O.     ",
"      .O.oXXXoXXXoXXXoXX.O.     ",
"      .O.oXXXoXXXoXXXoXX.O.     ",
"      .O.oXXXoXXXoXXXoXX.O.     ",
"      .O.oXXXoXXXoXXXoXX.O.     ",
"      .....................     ",
"                                ",
"                                ",
"                                "
};
