/* XPM */
static char *ea3b73fba9604da983309e81a504d7fdK1Zg6cSKXDCIYhLT[] = {
/* columns rows colors chars-per-pixel */
"32 32 7 1 ",
"  c None",
". c #36130B",
"X c #3D2309",
"o c #61372E",
"O c #9C5A3C",
"+ c #9C5B4E",
"@ c #FCBBAE",
/* pixels */
"                                ",
"                                ",
"                                ",
"             ++++               ",
"            o++++oo             ",
"           o+@@@@@o++           ",
"         o++@@@@@@+o@o          ",
"         +@+@.@@.@+o@o          ",
"         O@+@@@@@@@Xo           ",
"          o+@o@@@o@o            ",
"           +@@ooo@@o            ",
"            o@@@@@o             ",
"          Xo+ooooo.o            ",
"         X++++++++++o      +++  ",
"         o++++++++o++o    + ..  ",
"         o+o++++++oo+o    +  .  ",
"         o+o++++++ o+o    +     ",
"         ++o++++++ o+X    +     ",
"        o@@o++++++ o@@o  ++     ",
"        o@@o++++++.o@@o+++      ",
"         oo ++++++. oo          ",
"           ++o ++o              ",
"           +o  +o               ",
"          ++o  +o               ",
"          +o   ++o              ",
"          +o    ++o             ",
"          @@o   @@o             ",
"         @@@o  @@@.             ",
"                                ",
"                                ",
"                                ",
"                                "
};
