/* XPM */
static char *_af5e04457324c919e152737f4b2ff20[] = {
/* columns rows colors chars-per-pixel */
"64 64 243 2 ",
"   c None",
".  c #38190D",
"X  c #3A2112",
"o  c #470500",
"O  c #570807",
"+  c #4B1A04",
"@  c #541C02",
"#  c #5B1A06",
"$  c #641F00",
"%  c #6B1D00",
"&  c #4E2305",
"*  c #552204",
"=  c #5C2303",
"-  c #5B250D",
";  c #5D2A0C",
":  c #56260B",
">  c #492A18",
",  c #5B2C13",
"<  c #542917",
"1  c #5C3216",
"2  c #632402",
"3  c #6D2401",
"4  c #6D2A02",
"5  c #632A0B",
"6  c #6B2C0B",
"7  c #612707",
"8  c #742601",
"9  c #742B02",
"0  c #7B2B01",
"q  c #722D0C",
"w  c #782F0C",
"e  c #65320A",
"r  c #6D330A",
"t  c #7B3205",
"y  c #72320D",
"u  c #79360A",
"i  c #672D11",
"p  c #752F11",
"a  c #653214",
"s  c #6A3313",
"d  c #6A391A",
"f  c #733514",
"g  c #7B3C14",
"h  c #773918",
"j  c #442622",
"k  c #5A3C30",
"l  c #6B3B22",
"z  c #653925",
"x  c #763C23",
"c  c #7D4115",
"v  c #7A431B",
"b  c #5E4339",
"n  c #5F402D",
"m  c #6C4227",
"M  c #774627",
"N  c #664737",
"B  c #784B35",
"V  c #7B543A",
"C  c #76502D",
"Z  c #785949",
"A  c #6D564F",
"S  c #822E01",
"D  c #833404",
"F  c #8C3503",
"G  c #8E3A02",
"H  c #8A3B0C",
"J  c #823609",
"K  c #943B08",
"L  c #973D07",
"P  c #853C15",
"I  c #853C17",
"U  c #963E11",
"Y  c #8E2D2C",
"T  c #A83437",
"R  c #881922",
"E  c #9C430C",
"W  c #9C4308",
"Q  c #834214",
"!  c #84421C",
"~  c #8C441B",
"^  c #8B491B",
"/  c #894516",
"(  c #974616",
")  c #8E4A16",
"_  c #AC4A03",
"`  c #A2430B",
"'  c #A4490D",
"]  c #AC4B0B",
"[  c #A64506",
"{  c #B34C04",
"}  c #B24C0B",
"|  c #BD4F05",
" . c #B55106",
".. c #BC5504",
"X. c #BA540A",
"o. c #A54B17",
"O. c #B15116",
"+. c #8C4A26",
"@. c #864926",
"#. c #88522A",
"$. c #945324",
"%. c #9B5729",
"&. c #875638",
"*. c #975936",
"=. c #8D4C2F",
"-. c #A35729",
";. c #A45B35",
":. c #8E603C",
">. c #AB653C",
",. c #C35404",
"<. c #CB5B03",
"1. c #C35C0B",
"2. c #C75B08",
"3. c #D15F05",
"4. c #C25C15",
"5. c #CB620A",
"6. c #CF6104",
"7. c #D4640B",
"8. c #D56306",
"9. c #865B43",
"0. c #955C4B",
"q. c #976548",
"w. c #8A6859",
"e. c #956755",
"r. c #9A7459",
"t. c #836044",
"y. c #A2684A",
"u. c #A97758",
"i. c #BA7C5A",
"p. c #B26E49",
"a. c #977866",
"s. c #8E766C",
"d. c #A47B64",
"f. c #B37D63",
"g. c #A86762",
"h. c #B64847",
"j. c #C77B57",
"k. c #CB6A56",
"l. c #9D8273",
"z. c #A88265",
"x. c #BA876A",
"c. c #AC8976",
"v. c #BB8B72",
"b. c #B78A74",
"n. c #B99277",
"m. c #BD936D",
"M. c #C6825D",
"N. c #D8865B",
"B. c #CF965F",
"V. c #E18C5E",
"C. c #CA8B6A",
"Z. c #CB916C",
"A. c #D9946B",
"S. c #C88E74",
"D. c #DE8777",
"F. c #C7967A",
"G. c #D59C7B",
"H. c #DA9876",
"J. c #D88D64",
"K. c #E59468",
"L. c #E49A74",
"P. c #E79D78",
"I. c #E9966A",
"U. c #D8A174",
"Y. c #E9A47C",
"T. c #F5A87C",
"R. c #F2B07E",
"E. c #A78D83",
"W. c #B99982",
"Q. c #B3968B",
"!. c #BDA69D",
"~. c #C79B83",
"^. c #D59E84",
"/. c #CBA389",
"(. c #DDA484",
"). c #D3A58A",
"_. c #DBAA8B",
"`. c #D6A587",
"'. c #CCA693",
"]. c #C6A99A",
"[. c #D4AD93",
"{. c #D8AB96",
"}. c #CEB196",
"|. c #DCB297",
" X c #DDB39A",
".X c #D7B49A",
"XX c #E2AC8B",
"oX c #E9A785",
"OX c #F6AC87",
"+X c #EDB28A",
"@X c #F4B383",
"#X c #FBB285",
"$X c #F4B38C",
"%X c #FCB48D",
"&X c #FBBA8C",
"*X c #F7BB8E",
"=X c #E6AC94",
"-X c #FDAC98",
";X c #E3B293",
":X c #E4B49C",
">X c #EDB59B",
",X c #ECBB9D",
"<X c #E9B596",
"1X c #F3B392",
"2X c #FDB693",
"3X c #FBBB94",
"4X c #F3BC9B",
"5X c #FDBC9A",
"6X c #F6B796",
"7X c #C9B8AA",
"8X c #D5BAAC",
"9X c #D8B7A4",
"0X c #D7BDB1",
"qX c #E3BCA4",
"wX c #E8BDA6",
"eX c #FBB9A1",
"rX c #F5B7AF",
"tX c #FDC195",
"yX c #FEC39C",
"uX c #FFCA9D",
"iX c #F7C29A",
"pX c #DCC5B8",
"aX c #E8C4A9",
"sX c #FEC4A3",
"dX c #FFCBA3",
"fX c #FDCBAC",
"gX c #F5C6A8",
"hX c #FFD3AC",
"jX c #ECCCB5",
"kX c #E5C9B8",
"lX c #F2CCB5",
"zX c #F4D1BB",
"xX c #FDD7B7",
"cX c #ECD2BB",
"vX c #FDE0BD",
"bX c #EAD5C4",
"nX c #F8DBC9",
"mX c #E5CCC3",
"MX c #FFE3CA",
"NX c #FFEAD6",
"BX c #FFF1DC",
"VX c #EBE0CA",
"CX c #FFF6E2",
/* pixels */
"                                                                                                                                ",
"                                                                                                                                ",
"                                                                                                                                ",
"                                                    Z     Z                                                                     ",
"                                                V m : ; l ; v.                                                                  ",
"                                            Z V d f ! g h q # @ z w.].                                                          ",
"                                            m + y I P 9 q +.*.&.M + + N Q.                                                      ",
"                                        ].n e.f.+.$ $ ;.H.G.`.`.>X^.0.: & w.                                                    ",
"                                        b W.~.F.<Xy.x.,X~.'.W.a.z.>XsXC.s + w.                                                  ",
"                                      A Q.9XlX~.f.:X:X[.MXBXCXbXd.v.yXyXi.; < E.                                                ",
"                                    Q.w.BXBXxXMX[.b.[.zXCXbX8XnX}.d.>XyX$X+., z         cXaXjX                                  ",
"                        0XaXqXwX XlXV .XaXc.V 9. Xb.).nXz.r.Z w.8Xa.;XyXtX*.5 < 9X  wXaX,XgX,XqX                                ",
"                      8XqX{.(.+X4X;XC gXM 1 M 1 q.x.;Xx.- m l < a.c.;X$X%Xp.5 ; n.gX4X4XY.Y.+X|.                                ",
"                      9X).G.H.M.Z.y.#.xX&.1 l : &.u.XXx.* M C 1 w.).6XY.tX>.2 i =.u.H.A.L.Y.Y.:XpX                              ",
"                      [.(.OXV.K.*.7 M ;X{.q.S.~.F.x.x.fXC & & m z.`.$X@X#XJ 2 6 7 >.K.V.T.&X+X=XpX                              ",
"        7XkXmX        [.4XL.I.N.3 h i.(.^.&.>XfXy.q.Z.Z._.m.m.`.XXsX3X3XY.j.j.+.3 I -.V.V.P.$X:XpX                              ",
"        }.zXjX        .X>XoXN.N./ Y.3X1X+Xp.x.(.+.i.3XoX+X4X4X4X6X5XsXyX5X%X2X3X;.% ( I.P.K.#XXXnX                              ",
"        qXgX:X          .X>XOX;.>.yX3XyX1X5X3X$X5XdX3XyX5X1X1X+XOXN.j.$X5X+X@X$X$XP 3 M.L.A.$X=X                                ",
"      MX_.1X>X            '.eXZ.Z.dXyXsXdXoXoX6X6XyXyXhXfXsX5X5X%XN.j.R.@X@X&X@X2X*.= q.^.:X[.zX                                ",
"    bX XS.P.1X:X            {.b.F.gXdXsX5XL.Y.5XsXdXhXdXyXyXyX2XOXN.T.%X&X&X*XtXiXu.a /.'.].mX                                  ",
"  bX'.fXsXZ.G.|.                /.gXdXiXdXY.L.%X3XuXdXuXuX*XtX@XJ.A.2X&XtXuX3X6XiXq.&.                                          ",
"  8X~.,XdXdXG./.                  [.:XgX3XH.Y.#X&XtXtXiXtXtX@XL.A.*X3X5XtXdXdX4XfXl c.                                          ",
"nX9XwXG.oXoXZ.<Xd.                  }.|.XX+XH.$X$X1X3X2X5X@XU.B.R.&X@XuXyX3XsXfXv.V                                             ",
"nX/.fXeX6XZ.G.u.* d.                  kX|.x.q.i.oX1X=XH.C.@.C.&X#X#XtXtXyXiXeX:Xb.                                kXpXkXpX      ",
"vX/.`.=XS.G.C.# i -                       wXe.o O # # o o o -X-XOX%X%X6X5X4X:XlX                            kXW.[. X{.|.'.nX    ",
"  }.~.d.b.=Xx ; h f ;                         g.O o O O O Y -X-X5X%X2XoXH.Z.G.G.z.r.:.B B M l d d l z 9.a.'..X).`.G.=X_.'.pX    ",
"              B = x @.s n.                    rX0.Y R T T k.eXD.j.p.-.P D J t t u Q ^ $.$.^ ^ ^ ! r r = * &.XXXXXXfX4X,XjX].    ",
"                d.a h *.f &.                  nXeXD.h.T k.-Xj.8 3 9 8 D H ( ( -.%.$.^ c c c g f y v f r f C.1X6X1XG.gXqX8X      ",
"                    d M *.! Q #.u.~.).F.v.u.q.*.=.5X5X2XOX-.% 0 9 3 t P P ~ I 6 d &.d.W.      W.r.C ; = y H.6XXX_.MX            ",
"                      V s +.;.%.! h y q p p q 3 3 9 Q u % 8 S 0 t 9 t u h 7 @.~.                      9.*.1X4X_.zX              ",
"                          &.e c %.%.%.%.+.+.@.u 8 8 0 K ` ` ` F S % t 4 @ v.                            |.gX XqX                ",
"                              r.M v f s s 5 $ 3 0 G ' ] } 4.} O.E G 8 q ;                                 lXaXkX                ",
"                                      l.s.r.=.3 G [  .X.2.1.1.X.X.' S 9 *                                 jXzX0X                ",
"                                            f.3 L _ ..1.5.8.5.5.1.] E 0 =                                 zX9X                  ",
"                                            &.3 E  .1.5.7.7.7.5.1.X.] K 2 d.                  E.E.        !.                    ",
"                                            d 0 '  .1.5.7.7.7.5.1.4.} ` 3 l           F.:.d 5 , >                               ",
"                                            a t '  .1.5.7.7.8.6.5.1.X.[ J = c.    W.#.y Q ^ w f <                               ",
"                                            5 t '  .1.5.8.7.8.6.5...| } F 6 , c.e.s g $.( H 8 q -                               ",
"                                            - t E { ..1.3.8.6.<.2.,.{ } G 9 = = u %.o.o.E D 9 y * qX                            ",
"                                            5 t W _ X.1.<.3.3.<.2.,.| [ E 9 t 9 ( o.o.o.H 3 6 i ; :X                            ",
"                                            d q L ]  ...2.<.<.<.,.,.{ [ ' t 8 G o.O.o.H g v 5 i s _.;XgX9X              > X Q.  ",
"                                            m 4 G ' } ..2.2.,.,.| | } O.G 0 F G E ( ~ 2   q.- i 6 H.6XfX,Xn.          V a d N   ",
"                                            &.2 F W ] { X.2.,...,.{ _ ` K S 8 D ( u *     9.- i j.3XH.Y.Z.F.].        ; f M z   ",
"                                            u.2 D K ' ] } X... ._ { } ` U 0 8 u 6 -       a.o y.5X2XL.i.y.n.          2 P I l   ",
"                                              2 0 G E ' ] }  .{ _ _ L U S 8 6 = l         l., 5X2XoXZ.F.:X          u.y P ! x   ",
"                                              2 8 S K E ] ] ] [ ' L L U 0 y ; r.          ].F.sX5XG.x.              @.c ~ g &.  ",
"                                            n.s w 0 S K L ` [ W ( ( ( 0 3 2 m               |.hXgXn.                e c $.e z.  ",
"                                            V @.P 0 8 S F K E ) ! u $ 6 :.: > b           7XjXlX XaX                r %.^ e     ",
"                                            v $.~ t 4 4 0 9 4 2 : < w.      A X A           7X0XpX                #.Q -.r &.    ",
"                                          ^.Q -./ J r y 2 @ , Z               s.. s.                              f $.$.e       ",
"                                          z./ -.( P 2 @ 9.                      A j                             M #.*.s z.      ",
"                                          u.^ o.( 0 6                             k j                         :.+.*.M Z         ",
"                                          r./ o.E 0 p.    E.E.                      b j s.                F.@.^ -.h V           ",
"                                          z.g ( H % 4 = # < . A                       A X b s.      W.r.C v $.%.g y.            ",
"                                          ].d g q y @ 5 f 6 x b.                          k > < d x h @.@.@.v M n.              ",
"                                            z , : a q.u.f H.S.{.                              w.B l h h M &.n.                  ",
"                                              a.      wX(.fX=XkX                                                                ",
"                                                      ).4XsX{.                                                                  ",
"                                                    [.,X5XsX'.                                                                  ",
"                                                  9X/.+X+XXXkX                                                                  ",
"                                                !.].`.(.yXXXcX                                                                  ",
"                                                  c.n.F.,X).                                                                    ",
"                                                    VXkX8X                                                                      ",
"                                                                                                                                "
};
