/* XPM */
static char * banana3_xpm[] = {
"64 64 692 2",
"  	c None",
". 	c #B78C29",
"+ 	c #C6951E",
"@ 	c #DFA91F",
"# 	c #ECB421",
"$ 	c #ECB420",
"% 	c #E9B21F",
"& 	c #E7B01E",
"* 	c #D3A73F",
"= 	c #D9A82D",
"- 	c #ECB527",
"; 	c #F4BB24",
"> 	c #F2B923",
", 	c #EDC153",
"' 	c #F2C145",
") 	c #F9C336",
"! 	c #FBC129",
"~ 	c #F9BF25",
"{ 	c #F3BA23",
"] 	c #EDB521",
"^ 	c #EAB320",
"/ 	c #A67B17",
"( 	c #D3A01F",
"_ 	c #E7B020",
": 	c #EFB722",
"< 	c #EEB622",
"[ 	c #FCD05F",
"} 	c #FDCD53",
"| 	c #FEC941",
"1 	c #FDC52D",
"2 	c #FDC326",
"3 	c #FAC025",
"4 	c #EDB621",
"5 	c #C49628",
"6 	c #E1AD2A",
"7 	c #F3BB27",
"8 	c #F7BE25",
"9 	c #F5BC24",
"0 	c #F2BA23",
"a 	c #F1B822",
"b 	c #FFCF58",
"c 	c #FFCB4B",
"d 	c #FEC634",
"e 	c #FEC42B",
"f 	c #FDC327",
"g 	c #F8BF24",
"h 	c #EAB321",
"i 	c #CD9C20",
"j 	c #E6AF21",
"k 	c #EBB320",
"l 	c #E0B037",
"m 	c #F1BD39",
"n 	c #FAC334",
"o 	c #FDC42B",
"p 	c #FBC32C",
"q 	c #F9C029",
"r 	c #F5BB23",
"s 	c #FBCB4E",
"t 	c #FCC842",
"u 	c #FEC736",
"v 	c #FDC52B",
"w 	c #FBC226",
"x 	c #F5BD24",
"y 	c #EEB724",
"z 	c #E5B027",
"A 	c #D2A128",
"B 	c #B28726",
"C 	c #D1A027",
"D 	c #EAB326",
"E 	c #F1B923",
"F 	c #F0B822",
"G 	c #FDC942",
"H 	c #FEC83F",
"I 	c #FDC93F",
"J 	c #FDC637",
"K 	c #FCC42C",
"L 	c #FBC127",
"M 	c #F8BE25",
"N 	c #F7BE24",
"O 	c #F5BD25",
"P 	c #F2BD32",
"Q 	c #F4C242",
"R 	c #F9C746",
"S 	c #FDC840",
"T 	c #FEC632",
"U 	c #FDC429",
"V 	c #FBC126",
"W 	c #F3BB24",
"X 	c #D0A02B",
"Y 	c #C09227",
"Z 	c #C6951F",
"` 	c #E3AD20",
" .	c #EBB421",
"..	c #E9B220",
"+.	c #BC912D",
"@.	c #DEAD33",
"#.	c #F3BE30",
"$.	c #F8C02B",
"%.	c #F8BF25",
"&.	c #F1B722",
"*.	c #ECB521",
"=.	c #E8B21F",
"-.	c #FECD52",
";.	c #FECE53",
">.	c #FECC4B",
",.	c #FEC83B",
"'.	c #FDC52F",
").	c #FCC328",
"!.	c #F2BB2A",
"~.	c #F1BD37",
"{.	c #F5C344",
"].	c #FBC947",
"^.	c #FDC73D",
"/.	c #FCC326",
"(.	c #F7BF25",
"_.	c #ECB72E",
":.	c #DDAD36",
"<.	c #DCAD36",
"[.	c #E7B530",
"}.	c #F1BA29",
"|.	c #F4BC25",
"1.	c #E8B11F",
"2.	c #FBC538",
"3.	c #FDC636",
"4.	c #FDC42F",
"5.	c #FCC329",
"6.	c #ECB622",
"7.	c #EAB421",
"8.	c #FACE5C",
"9.	c #FBCE5A",
"0.	c #FDCF58",
"a.	c #FEC839",
"b.	c #FDC529",
"c.	c #FCC226",
"d.	c #F6BD25",
"e.	c #F0BA2B",
"f.	c #F1BF3C",
"g.	c #F7C648",
"h.	c #FBC845",
"i.	c #FDC738",
"j.	c #FAC126",
"k.	c #F5BF31",
"l.	c #EFBD3B",
"m.	c #F0C042",
"n.	c #F9C642",
"o.	c #FCC636",
"p.	c #FBC229",
"q.	c #F8BE24",
"r.	c #F1B922",
"s.	c #FECB47",
"t.	c #FECA44",
"u.	c #FEC738",
"v.	c #FDC42E",
"w.	c #F9C127",
"x.	c #F3BD25",
"y.	c #EEB923",
"z.	c #EFB823",
"A.	c #F0B828",
"B.	c #F1BE3E",
"C.	c #F4C44D",
"D.	c #F8CA55",
"E.	c #FCCC52",
"F.	c #FECA43",
"G.	c #FEC630",
"H.	c #FDC328",
"I.	c #F7BF27",
"J.	c #F3BE33",
"K.	c #F4C343",
"L.	c #F9C94B",
"M.	c #FDCA44",
"N.	c #FEC735",
"O.	c #FCC42B",
"P.	c #F9C12B",
"Q.	c #F6C035",
"R.	c #F4C342",
"S.	c #F9C94C",
"T.	c #FDC941",
"U.	c #FCC227",
"V.	c #F6BD24",
"W.	c #FED25F",
"X.	c #FED059",
"Y.	c #FECC4F",
"Z.	c #FFC93F",
"`.	c #FDC52E",
" +	c #FBC327",
".+	c #EFB827",
"++	c #EFBB35",
"@+	c #F2C044",
"#+	c #F7C84E",
"$+	c #FCCB4D",
"%+	c #FDC635",
"&+	c #FDC42A",
"*+	c #F7BF2C",
"=+	c #F4C03C",
"-+	c #F7C74D",
";+	c #FCCD50",
">+	c #FECA42",
",+	c #FDC630",
"'+	c #F7C02A",
")+	c #F3BF39",
"!+	c #F6C649",
"~+	c #FBC945",
"{+	c #FDC739",
"]+	c #FDC52C",
"^+	c #F5BC23",
"/+	c #EEB621",
"(+	c #FED466",
"_+	c #FDD260",
":+	c #FFCE55",
"<+	c #FAC125",
"[+	c #F1BA28",
"}+	c #F4C348",
"|+	c #F9CA52",
"1+	c #FDCC4E",
"2+	c #FEC52E",
"3+	c #FAC027",
"4+	c #F3BE32",
"5+	c #FACB52",
"6+	c #FDCC4A",
"7+	c #FDC838",
"8+	c #F4BE32",
"9+	c #F9C84C",
"0+	c #FDCA45",
"a+	c #FEC734",
"b+	c #FDC329",
"c+	c #F9C025",
"d+	c #FED66B",
"e+	c #FED56A",
"f+	c #FDD364",
"g+	c #FFC83B",
"h+	c #FEC52D",
"i+	c #F8C025",
"j+	c #F1BC29",
"k+	c #F1BF3D",
"l+	c #F6C64E",
"m+	c #FBCD55",
"n+	c #FECC4C",
"o+	c #FDC42C",
"p+	c #F6BF2D",
"q+	c #F4C140",
"r+	c #F8C950",
"s+	c #FDCD52",
"t+	c #FDC530",
"u+	c #FBC228",
"v+	c #F5BE2B",
"w+	c #F1BE38",
"x+	c #F5C548",
"y+	c #FDCC50",
"z+	c #FEC531",
"A+	c #FCC327",
"B+	c #EFB822",
"C+	c #FFD66C",
"D+	c #FED15F",
"E+	c #FFCD52",
"F+	c #FEC93E",
"G+	c #FEC631",
"H+	c #FDC428",
"I+	c #F7C026",
"J+	c #F3BD31",
"K+	c #F2BF40",
"L+	c #F8C851",
"M+	c #FCCD53",
"N+	c #FECA48",
"O+	c #F8C029",
"P+	c #F4C039",
"Q+	c #FDCE57",
"R+	c #FECC49",
"S+	c #EFBA2C",
"T+	c #F2C143",
"U+	c #F9CA51",
"V+	c #FDCB4C",
"W+	c #FEC73A",
"X+	c #FED569",
"Y+	c #FED261",
"Z+	c #FFCF55",
"`+	c #FECA46",
" @	c #F7BF29",
".@	c #F3BE34",
"+@	c #F5C447",
"@@	c #FCCC50",
"#@	c #FDC943",
"$@	c #FDC62F",
"%@	c #FAC127",
"&@	c #F5BE30",
"*@	c #FCCD56",
"=@	c #FECD4E",
"-@	c #F2BB29",
";@	c #F1BE3A",
">@	c #F6C54A",
",@	c #FCCA4D",
"'@	c #FEC83D",
")@	c #FBC225",
"!@	c #EFB621",
"~@	c #FED66C",
"{@	c #FED364",
"]@	c #FECF58",
"^@	c #FEC530",
"/@	c #F8C02A",
"(@	c #F5C03A",
"_@	c #F4C347",
":@	c #F9CA54",
"<@	c #FCCB4C",
"[@	c #F7C02C",
"}@	c #F5C13E",
"|@	c #FCCD54",
"1@	c #FECB46",
"2@	c #FBC227",
"3@	c #F5BC26",
"4@	c #EFBA2F",
"5@	c #F2C042",
"6@	c #FBCA4E",
"7@	c #FEC940",
"8@	c #FED363",
"9@	c #FECE51",
"0@	c #FDC531",
"a@	c #F6BE2C",
"b@	c #F2BD37",
"c@	c #F4C44A",
"d@	c #FACA50",
"e@	c #FDCB49",
"f@	c #F9C028",
"g@	c #F3BE35",
"h@	c #F4C54A",
"i@	c #FBCD56",
"j@	c #FECC4D",
"k@	c #EEB624",
"l@	c #EFBD3D",
"m@	c #F9C94D",
"n@	c #FDCA46",
"o@	c #FDC634",
"p@	c #EAB220",
"q@	c #E7B01F",
"r@	c #FFD465",
"s@	c #FED15C",
"t@	c #F9C027",
"u@	c #F4BD2E",
"v@	c #F2C03E",
"w@	c #F7C84F",
"x@	c #F3BD2D",
"y@	c #F2C141",
"z@	c #F8CA52",
"A@	c #FCC42A",
"B@	c #F0BA28",
"C@	c #F1BE3C",
"D@	c #F7C74C",
"E@	c #FCCC4E",
"F@	c #FEC83E",
"G@	c #F3BB23",
"H@	c #FECF54",
"I@	c #F7BE28",
"J@	c #F1BC34",
"K@	c #FDCF5A",
"L@	c #FECB4D",
"M@	c #FAC22B",
"N@	c #F3BC2A",
"O@	c #F0BD38",
"P@	c #F5C549",
"Q@	c #FBCA4C",
"R@	c #FEC83C",
"S@	c #F4BD28",
"T@	c #F1BE37",
"U@	c #FEC52F",
"V@	c #FDD467",
"W@	c #FECD4F",
"X@	c #FEC739",
"Y@	c #F4C243",
"Z@	c #FACC55",
"`@	c #FDC842",
" #	c #FAC22E",
".#	c #F4BC27",
"+#	c #EEB931",
"@#	c #F1C143",
"##	c #FAC94C",
"$#	c #FDC83F",
"%#	c #F8BF27",
"&#	c #F0BA2E",
"*#	c #F2C144",
"=#	c #FACC53",
"-#	c #FECA47",
";#	c #FDC632",
">#	c #E9B11F",
",#	c #FECA45",
"'#	c #FAC128",
")#	c #F4BC29",
"!#	c #FDCD55",
"~#	c #FFCB49",
"{#	c #FCC42F",
"]#	c #F5BD26",
"^#	c #EEB82C",
"/#	c #F1C043",
"(#	c #F9C94E",
"_#	c #F9C026",
":#	c #F3BC2F",
"<#	c #F3C143",
"[#	c #F9CA50",
"}#	c #FDCB4A",
"|#	c #FEC636",
"1#	c #FED262",
"2#	c #FECD50",
"3#	c #FEC73B",
"4#	c #FBC22A",
"5#	c #F4BB25",
"6#	c #EFB92E",
"7#	c #F4C246",
"8#	c #FBCD57",
"9#	c #FDC73A",
"0#	c #F6BF2A",
"a#	c #F0BC30",
"b#	c #F3C245",
"c#	c #FDC532",
"d#	c #F5BE2C",
"e#	c #FDCD4F",
"f#	c #FEC737",
"g#	c #F1BA23",
"h#	c #FDD466",
"i#	c #FFD05A",
"j#	c #FFCA46",
"k#	c #FCC430",
"l#	c #F5BC25",
"m#	c #EEB626",
"n#	c #F0BE3F",
"o#	c #F8CA54",
"p#	c #FDC841",
"q#	c #F8C12D",
"r#	c #F2BE33",
"s#	c #F4C448",
"t#	c #FBCB53",
"u#	c #FEC532",
"v#	c #F5BD29",
"w#	c #F0BE39",
"x#	c #F8C953",
"y#	c #FDCD51",
"z#	c #F8BF28",
"A#	c #F0B827",
"B#	c #EFBC3B",
"C#	c #F6C852",
"D#	c #FCCE57",
"E#	c #F9C22D",
"F#	c #F2BC30",
"G#	c #F3C348",
"H#	c #FBCB52",
"I#	c #F4BE2F",
"J#	c #F4C447",
"K#	c #FACC57",
"L#	c #FEC93F",
"M#	c #FFD463",
"N#	c #FECE52",
"O#	c #FAC029",
"P#	c #F1BA26",
"Q#	c #EEBB36",
"R#	c #F5C751",
"S#	c #FDD05C",
"T#	c #FAC332",
"U#	c #F3BD30",
"V#	c #F3C243",
"W#	c #F4BF34",
"X#	c #F5C54A",
"Y#	c #FBCD58",
"Z#	c #FDC83C",
"`#	c #F7BF24",
" $	c #FECF53",
".$	c #FEC93B",
"+$	c #F2BA25",
"@$	c #EFBA32",
"#$	c #F5C64C",
"$$	c #FCCE58",
"%$	c #FBC437",
"&$	c #F6BF31",
"*$	c #F4C241",
"=$	c #F9CA4E",
"-$	c #F1BB2F",
";$	c #F3C247",
">$	c #FDCC4D",
",$	c #EEB722",
"'$	c #FBC32E",
")$	c #F4BC26",
"!$	c #EFBB30",
"~$	c #FBCC54",
"{$	c #FECC4A",
"]$	c #FBC534",
"^$	c #F7C02E",
"/$	c #F4C341",
"($	c #F9CB51",
"_$	c #FDCB48",
":$	c #F6BD26",
"<$	c #F3C349",
"[$	c #FDC733",
"}$	c #FCC428",
"|$	c #FED15D",
"1$	c #FECB49",
"2$	c #FCC534",
"3$	c #F6BE29",
"4$	c #F1BC32",
"5$	c #F5C44A",
"6$	c #FCCD55",
"7$	c #FAC32F",
"8$	c #F5BE2D",
"9$	c #F2BE37",
"0$	c #F6C54C",
"a$	c #FECD51",
"b$	c #F8C02C",
"c$	c #F2BF38",
"d$	c #F8C852",
"e$	c #FDCE58",
"f$	c #F9C232",
"g$	c #F3BD2E",
"h$	c #F2BF3D",
"i$	c #F7C64A",
"j$	c #FCCA47",
"k$	c #F7BF2A",
"l$	c #FECA41",
"m$	c #EAB31F",
"n$	c #FECF56",
"o$	c #F8C131",
"p$	c #F4C13E",
"q$	c #F2BF3E",
"r$	c #F7C74B",
"s$	c #F5BD28",
"t$	c #F2BE38",
"u$	c #F7C84C",
"v$	c #FEC83A",
"w$	c #FDCA48",
"x$	c #F7C132",
"y$	c #F3C13E",
"z$	c #FDCE59",
"A$	c #F4BE31",
"B$	c #F4C344",
"C$	c #FBC94A",
"D$	c #F8C128",
"E$	c #F8C649",
"F$	c #FDC946",
"G$	c #FEC635",
"H$	c #EFB721",
"I$	c #FFD25F",
"J$	c #FDCB4B",
"K$	c #F7C034",
"L$	c #F2BF3A",
"M$	c #F8C951",
"N$	c #FEC840",
"O$	c #F9C12D",
"P$	c #F4BF36",
"Q$	c #F6C548",
"R$	c #FBCA4D",
"S$	c #FDC42D",
"T$	c #F1BB2D",
"U$	c #F9C74A",
"V$	c #FCC225",
"W$	c #FFD15D",
"X$	c #FECB4E",
"Y$	c #F9C33B",
"Z$	c #F4C13D",
"`$	c #F7C850",
" %	c #FCC73E",
".%	c #F8C02E",
"+%	c #FCC32A",
"@%	c #F6BE26",
"#%	c #F0BB2F",
"$%	c #F3C244",
"%%	c #FEC42C",
"&%	c #FFD25E",
"*%	c #FECE55",
"=%	c #FBC63F",
"-%	c #F7C442",
";%	c #FDCC4F",
">%	c #FBC53A",
",%	c #F5BE2E",
"'%	c #F7CA51",
")%	c #F0BC32",
"!%	c #F4C446",
"~%	c #FBC948",
"{%	c #FFD058",
"]%	c #F9C643",
"^%	c #FAC434",
"/%	c #F3BC2E",
"(%	c #F2BF3F",
"_%	c #F8C94D",
":%	c #FCCA46",
"<%	c #FCC533",
"[%	c #F0BD36",
"}%	c #F5C547",
"|%	c #FCC946",
"1%	c #FFCF56",
"2%	c #FEC945",
"3%	c #FBC741",
"4%	c #FBC949",
"5%	c #F9C231",
"6%	c #F2BC2E",
"7%	c #F8C647",
"8%	c #F6BE25",
"9%	c #F8C748",
"0%	c #FECE54",
"a%	c #FEC946",
"b%	c #FDC638",
"c%	c #FBC73D",
"d%	c #FCC73B",
"e%	c #F9C12E",
"f%	c #F0BD39",
"g%	c #F8C544",
"h%	c #F2BC29",
"i%	c #F0BC38",
"j%	c #F4C549",
"k%	c #FAC94A",
"l%	c #FDC73C",
"m%	c #FECA3F",
"n%	c #FCC62D",
"o%	c #F9C830",
"p%	c #FBC62E",
"q%	c #F9C12A",
"r%	c #F1BC31",
"s%	c #F1C141",
"t%	c #FAC746",
"u%	c #FDC639",
"v%	c #F2BD30",
"w%	c #F9CB56",
"x%	c #E8B01E",
"y%	c #F7C829",
"z%	c #F3C925",
"A%	c #F4C823",
"B%	c #F6C627",
"C%	c #F4C435",
"D%	c #F6C847",
"E%	c #FBCA4A",
"F%	c #FCC73C",
"G%	c #F8C12B",
"H%	c #F2BF36",
"I%	c #F5C64E",
"J%	c #FCCF5B",
"K%	c #F0C820",
"L%	c #EFCA1F",
"M%	c #F1C923",
"N%	c #F1C92E",
"O%	c #F4CB41",
"P%	c #FBCB45",
"Q%	c #FAC938",
"R%	c #F1C126",
"S%	c #F0C137",
"T%	c #F7C84D",
"U%	c #FCCE56",
"V%	c #F0B722",
"W%	c #EDB522",
"X%	c #F2C621",
"Y%	c #EEC91F",
"Z%	c #ECCA22",
"`%	c #F9C72A",
" &	c #F4C92A",
".&	c #ECC828",
"+&	c #EFC836",
"@&	c #F7C942",
"#&	c #FBCA45",
"$&	c #F0C920",
"%&	c #EBC91E",
"&&	c #E7C81D",
"*&	c #EBC61F",
"=&	c #F1C621",
"-&	c #F0C821",
";&	c #EECA23",
">&	c #F3C92B",
",&	c #F9C832",
"'&	c #F8C832",
")&	c #F7C52B",
"!&	c #F7C025",
"~&	c #D8BA1B",
"{&	c #DAB61C",
"]&	c #E6BB20",
"^&	c #EAC21F",
"/&	c #ECC61F",
"(&	c #F2C822",
"_&	c #F8C726",
":&	c #F3C924",
"<&	c #EFC721",
"[&	c #F0BE22",
"}&	c #AD9113",
"|&	c #B29215",
"1&	c #C4A118",
"2&	c #D2AE1A",
"3&	c #DDB61C",
"4&	c #E8BF1F",
"5&	c #EFC520",
"6&	c #795C09",
"7&	c #795D09",
"8&	c #896C0C",
"9&	c #A18211",
"0&	c #B39214",
"a&	c #C7A418",
"b&	c #DCB81C",
"c&	c #4E2F02",
"d&	c #573A03",
"e&	c #674B05",
"f&	c #7E610A",
"g&	c #92760E",
"h&	c #452200",
"i&	c #482901",
"                                                                                                                                ",
"                                                                                                                                ",
"                                                                                                                                ",
"                                                                                                                                ",
"                                                                                                                                ",
"                                                                                                                                ",
"                                                                                                                                ",
"                                                                                                                                ",
"                                                                                                                                ",
"                                                                                                                                ",
"                                                                                                                                ",
"                                                      . + @ # $ % &                                                             ",
"                                                      * = - ; > $ % &                                                           ",
"                                                      , ' ) ! ~ { ] ^                                                           ",
"                                  / ( _ : <           [ } | 1 2 3 { 4 ^                                                         ",
"                                  5 6 7 8 9 { 0 a       b c d e f g : h                                                         ",
"                  i j k           l m n o p q 8 r >       s t u v w x y z A                                                     ",
"                B C D E F :           G H I J K L M N O P Q R S T U V W z X Y Z ` ]  ...                                        ",
"                +.@.#.$.%.9 &.*.=.      -.;.>.,.'.).w %.!.~.{.].^.'./.(._.:.<.[.}.|.> *.1.                                      ",
"                    2.3.4.5.M 0 6.7.    8.9.0.>.a.b.2 c.d.e.f.g.h.i.o j.k.l.m.n.o.p.q.r.^ 1.                                    ",
"                      s.t.u.v.w.x.y.z.A.B.C.D.E.F.G.H.2 V I.J.K.L.M.N.O.P.Q.R.S.T.'.U.V.: ^                                     ",
"                      W.X.Y.Z.`. +(.8 ; .+++@+#+$+| %+&+2 w *+=+-+;+>+,+U.'+)+!+~+{+]+V ^+/+                                    ",
"                        (+_+:+t.u o f <+d.[+++}+|+1+| 2+2 2 3+4+}+5+6+7+&+3+8+Q 9+0+a+b+c+{ ]                                   ",
"                        d+e+f+X.>.g+h+f c.i+j+k+l+m+n+u o+f w p+q+r+s+>+t+u+v+w+x+y+>+z+A+V.B+..                                ",
"                          C+e+(+D+E+F+G+H+/.I+J+K+L+M+N+i.o c.O+P+#+Q+R+d A+(.S+T+U+V+W+&+c+r.k                                 ",
"                              d+X+Y+Z+`+u &+w  @.@+@|+@@#@$@H+%@&@!+*@=@,.&+3 -@;@>@,@'@&+)@V.!@1.                              ",
"                                ~@X+{@]@t.^@f c./@(@_@:@<@,.'.).[@}@L+|@1@T 2@3@4@5@6@7@]+2 c+: 1.                              ",
"                                  C+C+8@9@F+0@&+u+a@b@c@d@e@W+o f@g@h@i@j@N.).V.k@l@m@n@o@H+3 E p@q@                            ",
"                                      r@s@9@>+o@5.t@u@v@w@} | h+j.x@y@z@1+u.A@(.B@C@D@E@F@e V G@k &                             ",
"                                        8@_+H@F.^@A+I@J@c@K@L@W+M@N@O@P@Q@R@o j.S@T@c@|@t.U@c.^+k &                             ",
"                                          V@D+W@X@O.t@x@Y@Z@} `@ #.#+#@###$#o+c.%#&#*#=#-#;#A+V.] >#                            ",
"                                            {@X.,#z+'#)#m #+!#~#{#]#^#/#(#G G.f _#:#<#[#}#|#A+g F k                             ",
"                                              1#2#3#4#5#6#7#8#W@9#0#a#b#d@`+c#H.V d#v@w@e#f#H.<+g#..                            ",
"                                              h#i#j#k#l#m#n#o#} p#q#r#s#t#N+u#f c.v#w#x#y#,.o V 0 ^                             ",
"                                              (+W.=@3.z#A#B#C#D#n@E#F#G#H#t.'.f L I#J#K#-.L#o+~ a p@                            ",
"                                                M#N#f#O#P#Q#R#S#>.T#U#V#m@G '.f '#W#X#Y#s+Z#5.`#/+>#                            ",
"                                                r@ $.$4#+$@$#$$$n+%$&$*$=$n@z+H.t@-$;$8#>$T H.(.,$1.                            ",
"                                                  Z+>+'$)$!$}+~${$]$^$/$($_$T ).:$4@<$~$_$[$}$i+F %                             ",
"                                                  |$1$2$3$4$5$6$1@7$8$V#r+_$N.H. @9$0$~$1@G+f c+r.k                             ",
"                                                  1#a$^.b$c$d$e$_$f$g$h$i$j$u 5.k$)+-+} l$h+2 %.: m$                            ",
"                                                    n$#@o$p$D.K@}#T#u@q$r$G ;#2@s$t$u$V+v$v /.8 :                               ",
"                                                    i#w$x$y$D.z$,#4#A$B$C$F@'.D$j+;@E$F$G$U c.N H$>#                            ",
"                                                    I$J$K$L$M$} N$O$P$Q$R$H S$I.T$q$U$p#'.f V$x ]                               ",
"                                                    W$X$Y$Z$`$y+ %.%P+-+@@F++%@%#%$%C$W+%%f 3 { *.                              ",
"                                                    &%*%=%-%|+;%>%,%f.'%$+9#4#]#)%!%~%u.&+c.g a                                 ",
"                                                      {%S ]%d@e@^%/%(%_%:%<%t@7 [%}%|%|#U c.N :                                 ",
"                                                      1%2%3%4%G 5%6%k+7%S K 8%e.f.9%p#u#H.3 0 *.                                ",
"                                                      0%a%b%c%d%e%e.f%g%W+4#h%i%j%k%l%o+c.N ,$..                                ",
"                                                        m%n%o%p%q%r%s%t%u%P.v%;$w%;%9#U c.9 *.x%                                ",
"                                                          y%z%A%B%C%D%E%F%G%H%I%J%Y.|#H.c.; *.>#                                ",
"                                                            K%L%M%N%O%P%Q%R%S%T%U%_$c#2@9 V%W%                                  ",
"                                                            X%K%Y%Z%  `% &.&+&@&#&7++%%.> <                                     ",
"                                                              $&%&&&*&=&-&;&>&,&'&)&!&; V%                                      ",
"                                                                  ~&{&]&^&/&(&_&:&<&[&                                          ",
"                                                                  }&|&1&2&3&4&5&Y%                                              ",
"                                                                  6&7&8&9&0&a&b&                                                ",
"                                                                    c&d&e&f&g&                                                  ",
"                                                                      h&i&                                                      ",
"                                                                                                                                ",
"                                                                                                                                ",
"                                                                                                                                ",
"                                                                                                                                ",
"                                                                                                                                ",
"                                                                                                                                "};
