/* XPM */
static char * banana1_xpm[] = {
"64 64 597 2",
"  	c None",
". 	c #EAB220",
"+ 	c #EDB522",
"@ 	c #EEB622",
"# 	c #EFB622",
"$ 	c #F0B722",
"% 	c #F0B822",
"& 	c #EDC420",
"* 	c #E5CC1C",
"= 	c #BFA315",
"- 	c #705507",
"; 	c #4D2D02",
"> 	c #411F00",
", 	c #E8B01E",
"' 	c #EBB421",
") 	c #F3BA23",
"! 	c #F7BE24",
"~ 	c #FBC226",
"{ 	c #FAC126",
"] 	c #F3C523",
"^ 	c #F1C920",
"/ 	c #F3C921",
"( 	c #F0C621",
"_ 	c #D7B01C",
": 	c #9B7B10",
"< 	c #614404",
"[ 	c #472601",
"} 	c #401D00",
"| 	c #E8B11F",
"1 	c #EAB320",
"2 	c #F2B923",
"3 	c #FAC125",
"4 	c #FDC326",
"5 	c #FDC428",
"6 	c #FEC632",
"7 	c #FBC837",
"8 	c #FBC72E",
"9 	c #FAC628",
"0 	c #F2C821",
"a 	c #E7BE1F",
"b 	c #C6A318",
"c 	c #8F720D",
"d 	c #523402",
"e 	c #EBB321",
"f 	c #F9BF25",
"g 	c #FDC42B",
"h 	c #FEC83B",
"i 	c #FDCD51",
"j 	c #FCCD51",
"k 	c #FAC73C",
"l 	c #F6C92D",
"m 	c #EFCA20",
"n 	c #EDC81F",
"o 	c #E1BC1D",
"p 	c #B99816",
"q 	c #795D09",
"r 	c #4F3002",
"s 	c #EAB31F",
"t 	c #F2B922",
"u 	c #F8BF24",
"v 	c #FDC429",
"w 	c #FEC83C",
"x 	c #FECD51",
"y 	c #FFD260",
"z 	c #FACD57",
"A 	c #F3C643",
"B 	c #E8CA2F",
"C 	c #E8CB20",
"D 	c #EFCA1F",
"E 	c #EFC022",
"F 	c #D5AD1D",
"G 	c #A88B12",
"H 	c #87650D",
"I 	c #FCC226",
"J 	c #FEC634",
"K 	c #FCCB4E",
"L 	c #FBCF5B",
"M 	c #F9CD5D",
"N 	c #F3C44A",
"O 	c #EFBE34",
"P 	c #EDC124",
"Q 	c #F2C924",
"R 	c #F7C825",
"S 	c #F2C721",
"T 	c #E7C21E",
"U 	c #D2B619",
"V 	c #E8B01F",
"W 	c #EFB721",
"X 	c #F6BD24",
"Y 	c #FCC225",
"Z 	c #FDC327",
"` 	c #FEC633",
" .	c #FDC942",
"..	c #FCCA4B",
"+.	c #F7C74B",
"@.	c #F3C34A",
"#.	c #F0BE3E",
"$.	c #EFBA2E",
"%.	c #F4BD25",
"&.	c #FCC42B",
"*.	c #FDC93D",
"=.	c #FEC52C",
"-.	c #E6CC1C",
";.	c #E6C81D",
">.	c #ECB521",
",.	c #FEC42A",
"'.	c #FEC630",
").	c #FECA45",
"!.	c #FACB4F",
"~.	c #F4C54A",
"{.	c #EFBD37",
"].	c #EDB82E",
"^.	c #EDB927",
"/.	c #F5BC24",
"(.	c #FBC227",
"_.	c #FDCE54",
":.	c #F7CD4E",
"<.	c #EFCB2F",
"[.	c #EDCA1E",
"}.	c #EECA1F",
"|.	c #E9B220",
"1.	c #EDB521",
"2.	c #FBC125",
"3.	c #FDC52C",
"4.	c #FDC635",
"5.	c #FECA43",
"6.	c #FCCB50",
"7.	c #F3C448",
"8.	c #EDB933",
"9.	c #EFB926",
"0.	c #F3BB23",
"a.	c #F9C025",
"b.	c #FEC635",
"c.	c #FDC945",
"d.	c #F8C94F",
"e.	c #F4C746",
"f.	c #F2C72E",
"g.	c #EEC91F",
"h.	c #F3C622",
"i.	c #E6AF1E",
"j.	c #F5BC23",
"k.	c #FEC429",
"l.	c #FEC52B",
"m.	c #FEC93D",
"n.	c #FECB4A",
"o.	c #FACB52",
"p.	c #F3C348",
"q.	c #EFBC36",
"r.	c #F0BA26",
"s.	c #FDC944",
"t.	c #F5C343",
"u.	c #EEBC3A",
"v.	c #EFBB33",
"w.	c #F9C328",
"x.	c #EECA1E",
"y.	c #F1C621",
"z.	c #E7B01E",
"A.	c #EFB722",
"B.	c #FEC93E",
"C.	c #FECC4E",
"D.	c #FACB51",
"E.	c #F2C042",
"F.	c #EDB92F",
"G.	c #F0BA2A",
"H.	c #FDC531",
"I.	c #FEC83E",
"J.	c #FDCC4F",
"K.	c #FACA4E",
"L.	c #F0BF40",
"M.	c #EDB729",
"N.	c #F3BA25",
"O.	c #FCC329",
"P.	c #F0C921",
"Q.	c #EBB320",
"R.	c #F4BC24",
"S.	c #FDC427",
"T.	c #FECA42",
"U.	c #FFD05A",
"V.	c #FBCD56",
"W.	c #F4C449",
"X.	c #EFBA31",
"Y.	c #EFBA24",
"Z.	c #F7BF28",
"`.	c #F9CD56",
" +	c #EEBA34",
".+	c #F0B927",
"++	c #F9C22F",
"@+	c #FEC738",
"#+	c #FBC835",
"$+	c #F7C82A",
"%+	c #F8C726",
"&+	c #E7B01F",
"*+	c #FAC025",
"=+	c #FDCA3F",
"-+	c #FECE53",
";+	c #FACD5A",
">+	c #F4C44B",
",+	c #F1BE38",
"'+	c #F5BD29",
")+	c #FCC328",
"!+	c #FEC52D",
"~+	c #FEC83D",
"{+	c #FBCD57",
"]+	c #F4C54D",
"^+	c #F0BC35",
"/+	c #F2BA29",
"(+	c #FBC228",
"_+	c #FCCB4B",
":+	c #FAC73E",
"<+	c #FEC839",
"[+	c #FEC531",
"}+	c #FDCA46",
"|+	c #FDCF58",
"1+	c #FBCE5A",
"2+	c #F3C44B",
"3+	c #EEBA35",
"4+	c #F2BB2B",
"5+	c #FBC127",
"6+	c #FECA47",
"7+	c #F9CA51",
"8+	c #F3C349",
"9+	c #F3BD30",
"0+	c #F5BE29",
"a+	c #F9C12F",
"b+	c #FEC83F",
"c+	c #FBC63E",
"d+	c #FDC63A",
"e+	c #FECD4E",
"f+	c #FECA41",
"g+	c #FFD057",
"h+	c #FDD160",
"i+	c #F6C954",
"j+	c #EFBB38",
"k+	c #FECA40",
"l+	c #F6C64C",
"m+	c #F3C345",
"n+	c #F1BD35",
"o+	c #F6BE27",
"p+	c #FCC32B",
"q+	c #FEC940",
"r+	c #FECE52",
"s+	c #FCCE59",
"t+	c #F8C74C",
"u+	c #FCC63A",
"v+	c #FECA46",
"w+	c #FFD15C",
"x+	c #E9B21F",
"y+	c #FBC225",
"z+	c #FEC734",
"A+	c #FECD50",
"B+	c #FCCE5A",
"C+	c #FACC58",
"D+	c #F2C141",
"E+	c #F1BB2E",
"F+	c #FCC227",
"G+	c #FEC736",
"H+	c #FECD4F",
"I+	c #F9CA52",
"J+	c #F1BE3F",
"K+	c #F0B92A",
"L+	c #F7BE28",
"M+	c #FECD52",
"N+	c #F6C13A",
"O+	c #FDC73B",
"P+	c #FFCF55",
"Q+	c #FFD465",
"R+	c #F9C024",
"S+	c #FECA44",
"T+	c #FDCF57",
"U+	c #F4C54B",
"V+	c #EEBA31",
"W+	c #F2BC2A",
"X+	c #F9C028",
"Y+	c #FEC52F",
"Z+	c #FCCE55",
"`+	c #F6C74F",
" @	c #EEBC39",
".@	c #F1B823",
"+@	c #FBC22A",
"@@	c #FFCF56",
"#@	c #FDD05E",
"$@	c #F7C851",
"%@	c #EFBA30",
"&@	c #F8C02C",
"*@	c #FEC947",
"=@	c #FEC737",
"-@	c #FDCD50",
";@	c #F9CC56",
">@	c #F3C245",
",@	c #F0BA29",
"'@	c #FECE51",
")@	c #F7CA52",
"!@	c #F4C13E",
"~@	c #F6BE2B",
"{@	c #F8C026",
"]@	c #FDC737",
"^@	c #FFCE53",
"/@	c #FDD264",
"(@	c #F9CC5B",
"_@	c #F2C142",
":@	c #F1BB2C",
"<@	c #FAC43A",
"[@	c #FFD363",
"}@	c #F4C64D",
"|@	c #EFBB37",
"1@	c #F4BB24",
"2@	c #FECB47",
"3@	c #F9CB52",
"4@	c #F1C144",
"5@	c #F3BD2E",
"6@	c #FAC128",
"7@	c #FDC733",
"8@	c #FECC49",
"9@	c #FED05A",
"0@	c #FCCF5D",
"a@	c #F4C349",
"b@	c #F3BE32",
"c@	c #F8C02B",
"d@	c #FFD25F",
"e@	c #FEC62F",
"f@	c #FFCD4E",
"g@	c #F0BE40",
"h@	c #F0BA2D",
"i@	c #FAC127",
"j@	c #FDCD56",
"k@	c #F5BE2A",
"l@	c #FDC534",
"m@	c #FECB48",
"n@	c #FECF57",
"o@	c #F8C951",
"p@	c #F2C245",
"q@	c #EFBA2F",
"r@	c #FDC738",
"s@	c #ECB422",
"t@	c #FDC836",
"u@	c #F8CB54",
"v@	c #EFBD3B",
"w@	c #F1BB27",
"x@	c #FECE55",
"y@	c #FACB55",
"z@	c #F2C144",
"A@	c #EFBA2B",
"B@	c #FFD05B",
"C@	c #FCD05C",
"D@	c #F1C043",
"E@	c #EEBA2C",
"F@	c #FCC32E",
"G@	c #FECA48",
"H@	c #FCCC4F",
"I@	c #F1BA23",
"J@	c #FDCB4A",
"K@	c #F2C143",
"L@	c #EEBB30",
"M@	c #F6BE24",
"N@	c #FDC530",
"O@	c #FDD15F",
"P@	c #F5C851",
"Q@	c #EFBB36",
"R@	c #EEB724",
"S@	c #FDC533",
"T@	c #FECC4C",
"U@	c #FFD15E",
"V@	c #FEC52E",
"W@	c #FACA51",
"X@	c #EEBB39",
"Y@	c #EDB623",
"Z@	c #FCC326",
"`@	c #FEC941",
" #	c #FACB50",
".#	c #F2C248",
"+#	c #EDB831",
"@#	c #F0B925",
"##	c #FECF58",
"$#	c #F9CE5D",
"%#	c #F1C046",
"&#	c #EDB72A",
"*#	c #F1B923",
"=#	c #FEC735",
"-#	c #FFCE51",
";#	c #FDD366",
">#	c #FECF55",
",#	c #F5C64E",
"'#	c #EEB932",
")#	c #F7C950",
"!#	c #EEBC3C",
"~#	c #EDB628",
"{#	c #FDC52F",
"]#	c #FECC4A",
"^#	c #FED15D",
"/#	c #F6C953",
"(#	c #EDB832",
"_#	c #EEB623",
":#	c #F8BF25",
"<#	c #FFD15B",
"[#	c #FEC42C",
"}#	c #FDCE57",
"|#	c #EEB930",
"1#	c #F4BB23",
"2#	c #FED058",
"3#	c #F5C74E",
"4#	c #EDB934",
"5#	c #EFB723",
"6#	c #EAB426",
"7#	c #F1B822",
"8#	c #FCC228",
"9#	c #FECE50",
"0#	c #FFD361",
"a#	c #FDC42A",
"b#	c #FEC93C",
"c#	c #FDCD53",
"d#	c #EDB929",
"e#	c #FDC630",
"f#	c #FFCD4F",
"g#	c #FDD15D",
"h#	c #F1BC32",
"i#	c #F7BF26",
"j#	c #FCC32A",
"k#	c #FDC73E",
"l#	c #FECE56",
"m#	c #FACC57",
"n#	c #F1BE3E",
"o#	c #FED25E",
"p#	c #FFD66A",
"q#	c #FBCD58",
"r#	c #FACD59",
"s#	c #F1C145",
"t#	c #F2BC2C",
"u#	c #FACC56",
"v#	c #EFBB34",
"w#	c #FEC530",
"x#	c #FFD66B",
"y#	c #FDC940",
"z#	c #F8C84B",
"A#	c #F1BF3E",
"B#	c #F4BD2A",
"C#	c #FFCE54",
"D#	c #FCCD58",
"E#	c #F2BE3B",
"F#	c #F6BE26",
"G#	c #FECB46",
"H#	c #F4C44A",
"I#	c #F1BB2F",
"J#	c #F9C027",
"K#	c #FFCE52",
"L#	c #FED364",
"M#	c #FDC52E",
"N#	c #FDCA44",
"O#	c #F1BD38",
"P#	c #F7BE27",
"Q#	c #FEC62D",
"R#	c #FFD15D",
"S#	c #F8CC55",
"T#	c #F2BE36",
"U#	c #FBCD59",
"V#	c #F1BA2B",
"W#	c #FEC73A",
"X#	c #FDCE55",
"Y#	c #FDD469",
"Z#	c #FAC22C",
"`#	c #F7C952",
" $	c #F2BE37",
".$	c #FECD4C",
"+$	c #F9C026",
"@$	c #FECC4D",
"#$	c #F9CB56",
"$$	c #F0BE3D",
"%$	c #F2BB2A",
"&$	c #FED059",
"*$	c #FFD76C",
"=$	c #E4B027",
"-$	c #EDBB39",
";$	c #F3C347",
">$	c #F4C03A",
",$	c #F2C03F",
"'$	c #F6BE28",
")$	c #F8CB57",
"!$	c #EEBA36",
"~$	c #F4BD29",
"{$	c #FEC52A",
"]$	c #FED15E",
"^$	c #C69419",
"/$	c #BC8D1D",
"($	c #C4972A",
"_$	c #D9AB39",
":$	c #F1BE39",
"<$	c #FDC939",
"[$	c #FFCF54",
"}$	c #F7CA54",
"|$	c #F8BF26",
"1$	c #FDC734",
"2$	c #FDCC4E",
"3$	c #F8CA55",
"4$	c #F0BE3F",
"5$	c #F5BD28",
"6$	c #FDC42D",
"7$	c #FED15C",
"8$	c #FDD468",
"9$	c #B68A24",
"0$	c #D4A329",
"a$	c #EDB82B",
"b$	c #F5C64D",
"c$	c #FEC636",
"d$	c #FBCE59",
"e$	c #F5C449",
"f$	c #F6BE29",
"g$	c #D9A72C",
"h$	c #E4AF26",
"i$	c #FAC94B",
"j$	c #F4C448",
"k$	c #F3BD31",
"l$	c #FEC631",
"m$	c #FCCE5B",
"n$	c #F3BC2C",
"o$	c #FED362",
"p$	c #EBB424",
"q$	c #F2BA23",
"r$	c #EEBA28",
"s$	c #F0BF42",
"t$	c #F2BB2C",
"u$	c #FFD362",
"v$	c #FFD76D",
"w$	c #FBCA49",
"x$	c #F3C142",
"y$	c #EEB82C",
"z$	c #FED466",
"A$	c #F1B922",
"B$	c #FCC949",
"C$	c #F4C244",
"D$	c #EEB92F",
"E$	c #F5BB23",
"F$	c #FACD56",
"G$	c #F2C145",
"H$	c #EDB924",
"I$	c #FFCC4E",
"J$	c #FDD364",
"K$	c #FED66C",
"L$	c #FBCB4E",
"M$	c #F3C346",
"N$	c #EEB929",
"O$	c #FECC47",
"P$	c #F9CB53",
"Q$	c #F8BE25",
"R$	c #FFCA43",
"S$	c #FED56A",
"T$	c #FFCD50",
"U$	c #F2C148",
"V$	c #ECB628",
"W$	c #FFCF57",
"X$	c #EEB621",
"Y$	c #F5C754",
"Z$	c #ECB62B",
"`$	c #ECB420",
" %	c #F6BC24",
".%	c #F9C43B",
"+%	c #FFD466",
"@%	c #FACF5F",
"#%	c #FFCA44",
"$%	c #E7B022",
"%%	c #E1AF30",
"&%	c #F5C651",
"*%	c #FCD266",
"=%	c #FDCF59",
"-%	c #EDB622",
";%	c #F3BD25",
">%	c #DEA81E",
",%	c #CD9A19",
"'%	c #B98C24",
")%	c #CCA444",
"!%	c #F7BE25",
"~%	c #FECB49",
"{%	c #E8B21F",
"]%	c #FDD365",
"^%	c #FFD66C",
"/%	c #A1761A",
"(%	c #FEC942",
"_%	c #ECB723",
":%	c #F8C025",
"<%	c #FFCA45",
"[%	c #FED569",
"}%	c #F6C139",
"|%	c #EBB420",
"1%	c #E3AC20",
"2%	c #D6A428",
"3%	c #D4A736",
"4%	c #F1B722",
"5%	c #C8961B",
"6%	c #976D0F",
"7%	c #F4BC23",
"8%	c #F6BD26",
"9%	c #F6C031",
"0%	c #F4C03E",
"a%	c #E9B11F",
"b%	c #E1AD28",
"c%	c #D2A435",
"d%	c #E5AE20",
"e%	c #C39320",
"f%	c #8E681E",
"                                                                                                                                ",
"                                                                                                                                ",
"                                                                                                                                ",
"                                                                                                                                ",
"                                                                                                                                ",
"                                                                                                                                ",
"                                                                                                                                ",
"                                                                                                                                ",
"                                                            . + @ # $ % & *     = - ; >                                         ",
"                                                          , ' $ ) ! ~ { ] ^ / ( _ : < [ }                                       ",
"                                                        | 1 2 3 4 4 5 6 7 8 9 0 a b c d }                                       ",
"                                                      e @ ) f 4 4 g h i j k l m n o p q r                                       ",
"                                                    s t u 4 4 4 v w x y z A B C D E F G H                                       ",
"                                                | + ) 3 I 4 5 J w K L M N O P Q R S T U                                         ",
"                                              V W X Y 4 4 Z `  ...+.@.#.$.%.&.*.=.  -.;.                                        ",
"                                            | >.X I 4 Z ,.'.).!.~.{.].^./.(.w _.:.<.[.}.^                                       ",
"                                          |.1.) 2.4 4 3.4.5.6.7.8.9.0.a.v b.c.d.e.f.^ g.h.                                      ",
"                                        i.1 j.4 4 k.l.m.n.o.p.q.r.! 3 Z J s.t.u.v.w./ x.y.                                      ",
"                                      z., A.a.4 5 '.B.C.D.E.F.G.! Z H.I.J.K.L.M.N.O.R P.                                        ",
"                                      | Q.R.I S.'.T.U.V.W.X.Y.Z.I =.T.i `.p. +.+++@+#+$+%+                                      ",
"                                    &+>.j.*+4 l.=+-+;+>+,+'+a.)+!+~+J.{+]+^+/+(+w _+:+!+<+                                      ",
"                                  | Q.X 4 Z [+}+|+1+2+3+4+5+5 '.@+6+7+8+9+0+a+b+J.7+c+d+e+                                      ",
"                                  e % a.4 =.f+g+h+i+j+# X 4 l.k+_+l+m+n+o+p+q+r+s+t+u+v+w+                                      ",
"                                i.x+) y+Z z+A+B+C+D+E+F+4 5 G+H+I+J+K+L+p+I.M+{+]+N+O+P+Q+                                      ",
"                                z.+ R+4 ,.S+T+U+V+W+X+4 Z Y+S+Z+`+ @.@+@q+@@#@$@%@&@*@y                                         ",
"                              i.|.0.Y S.=@-@;@>@,@f 4 4 v @+'@)@!@~@{@]@^@/@(@_@:@<@P+[@                                        ",
"                              V @ u 4 !+5._.}@|@1@4 4 4 ` 2@3@4@5@6@7@8@9@0@a@b@c@6+d@                                          ",
"                              x+0.I 4 e@f@1+g@h@i@4 5 ` n.j@`+q.k@l@m@n@o@p@q@X+r@P+[@                                          ",
"                            i.s@u 4 4 t@-@u@v@w@3 4 !+q+x@y@z@A@6@T.B@C@D@E@R.F@G@d@                                            ",
"                            &+1.u 4 5 m.H@p.].I@I Z ` J@u@K@L@M@N@e+O@P@Q@R@! S@T@U@                                            ",
"                              % 3 Z V@n.W@X@Y@/.Z@l.`@ #.#+#@#i@B.##$#%#&#*#Z =#-#;#                                            ",
"                            | $ I 5 I.>#,#'#$ *+5 z+T@)#!#~#/.{#]#^#/#(#_#:#l.T.<#                                              ",
"                            1 0.y+[#S+}#U+|#1#4 =.q+2#3#4#5#3 [+-#s+z@6#7#8#z+9#0#                                              ",
"                            . 1#4 a#b#c#4@d#u 4 e#f#g#N h#i#j#k#l#m#n#@ X !+T.o#p#                                              ",
"                            | $ 4 5 B.q#L.,@*+Z G+'@r#s#t#3 Y+6+U@u#v#@ a.w#f#[@x#                                              ",
"                          i.|.) y+3.y#z#A#B#I a#w C#D#E#F#4 V@G#d@H#I#J#Z =@K#L#                                                ",
"                          z.. 2 *+M#N#)#O#P#4 Q#2@R#S#T#i@4 b.e+U#D@V#3 v W#X#Y#                                                ",
"                            | @ u Z#5.`# $J#4 7@.$s+2+9++$5 G+@$#$$$%$I 5 w &$*$                                                ",
"                              |.| =$-$;$>$J#5 @+H+y@,$'$y+Z e@J@)$!$~$I {$S+]$                                                  ",
"                                ^$/$($_$:$R+5 <$[$}$!$|$4 4 1$2$3$4$5$I 6$5.7$8$                                                ",
"                                    9$0$a$a.4 =@2$b$T#J#4 4 c$H+d$e$f$4 v <$P+8$                                                ",
"                                    g$h$1#Y 5 @+i$j$k$3 4 Z l$@$m$z@n$I 4 1$f@o$                                                ",
"                                      p$q$4 5 @+K p@r$4 4 4 6 2$C+s$t${ 4 ` T@u$v$                                              ",
"                                      1 $ 4 5 @+w$x$y$:#4 4 @+H+{+.#,@y+Z l$H+z$v$                                              ",
"                                      1 A$3 k.<+B$C$D$E$4 4 M#m@F$G$H$Z@4 {$I$J$K$                                              ",
"                                    z.Q.1#4 5 =#L$M$N$u 4 4 {$O$P$4$~#Q$4 k.R$^#S$v$                                            ",
"                                    z.x+7#4 4 l.T$    u 2.5 e#]#q#U$V$) 4 S.G+W$Y#v$                                            ",
"                                    z.| X$*+Z G+^@      /.5 6 T@O@Y$Z$# 4 4 {$f@J$K$                                            ",
"                                    z.| `$ %6@.%g++%    7#2.l.T.R#@%  # X y+k.#%]$S$v$                                          ",
"                                        1 + $%%%&%*%    + j.O.w H+=%    -%;%S.=@W$Y#v$                                          ",
"                                          >%,%'%)%        ) !%g W#~%    {%H$Z@l.f#]%^%                                          ",
"                                              /%            # 4 4 (%    | _%:%k.<%]$[%                                          ",
"                                                            + /.:#}%      |%E$5 =@_.Q+                                          ",
"                                                              |.1%2%3%      4%Y l.5.                                            ",
"                                                                5%6%        + 7%O.G+                                            ",
"                                                                              X$8%9%0%                                          ",
"                                                                              a%# b%c%                                          ",
"                                                                                d%e%f%                                          ",
"                                                                                                                                ",
"                                                                                                                                ",
"                                                                                                                                ",
"                                                                                                                                ",
"                                                                                                                                ",
"                                                                                                                                "};
