/* XPM */
static char *ef4520853e984354b499451b2957c4d8m6AlgfQ02bQyFAni[] = {
/* columns rows colors chars-per-pixel */
"32 32 5 1 ",
"  c None",
". c black",
"X c #3D2309",
"o c #FFF200",
"O c yellow",
/* pixels */
"                                ",
"                                ",
"                                ",
"                                ",
"                                ",
"                                ",
"                                ",
"                                ",
"                                ",
"                          ..    ",
"                         .XX.   ",
"                         .XX.   ",
"                         .XX.   ",
"                        ..OO.   ",
"                       ..OOo.   ",
"     ..             ...OOOo.    ",
"    .OO.....     ....OOOooo.    ",
"    .OOOOOO......OOOOOoooo.     ",
"     .oooOOOOOOOOOOOOooo..      ",
"      ..ooOOOOOOOOOoooo.        ",
"        .oooOOOOoooo...         ",
"         ..ooooooo..            ",
"           ........             ",
"                                ",
"                                ",
"                                ",
"                                ",
"                                ",
"                                ",
"                                ",
"                                ",
"                                "
};
