/* XPM */
static char *result[] = {
/* columns rows colors chars-per-pixel */
"64 64 203 2 ",
"   c #180401",
".  c #270B06",
"X  c #290A04",
"o  c #2F0D05",
"O  c #350D04",
"+  c #3E1305",
"@  c #331109",
"#  c #36130B",
"$  c #3A1109",
"%  c #3A170A",
"&  c #3C150B",
"*  c #251710",
"=  c #371A11",
"-  c #3B2017",
";  c #3F271F",
":  c #421309",
">  c #47190E",
",  c #4B1808",
"<  c #4F1A09",
"1  c #491A0F",
"2  c #481C0D",
"3  c #4F1C0C",
"4  c #531C0C",
"5  c #511E0E",
"6  c #421B10",
"7  c #532208",
"8  c #5B210F",
"9  c #5F210C",
"0  c #4E2214",
"q  c #452218",
"w  c #4D2619",
"e  c #5F2712",
"r  c #582515",
"t  c #5F2D18",
"y  c #592C1C",
"u  c #60220D",
"i  c #63250F",
"p  c #6C270A",
"a  c #6A220C",
"s  c #612A0F",
"d  c #6B2C0F",
"f  c #772709",
"g  c #7F2E0D",
"h  c #7A3B0F",
"j  c #612112",
"k  c #692713",
"l  c #632A15",
"z  c #6B2810",
"x  c #6B2811",
"c  c #6A2912",
"v  c #722913",
"b  c #782D11",
"n  c #6C3015",
"m  c #66311E",
"M  c #6F3619",
"N  c #69361C",
"B  c #763012",
"V  c #7A3116",
"C  c #793317",
"Z  c #7E3E13",
"A  c #783619",
"S  c #4A2F28",
"D  c #522D22",
"F  c #413626",
"G  c #543121",
"H  c #543524",
"J  c #5E3527",
"K  c #563C31",
"L  c #6F3622",
"P  c #6A3C2A",
"I  c #6C3D2B",
"U  c #683F2C",
"Y  c #743A20",
"T  c #7A3A20",
"R  c #59453A",
"E  c #71422C",
"W  c #674330",
"Q  c #79513A",
"!  c #554F4B",
"~  c #6C4A41",
"^  c #6F554D",
"/  c #6C584E",
"(  c #795342",
")  c #79665B",
"_  c #7F6C66",
"`  c #87310E",
"'  c #8F380F",
"]  c #993F0F",
"[  c #813212",
"{  c #8A3612",
"}  c #803A17",
"|  c #8C3A16",
" . c #933B11",
".. c #963E17",
"X. c #8F4711",
"o. c #8E421A",
"O. c #934115",
"+. c #9A4114",
"@. c #9E4515",
"#. c #944A1C",
"$. c #9D4B1B",
"%. c #A24915",
"&. c #A34D19",
"*. c #A05317",
"=. c #A95218",
"-. c #AE561D",
";. c #804124",
":. c #8C4C2B",
">. c #964A22",
",. c #9E4F2D",
"<. c #955026",
"1. c #925821",
"2. c #975E28",
"3. c #9E582B",
"4. c #9B582F",
"5. c #9B5635",
"6. c #A95B2C",
"7. c #B35C21",
"8. c #9D6030",
"9. c #94603B",
"0. c #9C613B",
"q. c #B16325",
"w. c #BD6B26",
"e. c #B2672C",
"r. c #B26B2D",
"t. c #B16B2E",
"y. c #A76232",
"u. c #A8723C",
"i. c #B27033",
"p. c #BE7C3F",
"a. c #C67B38",
"s. c #8C5D43",
"d. c #8E6653",
"f. c #8E6A52",
"g. c #AE6941",
"h. c #BC7640",
"j. c #B07848",
"k. c #BF7D48",
"l. c #A57B5D",
"z. c #8C7060",
"x. c #84796F",
"c. c #907C72",
"v. c #907F73",
"b. c #C07C4B",
"n. c #D08328",
"m. c #C2803D",
"M. c #D68E30",
"N. c #E4A93F",
"B. c #B88043",
"V. c #BA8650",
"C. c #B3825D",
"Z. c #B38858",
"A. c #BF9355",
"S. c #B98A65",
"D. c #BD9762",
"F. c #A58B77",
"G. c #B59371",
"H. c #BD9E7B",
"J. c #C0814B",
"K. c #C4824D",
"L. c #CF894C",
"P. c #D59B40",
"I. c #C58650",
"U. c #C08D51",
"Y. c #C48258",
"T. c #C78D5B",
"R. c #C6955C",
"E. c #C7945E",
"W. c #C8945C",
"Q. c #D7935A",
"!. c #E3AF48",
"~. c #EAB852",
"^. c #EBBE5F",
"/. c #CA9360",
"(. c #C4966A",
"). c #D79C69",
"_. c #D99C6A",
"`. c #D8A261",
"'. c #C1A37F",
"]. c #DDA672",
"[. c #DFAC71",
"{. c #E7B564",
"}. c #E3B372",
"|. c #EFC264",
" X c #E7C770",
".X c #ECC572",
"XX c #EBC77C",
"oX c #938882",
"OX c #A4918A",
"+X c #B3A59E",
"@X c #D7AE89",
"#X c #CFB69B",
"$X c #DCBA90",
"%X c #E1B581",
"&X c #EBC985",
"*X c #EFCE89",
"=X c #EECE92",
"-X c #EFD29D",
";X c #E1C4A0",
":X c #EFD8AD",
">X c #E5D1B4",
",X c #E7D1B7",
"<X c None",
/* pixels */
"<X<X<X<X<X<X<X<X<X<X<X<X<X<X<X<X<X<X<X<X<X<X<X<X<X<X<X<X<X<X<X<X<X<X<XXX=X-X-X=X&X X<X<X<X<X<X<X<X<X<X<X<X<X<X<X<X<X<X<X<X<X<X<X",
"<X<X<X<X<X<X<X<X<X<X<X<X<X<X<X<X<X<X<X<X<X<X<X<X<X<X<X<X<X<X<X<X<XP.!.~.|..X.X.X^.~.!.<X<X<X<X<X<X<X<X<X<X<X<X<X<X<X<X<X<X<X<X<X",
"<X<X<X<X<X<X<X<X<X<X<X<X<X<X<X<X<X<X<X<X<X<X<X<X<X<X<X<X<X<X<X<Xr.M.N.~.|..X.X.X^.~.N.n.<X<X<X<X<X<X<X<X<X<X<X<X<X<X<X<X<X<X<X<X",
"<X<X<X<X<X<X<X<X<X<X<X<X<X<X<X<X<X<X<X<X<X<X<X<X<X<X<X<X<X<X<X<Xt.M.N.~.|.*X:X-X*X^.N.n.X.<X<X<X<X<X<X<X<X<X<X<X<X<X<X<X<X<X<X<X",
"<X<X<X<X<X<X<X<X<X<X<X<X<X<X<X<X<X<X<X<X<X<X<X<X<X<X<X<X<X<X<X<XW.}..X|..XH.c.) z.D.N.n.X.<X<X<X<X<X<X<X<X<X<X<X<X<X<X<X<X<X<X<X",
"<X<X<X<X<X<X<X<X<X<X<X<X<X<X<X<X<X<X<X<X<X<X<X<X<X<X<X<X<X<X<X<XP ( G.{.j.= o @ > L h.n.X.<X<X<X<X<X<X<X<X<X<X<X<X<X<X<X<X<X<X<X",
"<X<X<X<X<X<X<X<X<X<X<X<X<X<X<X<X<X<X<X<X<X<X<X<X<X<X<X<X<X<X<X# o . q i.} o q ~ ( J 4.n.*.<X<X<X<X<X<X<X<X<X<X<X<X<X<X<X<X<X<X<X",
"<X<X<X<X<X<X<X<X<X<X<X<X<X<X<X<X<X<X<X<X<X<X<X<X<X<X<X<X<X<X<XD ~ S . :.} $ / c.+Xz.T w.*.<X<X<X<X<X<X<X<X<X<X<X<X<X<X<X<X<X<X<X",
"<X<X<X<X<X<X<X<X<X<X<X<X<X<X<X<X<X<X<X<X<X<X<X<X<X<X<X<X<X<X<X~ c.OX; f.4.w / * ! +XL =.*.<X<X<X<X<X<X<X<X<X<X<X<X<X<X<X<X<X<X<X",
"<X<X<X<X<X<X<X<X<X<X<X<X<X<X<X<X<X<X<X<X<X<X<X<X<X<X<X<X<X<X<X; * oX) F./.;.K   ; F.s.e.*.<X<X<X<X<X<X<X<X<X<X<X<X<X<X<X<X<X<X<X",
"<X<X<X<X<X<X<X<X<X<X<X<X<X<X<X<X<X<X<X<X<X<X<X<X<X<X<X<X<X<X<X= * z.f.'.[.j.I ; K f.#X}.t.<X<X<X<X<X<X<X<X<X<X<X<X<X<X<X<X<X<X<X",
"<X<X<X<X<X<X<X<X<X<X<X<X<X<X<X<X<X<X<X<X<X<X<X<X<X<X<X<X<X<X<Xq D ~ s.$X[.].z.U f.#X:X}.9.<X<X<X<X<X<X<X<X<X<X<X<X<X<X<X<X<X<X<X",
"<X<X<X<X<X<X<X<X<X<X<X<X<X<X<X<X<X<X<X<X<X<X<X<X<X<X<X<X<X<XS.f.s.j.j.;X`.L.).].%X%X/.y.x <X<X<X<X<X<X<X<X<X<X<X<X<X<X<X<X<X<X<X",
"<X<X<X<X<X<X<X<X<X<X<X<X<X<X<X<X<X<X<X<X<X<X<X<X<X<X<X<X<X<Xl.[.[.j.0.$X%X/.;.;.:.;.c 4 1 <X<X<X<X<X<X<X<X<X<X<X<X<X<X<X<X<X<X<X",
"<X<X<X<X<X<X<X<X<X<X<X<X<X<X<X<X<X<X<X<X<X<X<X<X<X<X<X<X<X<X^ I L 4 w H H J ( 0 o o $ : 1 <X<X<X<X<X<X<X<X<X<X<X<X<X<X<X<X<X<X<X",
"<X<X<X<X<X<X<X<X<X<X<X<X<X<X<X<X<X<X<X<X<X<X<X<X<X<X<X<X<X<X<XR . D w     K ;XG.= . @ $ 1 <X<X<X<X<X<X<X<X<X<X<X<X<X<X<X<X<X<X<X",
"<X<X<X<X<X<X<X<X<X<X<X<X<X<X<X<X<X<X<X<X<X<X<X<X<X<X<X<X<X<X<X_ S U I   - c.F.( m > $ $ 1 <X<X<X<X<X<X<X<X<X<X<X<X<X<X<X<X<X<X<X",
"<X<X<X<X<X<X<X<X<X<X<X<X<X<X<X<X<X<X<X<X<X<X<X<X<X<X<X<X<X<X<X<X^ = @ . q ( ( :.b.} : : 1 <X<X<X<X<X<X<X<X<X<X<X<X<X<X<X<X<X<X<X",
"<X<X<X<X<X<X<X<X<X<X<X<X<X<X<X<X<X<X<X<X<X<X<X<X<X<X<X<X<X<X<X<Xv.J @ o q J m b.L.| 4 > 1 <X<X<X<X<X<X<X<X<X<X<X<X<X<X<X<X<X<X<X",
"<X<X<X<X<X<X<X<X<X<X<X<X<X<X<X<X<X<X<X<X<X<X<X<X<X<X<X<X<X<X<X<X<X~ > o @ U C.Q.6.[ v 8 j <X<X<X<X<X<X<X<X<X<X<X<X<X<X<X<X<X<X<X",
"<X<X<X<X<X<X<X<X<X<X<X<X<X<X<X<X<X<X<X<X<X<X<X<X<X<X<X<X<X<X<X<X<X/ > 4 ;.Y.Y.<.g { { v j <X<X<X<X<X<X<X<X<X<X<X<X<X<X<X<X<X<X<X",
"<X<X<X<X<X<X<X<X<X<X<X<X<X<X<X<X<X<X<X<X<X<X<X<X<X<X<X<X<X<X<X<X<X) @ > l L l a | %.+.g j <X<X<X<X<X<X<X<X<X<X<X<X<X<X<X<X<X<X<X",
"<X<X<X<X<X<X<X<X<X<X<X<X<X<X<X<X<X<X<X<X<X<X<X<X<X<X<X<X<X<X<X<X<Xx.. . o $ 8 o.-.-.@.#.A <X<X<X<X<X<X<X<X<X<X<X<X<X<X<X<X<X<X<X",
"<X<X<X<X<X<X<X<X<X<X<X<X<X<X<X<X<X<X<X<X<X<X<X<X<X<X<X<X<X<X<X<X<Xx.* @ > n #.7.7.=.@.T.U.<X<X<X<X<X<X<X<X<X<X<X<X<X<X<X<X<X<X<X",
"<X<X<X<X<X<X<X<X<X<X<X<X<X<X<X<X<X<X<X<X<X<X<X<X<X<X<X<X<X<X<X<X<Xx.= > C &.7.7.-.%.[ 4.m.<X<X<X<X<X<X<X<X<X<X<X<X<X<X<X<X<X<X<X",
"<X<X<X<X<X<X<X<X<X<X<X<X<X<X<X<X<X<X<X<X<X<X<X<X<X<X<X<X<X<X<X<X<X) - l @.-.7.-.%.] f T m.<X<X<X<X<X<X<X<X<X<X<X<X<X<X<X<X<X<X<X",
"<X<X<X<X<X<X<X<X<X<X<X<X<X<X<X<X<X<X<X<X<X<X<X<X<X<X<X<X<X<X<X<X<X/ ; l @.=.=.=.@. .f i J.<X<X<X<X<X<X<X<X<X<X<X<X<X<X<X<X<X<X<X",
"<X<X<X<X<X<X<X<X<X<X<X<X<X<X<X<X<X<X<X<X<X<X<X<X<X<X<X<X<X<X<X<XF / S l +.%.&.%.]  .f : 8.<X<X<X<X<X<X<X<X<X<X<X<X<X<X<X<X<X<X<X",
"<X<X<X<X<X<X<X<X<X<X<X<X<X<X<X<X<X<X<X<X<X<X<X<X<X<X<X<X<X<X<X<XF R H 8 { +.@.@.+.] g : :.<X<X<X<X<X<X<X<X<X<X<X<X<X<X<X<X<X<X<X",
"<X<X<X<X<X<X<X<X<X<X<X<X<X<X<X<X<X<X<X<X<X<X<X<X<X<X<X<X<X<X<X<XG K K 8 g ' +.@.@.] ` 4 C.<X<X<X<X<X<X<X<X<X<X<X<X<X<X<X<X<X<X<X",
"<X<X<X<X<X<X<X<X<X<X<X<X<X<X<X<X<X<X<X<X<X<X<X<X<X<X<X<X<X<X<X<Xy ; H i b { +.%.@.] ` n (.<X<X<X<X<X<X<X<X<X<X<X<X<X<X<X<X<X<X<X",
"<X<X<X<X<X<X<X<X<X<X<X<X<X<X<X<X<X<X<X<X<X<X<X<X<X<X<X<X<X<X<X<XW - w l [  .@.%.@.] ` ;.R.<X<X<X<X<X<X<X<X<X<X<X<X<X<X<X<X<X<X<X",
"<X<X<X<X<X<X<X<X<X<X<X<X<X<X<X<X<X<X<X<X<X<X<X<X<X<X<X<X<X<X<X<XQ w 0 i [ | ..+.+.] g :.Z.<X<X<X<X<X<X<X<X<X<X<X<X<X<X<X<X<X<X<X",
"<X<X<X<X<X<X<X<X<X<X<X<X<X<X<X<X<X<X<X<X<X<X<X<X<X<X<X<X<X<X<X<XE 6 0 i g {  ... .' f 0.V.<X<X<X<X<X<X<X<X<X<X<X<X<X<X<X<X<X<X<X",
"<X<X<X<X<X<X<X<X<X<X<X<X<X<X<X<X<X<X<X<X<X<X<X<X<X<X<X<X<X<X<X<XW <X5 i g { '  .' ` ,.).<X<X<X<X<X<X<X<X<X<X<X<X<X<X<X<X<X<X<X<X",
"<X<X<X<X<X<X<X<X<X<X<X<X<X<X<X<X<X<X<X<X<X<X<X<X<X<X<X<X<X<X<X<Xd.<X5 i b ` { ' { ..g.j.<X<X<X<X<X<X<X<X<X<X<X<X<X<X<X<X<X<X<X<X",
"<X<X<X<X<X<X<X<X<X<X<X<X<X<X<X<X<X<X<X<X<X<X<X<X<X<X<X<X<X<X<X<XP r 4 i b [ { ' { { v ;.<X<X<X<X<X<X<X<X<X<X<X<X<X<X<X<X<X<X<X<X",
"<X<X<X<X<X<X<X<X<X<X<X<X<X<X<X<X<X<X<X<X<X<X<X<X<X<X<X<X<X<X<X<Xt c 4 i b [ | | ` a T 5 <X<X<X<X<X<X<X<X<X<X<X<X<X<X<X<X<X<X<X<X",
"<X<X<X<X<X<X<X<X<X<X<X<X<X<X<X<X<X<X<X<X<X<X<X<X<X<X<X<X<X<X<X<Xt.l > 8 i b } } b a 8 & <X<X<X<X<X<X<X<X<X<X<X<X<X<X<X<X<X<X<X<X",
"<X<X<X<X<X<X<X<X<X<X<X<X<X<X<X<X<X<X<X<X<X<X<X<X<X<X<X<X<X<X<X<Xu.7 # @ @ 1 2 , > : O <X<X<X<X<X<X<X<X<X<X<X<X<X<X<X<X<X<X<X<X<X",
"<X<X<X<X<X<X<X<X<X<X<X<X<X<X<X<X<X<X<X<X<X<X<X<X<X<X<X<X<X<X<XW.2.<X% o o <X<X2 l l <X<X<X<X<X<X<X<X<X<X<X<X<X<X<X<X<X<X<X<X<X<X",
"<X<X<X<X<X<X<X<X<X<X<X<X<X<X<X<X<X<X<X<X<X<X<X<X<X<X<X<X<X<X<XB.Z <Xe > X <X<X<X:.;.<X<X<X<X<X<X<X<X<X<X<X<X<X<X<X<X<X<X<X<X<X<X",
"<X<X<X<X<X<X<X<X<X<X<X<X<X<X<X<X<X<X<X<X<X<X<X<X<X<X<X<X<X<XU.2.<X<X<Xc X <X<X<X6.o.<X<X<X<X<X<X<X<X<X<X<X<X<X<X<X<X<X<X<X<X<X<X",
"<X<X<X<X<X<X<X<X<X<X<X<X<X<X<X<X<X<X<X<X<X<X<X<X<X<X<X<X<XV.B.Z <X<X<X} + <X<X<X7.o.<X<X<X<X<X<X<X<X<X<X<X<X<X<X<X<X<X<X<X<X<X<X",
"<X<X<X<X<X<X<X<X<X<X<X<X<X<X<X<X<X<X<X<X<X<X<X<X<X<X<X<X<XR.2.<X<X<X5.6.9 <X<X<Xa.$.<X<X<X<X<X<X<X<X<X<X<X<X<X<X<X<X<X<X<X<X<X<X",
"<X<X<X<X<X<X<X<X<X<X<X<X<X<X<X<X<X<X<X<X<X<X<X<X<X<X<X<XZ.B.M <X<X<XM T 9 <X<X<X4.o.<X<X<X<X<X<X<X<X<X<X<X<X<X<X<X<X<X<X<X<X<X<X",
"<X<X<X<X<X<X<X<X<X<X<X<X<X<X<X<X<X<X<X<X<X<X<X<X<X<X<X<XA.1.<X<X<X<X<X: 5 <X<X<X, i <X<X<X<X<X<X<X<X<X<X<X<X<X<X<X<X<X<X<X<X<X<X",
"<X<X<X<X<X<X<X<X<X<X<X<X<X<X<X<X<X<X<X<X<X<X<X<X<X<X<XR.i.z <X<X<X<X<X> 5 <X<X<X1 c z <X<X<X<X<X<X<X<X<X<X<X<X<X<X<X<X<X<X<X<X<X",
"<X<X<X<X<X<X<X<X<X<X<X<X<X<X<X<X<X<X<X<X<X<X<X<X<X<XE.K.h <X<X<X<X<X<X5 i <X<X<Xx C V <X<X<X<X<X<X<X<X<X<X<X<X<X<X<X<X<X<X<X<X<X",
"<X<X<X<X<X<X<X<X<X<X<X<X<X<X<X<X<X<X<X<X<X<X<X<X<XV.L.<.< <X<X<X<X<X<Xr c <X<X<Xk b x <X<X<X<X<X<X<X<X<X<X<X<X<X<X<X<X<X<X<X<X<X",
"<X<X<X<X<X<X<X<X<X<X<X<X<X<X<X<X<X<X<X<X<X<X<X<X<XI.i.s <X<X<X<X<X<X<Xy c <X<X<Xz v x <X<X<X<X<X<X<X<X<X<X<X<X<X<X<X<X<X<X<X<X<X",
"<X<X<X<X<X<X<X<X<X<X<X<X<X<X<X<X<X<X<X<X<X<X<X<Xp.a.#.e <X<X<X<X<X<X<XG c <X<X<X<Xv u <X<X<X<X<X<X<X<X<X<X<X<X<X<X<X<X<X<X<X<X<X",
"<X<X<X<X<X<X<X<X<X<X<X<X<X<X<X<X<X<X<X<X<X<X<Xr.a.q.d <X<X<X<X<X<X<X<Xe c <X<X<X<Xv k <X<X<X<X<X<X<X<X<X<X<X<X<X<X<X<X<X<X<X<X<X",
"<X<X<X<X<X<X<X<X<X<X<X<X<X<X<X<X<X<X<X<X<X<X<Xe.w.} u <X<X<X<X<X<X<X<X<Xc z <X<X<Xv z <X<X<X<X<X<X<X<X<X<X<X<X<X<X<X<X<X<X<X<X<X",
"<X<X<X<X<X<X<X<X<X<X<X<X<X<X<X<X<X<X<X<X<X<X3.q.%.p <X<X<X<X<X<X<X<X<X<Xv < <X<X<Xb z <X<X<X<X<X<X<X<X<X<X<X<X<X<X<X<X<X<X<X<X<X",
"<X<X<X<X<X<X<X<X<X<X<X<X<X<X<X<X<X<X<X<X<X>.-.=.g u <X<X<X<X<X<X<X<X<X>.[ 3 <X<X<X[ z <X<X<X<X<X<X<X<X<X<X<X<X<X<X<X<X<X<X<X<X<X",
"<X<X<X<X<X<X<X<X<X<X<X<X<X<X<X<X<X<X<X<X<X$.=.' 9 <X<X<X<X<X<X<X<X<X<XJ.| 5 <X<X5.,.V <X<X<X<X<X<X<X<X<X<X<X<X<X<X<X<X<X<X<X<X<X",
"<X<X<X<X<X<X<X<X<X<X<X<X<X<X<X<X<X<X<X<XO.%.] f u <X<X<X<X<X<X<X<X,X;Xb...8 6 <X_.h.A <X<X<X<X<X<X<X<X<X<X<X<X<X<X<X<X<X<X<X<X<X",
"<X<X<X<X<X<X<X<X<X<X<X<X<X<X<X<X<X<X<XZ +.+.g 9 <X<X<X<X<X<X<X,X>X$XT.6.{ a : 9.].L.<.<X<X<X<X<X<X<X<X<X<X<X<X<X<X<X<X<X<X<X<X<X",
"<X<X<X<X<X<X<X<X<X<X<X<X<X<X<X<X<X<X<XB | ` a < <X<X<X<XZ.(.@X;X$X/.y.C 8 4 D H.].Q.h.<X<X<X<X<X<X<X<X<X<X<X<X<X<X<X<X<X<X<X<X<X",
"<X<X<X<X<X<X<X<X<X<X<X<X<X<X<X<X<X<X<X5 i 8 , <X<X<X<XS.T././.).K.y.n O & <Xl.].).).Q.k.<X<X<X<X<X<X<X<X<X<X<X<X<X<X<X<X<X<X<X<X",
"<X<X<X<X<X<X<X<X<X<X<X<X<X<X<X<X<X<X<X<X% # <X<X<X<X<X<X3.b.K.4.d y <X<X<X<XJ.b.b.b.b.K.<X<X<X<X<X<X<X<X<X<X<X<X<X<X<X<X<X<X<X<X",
"<X<X<X<X<X<X<X<X<X<X<X<X<X<X<X<X<X<X<X<X<X<X<X<X<X<X<X<X<XM Y <X<X<X<X<X<XR.y.g.<.4.:.:.<X<X<X<X<X<X<X<X<X<X<X<X<X<X<X<X<X<X<X<X",
"<X<X<X<X<X<X<X<X<X<X<X<X<X<X<X<X<X<X<X<X<X<X<X<X<X<X<X<X<X<X<X<X<X<X<X<X<XN s P t y 6 & <X<X<X<X<X<X<X<X<X<X<X<X<X<X<X<X<X<X<X<X"
};
