/* XPM */
static char *a7cdbec348cd4b3a80800efed1a416f3[] = {
/* columns rows colors chars-per-pixel */
"64 64 204 2 ",
"   c #26160B",
".  c #2A1708",
"X  c #2C1A0D",
"o  c #361907",
"O  c #321A0D",
"+  c #3D1C09",
"@  c #3E1B05",
"#  c #201614",
"$  c #2A1711",
"%  c #271912",
"&  c #2C1C13",
"*  c #241B19",
"=  c #2D1E19",
"-  c #311E14",
";  c #3A1D11",
":  c #321F18",
">  c #3D210D",
",  c #2E2013",
"<  c #2C221C",
"1  c #332215",
"2  c #3B2414",
"3  c #3C2816",
"4  c #34231A",
"5  c #3C261A",
"6  c #36281F",
"7  c #3D291B",
"8  c #241A21",
"9  c #281920",
"0  c #2D2522",
"q  c #352521",
"w  c #3A2720",
"e  c #352B25",
"r  c #3E2A22",
"t  c #42240D",
"y  c #46290B",
"u  c #4B260C",
"i  c #432513",
"p  c #442A15",
"a  c #4C2C15",
"s  c #43271B",
"d  c #432B1C",
"f  c #4A2E1B",
"g  c #502A13",
"h  c #582F1B",
"j  c #522B1A",
"k  c #4B3116",
"l  c #46311E",
"z  c #4B321D",
"x  c #513017",
"c  c #5E3217",
"v  c #52331D",
"b  c #5A361C",
"n  c #52391F",
"m  c #5B3A1B",
"M  c #633F1D",
"N  c #6D3F1E",
"B  c #442D22",
"V  c #4A2E22",
"C  c #453223",
"Z  c #4C3323",
"A  c #4C3827",
"S  c #45312A",
"D  c #4D372A",
"F  c #4D3929",
"G  c #523522",
"H  c #553A25",
"J  c #5B3C24",
"K  c #53352A",
"L  c #543B2A",
"P  c #5B3C2A",
"I  c #583A32",
"U  c #623E22",
"Y  c #683F21",
"T  c #613E2B",
"R  c #65411D",
"E  c #5D4126",
"W  c #55422B",
"Q  c #5D422B",
"!  c #5E4332",
"~  c #5E4830",
"^  c #5C4438",
"/  c #644324",
"(  c #6A4425",
")  c #6C4824",
"_  c #63432C",
"`  c #6B442C",
"'  c #65492D",
"]  c #6C4A2D",
"[  c #724926",
"{  c #784C27",
"}  c #71472E",
"|  c #724B2E",
" . c #794E2A",
".. c #6E502D",
"X. c #74502C",
"o. c #7A522C",
"O. c #634531",
"+. c #6A4732",
"@. c #654A33",
"#. c #6C4C33",
"$. c #6B4D3A",
"%. c #724D33",
"&. c #7A4E33",
"*. c #704D39",
"=. c #6E5033",
"-. c #6D533A",
";. c #755234",
":. c #7C5434",
">. c #7D5935",
",. c #755339",
"<. c #7B563A",
"1. c #75583A",
"2. c #7D5A3C",
"3. c #775642",
"4. c #7C5441",
"5. c #7C5B42",
"6. c #745A43",
"7. c #7B614A",
"8. c #81542C",
"9. c #835634",
"0. c #845A35",
"q. c #8A5C35",
"w. c #83563A",
"e. c #845C3B",
"r. c #8A5D3B",
"t. c #925F34",
"y. c #915E3B",
"u. c #866035",
"i. c #8C6036",
"p. c #85613C",
"a. c #8C623D",
"s. c #8F683D",
"d. c #926136",
"f. c #986234",
"g. c #9B6E37",
"h. c #93643D",
"j. c #99663C",
"k. c #95693E",
"l. c #9B6A3E",
"z. c #95703C",
"x. c #9A713D",
"c. c #A36C3F",
"v. c #805741",
"b. c #825D42",
"n. c #8B5E41",
"m. c #855F48",
"M. c #965F40",
"N. c #856243",
"B. c #8C6342",
"V. c #8E6943",
"C. c #83634A",
"Z. c #8C6649",
"A. c #8D6A49",
"S. c #936543",
"D. c #996644",
"F. c #956A44",
"G. c #9C6C44",
"H. c #956649",
"J. c #9A6748",
"K. c #956C4A",
"L. c #9B6E4A",
"P. c #967144",
"I. c #9D7145",
"U. c #95704B",
"Y. c #9F744A",
"T. c #9D714D",
"R. c #9D724B",
"E. c #9D794E",
"W. c #8B6D53",
"Q. c #926A50",
"!. c #9B6F52",
"~. c #9D7251",
"^. c #907059",
"/. c #A56F41",
"(. c #A36F47",
"). c #A16E45",
"_. c #A26E45",
"`. c #A96F47",
"'. c #A16D4A",
"]. c #A16E4A",
"[. c #A17146",
"{. c #A37145",
"}. c #A97445",
"|. c #A47946",
" X c #AE7B46",
".X c #A2724A",
"XX c #A67148",
"oX c #A1724D",
"OX c #A6724E",
"+X c #A2764D",
"@X c #A6764E",
"#X c #A3734B",
"$X c #AA754B",
"%X c #A5784D",
"&X c #AB794C",
"*X c #A37551",
"=X c #AA7651",
"-X c #A57952",
";X c #AA7A52",
":X c #A57859",
">X c #AA7E5B",
",X c #B27F50",
"<X c #A58063",
"1X c #AA8163",
/* pixels */
"+X=XG.q.:X[.I.G d j.G.I.l.'.I.L.L.s Q I.B.%.L.q.*Xq.:.I.z w r.V.%Xj.R..XoXG.$XA z F.N.T.l.F..X(.D.B.4 Z h.F.+XG.G.T.G.G.P =.F.h.",
"G.OX(.a.~.l.F.G 7 k.'.R.G.G.Y.J.S.d _ +XF.<.L.q.Y.r.0.G.z w n.V.I.l.T..XL.G._.F G G.Z.T.c.K..XXXD.e.< z j.F.+X(.G.R._.G.P #.G.F.",
"F.'.(.G.L.j.F.P 5 k.OXG.[.G.Y.D.S.V H i.q.&.L.F.I.h.a.I.z B S.s.@XG.V.F.I.@X/.B P (.B.oXc.L.I.[.G.:.= Z d.K.I.G.I.L.(..XH ` I.G.",
"F.'.(.Y.T.G.I.P 4 k.oXG.[.'.+XJ.h.Z G i.h.e.L.I.I.D.S.$Xz B S.k.I..Xp.l.G.D.l.d _ XXr.L./.L.I.[..Xo.& G d.L.I.G.I.G.(.oXz P I..X",
"I.'.(.+XL.G.I.P 4 F.L.L.G.OX.XG.i.Z Z F.Y.S.G.I.[.S.D.$Xz 7 S.k.oX@X0.h.:XL.XX5 ` XXr.L./.L.G.G.@X:.& P l.T.G.(.[.L.XXT.p v T..X",
"G.].(.+XF.j.G.P 4 F.J.L.(.OX[.'.h.Z d h.I.S.G..X.Xh.S.@Xz w h.h.9.F.w.k.L.q.l.5 #.XXr.G.{.K.F.G.$X9.& Q G.T.(.(.[.I..XI.d z T..X",
"F.].XXI.K.j.F.P 1 h.L.K.[.XXI.'.h.D d F.%X.XXX.X+XS.S..Xz B S.a.S.S.:.G.T.I._.7 _ .Xw.L.}.K.F.G..Xr.& Q (.I.G.(.XXT..XL.z z T.G.",
"F.'.(.G.L.l.G.H - a.L.F.$X(.I.'.h.D s h.[.+X$X+XI.S.B.I.z B B.u.L.h.:.F.K.+Xd.5 Q G.>.G.}.K.F.L..Xa.= Q [.G.G.G.XXT.(.L.Z G T.D.",
"I.'.XXF.L.G.G.P & p.[.l.*XD.G.I.F.K s V.$X'.[.XXT.J.i.$Xk d h.e.(.>.9.G.9.@Xa.> f q.<./.+XI.L.I.G.p.& _ $XL.Y.l.a.&Xi.P.H J I.r.",
"+XOXXXF.L._.I.P : N.[..XB.D.@XF.F.K s V.OXXX[.G..XD.r.G.Z S e.b.V.-.#.e...A.1., L h.2.`.+XG.J.Y.L.>.X ' [.oXT.(.i.'.B.e.G L +XL.",
"+XOXXXF.L.[.Y.P - b.I.T.e.S.@Xq.I.K 5 p..XG.G.G.G.G.a.T.F < x d f 5 Z J i f V 8 Q F.<.XXY.G.J.+X~.2.- $._.L.a.D.q.].B.r.T Q G.h.",
"G.].(.k.L.[.+XP X e.k.F.w.r..Xr.I.P d a.G.L.I..X.XG.r.T.F = U G o.' >.L.V.:.U - _ I.,.`.I.I.L.+XL.;.O #.{.L.>.oXo..X:.u.b E [.F.",
"F.'.(.F.L.l.%X_ - <.h.*X:.r.(.F.l.K s p.(.L.I.L.I.J.0.oXH 5 F.N.&XS.D.}.&XF.[ O P I.,.(.G.I.].[.oX:.O #.}.].X.*X..~.C.u.v @.l.F.",
"F.].G.G.L.l.%X_ X _ 9.1X( r.S.B.[.P 5 u.G.oXI.J.K.G.0.=XJ 2 XXh.h.Z.L._.L.L.%.& _ [.1._.I.oXOX(.'.o.- @.@X~.;.K.@.4.$.x ; ^ G.L.",
"F.].G.I.T.j.+X_ < G ] ^._ b.b.<.I.I d p..X@X+XG.F..Xr.oXJ 2 (.h.l.K.D.j.h.P.;.& ` [.<._.Y.I.=XG.XXX.= S / T a b t j d a s ! G.D.",
"F.L.G.I.oXl.+X_ * O + d i J U J o.B 5 B..X.XI.D.h.I.i..X_ d F.p.G.K.].$XL.L.&.& ] [.,./.+XG.OX_.(.] < < > V W @.' b._ K.#.P g.j.",
"L.+XF.oX.Xl.+X` 9 k i 5 d B a P a G 1 B.&XL.XXF.a.@Xi.G.O.3 (..XG._.[.T.G..X#.= #.G.:.G..X/.~.[.L.;.% ) &.e.h.G.:.XXo.+X,.P J.J.",
"L.[.F.oX.XG.*X` 4 u.S.5.2.,.0.A.2.$.1 :.l.r.G.F.V.+Xh.G.@.d (..XI.(.(.T.G..X%.& #..X:.G.G.XXK.XXJ.;.= ;.w.B.J.+Xw.XX0.-X<.G J.G.",
"'.G.[.OX'.[.-X} > x.G.a.a.e.d.k.e.] X :.XXS..XF.V.+XS.D.O.d (..X+XXXG.T.G..X%.& #.[.:.D.G./.N.$XJ.| = ;.w.p.J.I.B._.0.T.<.v F.I.",
"].l.[.'.(.[.%X} V $X'.T.a.w.h.L.p.] . :.XXa..XF.B.oXS.h.Q 3 (..X+XXXG.T.F.[.,.& #.G.>.F.I._.>.@XJ.| - ;.:.>.D.D.K._.q.S.:.v L.G.",
"@Xl.[.'.OXXX-X| V I.S.:Xp.e.S.p.S.%.X ;..X0.[.F.e.I.h.h.P 2 G.L.I.XXG.T.F.G.:.- #.G.e.F.+XG.:.@XG.X.: :.e.e.'.I.~.}.F.F.;.v L.F.",
"L.[.+XL.'.l.%X;.Z z.d.-X0.S.I.u.h.] X <.+Xw.XXL.0.I.i.G.Q 3 G.G.L.(.G.T.k.G.>.- %.G.>.G.*XG.:..XL.;.- >.n.p.@X+XL.}.T.T.%.G F.F.",
"h.I.I.S.J.q.R.%.Z I.XX@Xq.S.%XI.K.%.X %.L.:.XXG.:.I.9.I.Q 2 G.J.L.(.G.T.h.G.2.- %.G.;.oXI.l.;.I..X:.- ;.S.p..X.XF.}.T.*X%.G S.I.",
"I.%XF.S.*Xh.T.%.K F.`.'.F.H.OXJ.S.#.  #.T.:.XXD.:.I. .G.Q 2 G.J.I.(.D.I.h.G.2.& #.G.] +XF.l.#.G..X:.- ;.H.p.(.[.I.}.G.*X| G h.I.",
"*XE.L.B.|.e.=X] Q (.l.T.G.G.L..Xh.] $ N W.1.h.p.<.K.| L.P t c./.L.G.G.G.h.G.2.& #.o.| @XZ.S.) r.~.@.- #.F.S.F.(.L.+XJ.&X[ Z 2.=X",
"9.V.q.| [.<.q.,.Q XX_.T.G.G.L.G.V.$.# u Z p a z v J f ` C r *X~.F.G.G.L.k.G.2.& ) K.) $XN.G./ E.J.] 2 %.i.S.I.L.G.I.S.&X| 7 J &.",
"f 7 G d J r a 6 L XX/.T.I.(.L.D.a.' e ] z @.#.P Q Q Z f 4 6 L.K.F.D..XT.k.G.2.& #.K.] L.m.n.#.!.j./ ; | i.S.Y.J.l.I.J.-X1.% X t ",
"<.z ,.,.] P :.B G XXXXT.G.[.L.h.j.U C G.| ~.oX&.V.S.<.} d B XX$XL.D.@X+Xk.G.2.& ` a.( l.:.9.) F.H.J O #.i.D.I.h.G.G.J.+X2.w Q b.",
"V._ n.0.r.+.F.Z G XX_.T.G.(.L.h.h.( d _.9.I.{.q.i.D.e.e.f d l.G.I.D.@XT.F.G.<.& Q 1._ :.-.] _ Z.,.F & #.q.S.[.l..X+XL.G.:.5 #.L.",
"B.$.B.e.S.+.P.B G XX(.T.F.G.K.h.n._ B XXe.a.XXF.S.T.<.B.C 7 F.R.G.D.XXL.F.G.,.& q 2 5 i B ; 1 2 2 1 * @.0.S.%XG.L.I.L.+X0.f :._.",
"t.%.G.j.G.| g.f G XX_.T.G.G.L.h.e.Q r .Xe.V.XXS.S.L.:.p.C 7 S.T.G.l..XJ.D.G.%.& ~ 1.' B.@.2.1.( p 3 % ' 0.S.Y.G..XI.F.[.:.f >.XX",
":.$.K.F.K.+.u.S G (._.T.G.[.L.S.0.#.2 f.F.@X_.L.G.XXi.D.n l d.J.G.G..XF.G.(.] $ Y @Xr.$Xa.].*X=XZ.Q X _ q.B.G.L.(.I.L.+X;.Z 2.oX",
"r.| /.L.h. .L.B F /.G.L.$XL.G.S.w.| 6 0.T..XG.I.L.G.r.;XG f D.K.G.G.XXG.K.L.Y & O.[.S.L.a.L.XXI.D.` & P r.B.(.L.G.XXL.XX:.Z B.XX",
"a.;.XXT.h.9..XC A /.G.L.XXL.[.F.e.| 1 q.T..XG.G.L.G.i.;XJ z G.F.G.I.$X(.K.oX) % _ I.h.K.k.'.XXF.G.] & Q r.r.G.G.F.[.L.XX:.Z B.XX",
"S.:.}.L.S.0.'.C F XXG.L.[.L.[.J.r.| 1 r.oX'.D.G..X.Xr.@X_ Z OXL.G.*X$XG.F.*X&.% O.|.h.L.F.oXXXF.L.] % Q r.B.G.L.F.(.R.$X:.Z B.[.",
"F.w.$XL.h.e.L.d F }.G.L.G.L.G.J.r.&.1 a.+XG.D.G..X(.0..X` z $XG.G.T.[.G.S.oX9.& T |.G.+XI.'.XXG..X] % Q a.B.G.I.F.(.T.$X:.Z r.(.",
"J.e.}.K.a.e.L.d Z }.G.I.G.G.G.F.n.;.1 S.oXG.D.G..XG.0.@X+.z G.h.L.F./.[.B.L.9.= P |.XX+XI.(.[.G.XX%.% _ a.S.G.G.G.[.T.$X:.C r.G.",
"D.B.{.K.S.w.'.d C XXG.T.G.L.G.F.r.;.1 S.I.G.D.I..XG.0.L.O.Z G.G.I.a.G.@XV.J.:.- P |.(.I.[.'.(.G..X;.% _ B.K.G.G.I.XXT.XXw.C r.G.",
"(.S./.T.S.0.oXC l XXG.+XG.T.G.S.p.:.1 h.I.G.G.I.@XG.0.S.G G G.+XI.e.G.;Xp.S.:.1 K [.(.I.+X'.[.L.G.,.% _ h.T.G.G.I.(.T.XXw.Z B.G.",
".XL.c.T.S.:..Xd l }.G.*XG.T.G.S.p.:.& h.I.G.G.G..XL.0.r.d Z h.L.+X0.[.+X0.h.| 4 G I.(.L.[.G.(.T.(.<.& _ S.~.G.F.I._.R.[.w.Z B.(.",
".XXXL.XXr.e.G.l B +XL.=X[..X_.a.p.2.X h.L.L.G.oXOXL.:.F.m G r.U.S.{ C.,.H G g 8 Z [.G.T.G.G.Y.S.G.e.& +.j.T.G.D.V.OXF.[.5.z h.G.",
".XXXG.@Xr.r.G.d Z +XL.oXG.%XXXp.:.>., a.L.@XG.D.I.T.:.I.Q d Y E G a d v 2 n R < Z [.D.R.G.G.I.S.D.e.& +.l.L.'.I.e.(.G.$X,.d h.L.",
".X$XG.@Xr.r.G.7 L j.q.L.I.F.d.p.:.<.4 q.J.@XG..Xl.*X;.G.Q - h z P 3.$.Z.1.N.k.3 d XXG.L.G.L.I.S.J.u.1 ` l.F.J.I.0.].G.&X%.f k.].",
"+XXXG.XXB.w.G.2 G {.0.D.h.T.(.B.&.%.- r..XXXG.+Xl.oXX.I.Q r v.6.a.%X9.D.0.a.&XV d $X'.K.G.'.G.S.G.p.1 _ j.V.h.F.>.(.F.F.,.f k.'.",
"+X_..X_.B.:.L.4 J ,X0.H.q.L.].B.2.%.= q..X.X[.I.[.].;.+XJ 5 r.=.I.}.q.l.h.h.XXB d $X'.F.F.'.G.D.G.a.1 _ h.V.y.a.e.OXF.k.<.l k.L.",
"+Xl..X(.K.w.L.5 Z I.<.Q.p.e.y.:._ P < 0.G.G.$XG.XXJ.:.%X_ Z F.X.L.L.F.G.B.u.F.C d [.'.K.F.oXI.G.(.a.1 +.h.K.S.a.p.OXI.[.<.d k.L.",
"+Xj.@X$XS.e.h.6 B e.+._ J n c t > o < r.G..X(.G.+XL.:.I./ Z S.] B.S.~..XV.p.h.C d G.].R.l.OX+X(.G.a.1 $.q.K.S.q.p.G.k.-X` d F.J.",
"+Xj..X&XB.w.9.4 % y 2 2 W L %.7.$.2 0 0.G.@XD..XF.K.:.I.` K H.<.%X{.$X}..XOX/.s B D.].I.l.XX[.G.G.a.1 *.8.V.r.:.B.y.q.>XJ z I.L.",
".Xl.OX.XV.e.i.6 p b B.[ B.B.h.&Xa.4 2 ;.XX[.Z.XXF.F.:.I.' Z D.>.[.T.XXG.*XXXD.7 B k.'.L.k.'..XF.G.r.6 e 2 v C d G P K 3.C Z _.G.",
"G.k.].XXV.r.F.B @.,.~.9.B.p.q.XXa.4 2 ;._.[.N.XXF.F.<.I.' Z D.>.G.L.XX(.T.XXD.d B s.D.J.F..XG.a.I.r.1 1 P ] d _ i > o @ . C XXG.",
"J.k.'.$XV.a..XB #.<.L.i.p.V.i.$Xh.4 5 <.G.[.2.XXG.D.w.I._ G D.>.G.L.XX(.T.[.D.d d F.G.L.I.'.G.G.@Xe.> 5 C.~.| ~.` 1.C.b 7 Z [..X",
"G.F.'.+XV.h.+Xd ] w.h.h.r.S.h..Xh.4 7 2.G..X1.XX[.D.9.G./ Z D.e.[.G.(.G.T.[.D.7 B F.h.J.I.OX(.F.-X9.> 5 e..X0.(.U B.<X:.L d l.+X",
"G.I.'.[.V.h.I.s ] B.h.G.i.L.F..Xh.1 7 2.(.I.;.G.$XL.:.I.' V S.p.+XF.G.G.R.[.G.d B I.D.oXI.'.(.G.+X:.2 d r.[.F.&X| S.T.q.! d h.I.",
"L.I.L.I.F.S.G.5 _ V.h.G.h.T.+X@Xh.4 7 e.XXG.=.G.[.L.:.I.#.V S.e.$XF.G.G.R.[.L.B d I.G.oXI.G.G.S.-XB.7 7 p.i.i..X&.h.a.D.O.d D.+X",
".XG.'.G.K.D.h.4 J K.G.(.D.J..X(.k.5 7 2.+Xh.#.J.F.*X| h.#.B S.2.$XF.(.G.L._.L.B d k.y.J.F.'..X0.G.S.d 7 S.D.F.OX:.I.I.=XP d d.F.",
"@XI.'.D.U.D.i.1 v K.@XXX.XJ..X_.h.5 3 :.G.q.#.S.h.*X` q._ d S.2.%XL.XX.XL.l.G.B 2 I.].oXh.S.;XT.G.D.G s p.[.I.D.Z.+Xk.$XH K G.k.",
"G.c.e.[.d.:.r.- z G.$XL.$X_.+XG.Z.a 6 @.}.[./ S.p.}.` F.) B e.w.@XJ.(.OXK._.F.l s a.oXR.p.L.$XL.q.D.S 3 S.T.G.G./.I.J.@XJ G -Xw.",
"S.;XN.L.S.2.2.4 z G.XXL.$X_.+XG.Z.t 5 @.l.G.] S.e.G.` U.) 5 N.:..XJ.(.$XK._.F.l 2 F.D.>Xq.D.$XS.r.a.F s r.L.[.[.@XG.h..XJ H .X9.",
"J.XX;.S.D.e.;.- z G.XXL..X_.T.G.B.i 5 @.h.S._ :.<.K.O.B.' w B.:.G.G._.(.L.[.D.l w ;.w.K.] Z.F.b.;.:.F Z r.T.$XI.@XI.S.F.J _ I.:.",
":XD.,.S.r.%.] - Z L.XXL.G.G.T.G.r.f 4 L 2.N.Q ,.] b.P ] J B r.:.D.G.G.D.T.XXD.l < p v z p v m f p b 1 d q.G.$XI.G.P.oXG.E ! V.%.",
"$.U L Q H l d * l L.(.L.G.G.I.G.r.5   2 p f t x m G v M 3 4 r.>.D.G.[.l.~.XXG.Z q E ` ;.5.#.V.C.O.b.6 z h.F.[.G..Xk.'.I.J B / Z ",
"m U L a U P z 4 l G.(.L.G.G.L.D.r.2 D <.P Q ;.#.R.+.b.F.7 1 r.>.F.G.[.D.*XXXG.Z d :.q.F.p.9.l.L.,.K.4 z J.F.XX+XXXF.'.G.J C J d ",
"G.OXA.8.$XK.r.H d J.G.L.G.[.L.D.p.2 $.>X<.1.S.,.&X#.p.;XB 2 M.V.I.G.[.G.*XXX(.z z q.y.I.i.S.{.L.e.T.2 Z F.K.G.G.D.I.XXl._ $.B.%.",
".XXXA.r.;XS.S.a s J.G.T.G..XR.D.a.i ` &X:.:.F.9. X4.0.G.C 2 r.V.I.K.[.G.*XXX(.Z S p.:.U.Z.S.;X| i.D.2 z S.K.[.[.L.T.'.j./ ] k.e."
};
