/* XPM */
static char *a7a262c347614a76877e51e4b75b4457vU6Rtv6JLRjkmfM9[] = {
/* columns rows colors chars-per-pixel */
"32 32 100 2 ",
"   c None",
".  c #2D4F10",
"X  c #13622C",
"o  c #176B2D",
"O  c #196F32",
"+  c #157233",
"@  c #147930",
"#  c #2E7928",
"$  c #296438",
"%  c #2D7230",
"&  c #2E7D32",
"*  c #26763B",
"=  c #2B743E",
"-  c #267C3D",
";  c #4B7114",
":  c #198538",
">  c #1B8C3C",
",  c #1D923C",
"<  c #1B993C",
"1  c #2E8F31",
"2  c #20853C",
"3  c #218E3C",
"4  c #368039",
"5  c #2E9335",
"6  c #22923B",
"7  c #2B923D",
"8  c #249A3C",
"9  c #2A9839",
"0  c #349635",
"q  c #3E9631",
"w  c #349935",
"e  c #399C36",
"r  c #33993D",
"t  c #29A33B",
"y  c #34A73F",
"u  c #2AB53B",
"i  c #658E17",
"p  c #77A316",
"a  c #6FB11F",
"s  c #77B11E",
"d  c #7FB21E",
"f  c #4D9C2B",
"g  c #4C9F33",
"h  c #58A628",
"j  c #57A92D",
"k  c #46A033",
"l  c #4BA033",
"z  c #45A936",
"x  c #43AD3B",
"c  c #51A636",
"v  c #53AA30",
"b  c #53B230",
"n  c #65A623",
"m  c #66A925",
"M  c #60A92A",
"N  c #1BCC3C",
"B  c #25C13A",
"V  c #57CC2B",
"C  c #5ECA39",
"Z  c #1C8D43",
"A  c #1C8F48",
"S  c #1D9344",
"D  c #1E9348",
"F  c #238641",
"G  c #218D42",
"H  c #2A8F4A",
"J  c #249344",
"K  c #249C45",
"L  c #299B44",
"P  c #28984B",
"I  c #309644",
"U  c #36924E",
"Y  c #329D4D",
"T  c #298D51",
"R  c #28A64B",
"E  c #22BA42",
"W  c #22B24C",
"Q  c #28B34D",
"!  c #29A351",
"~  c #30A351",
"^  c #29B251",
"/  c #1A8E67",
"(  c #1C8F67",
")  c #449344",
"_  c #449544",
"`  c #449D48",
"'  c #45A743",
"]  c #45A945",
"[  c #57A744",
"{  c #42B141",
"}  c #00C853",
"|  c #31CE5D",
" . c #32CF5E",
".. c #5BCC44",
"X. c #82B317",
"o. c #8AB517",
"O. c #84B31A",
"+. c #85B61A",
"@. c #AAE71F",
"#. c #9DE322",
/* pixels */
"                                                                ",
"                                                                ",
"              W U W W W U     W W     W U W W U W               ",
"            W R R R R R R > > Z > > > > > > < > = W             ",
"          W | > : > > > Z > > Z Z R > t > R Z < > W W           ",
"        > > > > , 6 > > > < > ( Z > Z t R q = Z > Z > >         ",
"        > J , K 6 Z > > % < > < > > % G h g 4 6 U % > >         ",
"      U > X J J G I > , % 6 & & 2 r % 4 4 4 4 1 Y % R > W       ",
"      W > K G F K - $ L B v & & 3 / Z 4 4 4 $ > % % 7 > W       ",
"      W K > Z Z K S % P t & & j e > c g g $ = Y , T _ > W       ",
"      W K S S Z K , % 8 y b & & 9 % w > Z < Z Y , Z % R W       ",
"      W S * H J , D E L y z x ' , N t > T < % ) $ > _ O.U W     ",
"      W D % S A - K , 8 u { % % , t Z > > > % , t R _ 0 W U     ",
"    W ^ r Z $ N S J % 8 4 4 % , % G > > < G ) , G > k > W U     ",
"    U W N > $ ! > > ~ % 4 4 , , % > > G N 0 O.6 G n o.> | W     ",
"    W Q Z > t = > Z > [ a 4 > > > Z ] t $ O.p > > & O.> #.      ",
"    W ^ Z > % < > } } % % > > > $ > ` t 8 p $ . > 4 4 7 @.W     ",
"      W < > % > N } 4 4 Z > > Z < t > Z > $ > ; $ 4 4 _ C W     ",
"      W Z % , < : } % 4 % % Z , < t Z > < > t i > > % g W W     ",
"      W % < = > } } % > , > ! G t Z > Z < > G # 7 t < X.W W     ",
"      Q > > = 5 X.4 n Z > $ $ > > < < > < R > > $ 4 > X.W W     ",
"      W % > % t q f Z S S G r o R G < % t $ G $ 4 4 > w W W     ",
"      W % < f % > > $ < > G Z > $ > > % $ > t $ 4 +.> , U W     ",
"      W , Z w r r G , > , $ G > > Z $ t % Z % n 4 4 7 6 W W     ",
"      W > > 3 Z < _ > > $ = Z G t > > $ Z r % Z l m 6 6 U W     ",
"        > > Z < Z $ S G G $ G G = = Z > < V 4 4 % % > > W W     ",
"        > Z Z > < Z > > r > > $ = > > > 4 4 4 d % 6 > , W       ",
"      W R < Z R S S G Z Z r > > > < % Z n s ..M 6 > , >         ",
"      W > r > R , , < r G < < Z G > < > > > + O @ + > >         ",
"      > G < R R = $ = = R R W W W > $ = = $ $ > $ = > W         ",
"        > > > > > > = > > =       > > > > > > > > > >           ",
"                                                                "
};
