/* XPM */
static char * exitMonkey_xpm[] = {
"64 64 444 2",
"  	c None",
". 	c #785949",
"+ 	c #7B543A",
"@ 	c #6C4227",
"# 	c #56260B",
"$ 	c #5D2A0C",
"% 	c #6B3B22",
"& 	c #BB8B72",
"* 	c #6A391A",
"= 	c #733514",
"- 	c #84421C",
"; 	c #7B3C14",
"> 	c #773918",
", 	c #722D0C",
"' 	c #5B1A06",
") 	c #541C02",
"! 	c #653925",
"~ 	c #8A6859",
"{ 	c #C6A99A",
"] 	c #B1ABCB",
"^ 	c #4B1A04",
"/ 	c #72320D",
"( 	c #853C17",
"_ 	c #853C15",
": 	c #742B02",
"< 	c #8C4A26",
"[ 	c #975936",
"} 	c #875638",
"| 	c #774627",
"1 	c #664737",
"2 	c #B3968B",
"3 	c #CBC4F4",
"4 	c #C5B8F6",
"5 	c #DACDFF",
"6 	c #5F402D",
"7 	c #956755",
"8 	c #B37D63",
"9 	c #641F00",
"0 	c #A45B35",
"a 	c #DA9876",
"b 	c #D59C7B",
"c 	c #D6A587",
"d 	c #EDB59B",
"e 	c #D59E84",
"f 	c #955C4B",
"g 	c #4E2305",
"h 	c #AAA5D9",
"i 	c #BCB4E5",
"j 	c #D4CBFD",
"k 	c #D2CBF3",
"l 	c #DCD9F3",
"m 	c #5E4339",
"n 	c #B99982",
"o 	c #C79B83",
"p 	c #C7967A",
"q 	c #E9B596",
"r 	c #A2684A",
"s 	c #BA876A",
"t 	c #ECBB9D",
"u 	c #CCA693",
"v 	c #977866",
"w 	c #A88265",
"x 	c #FEC4A3",
"y 	c #CA8B6A",
"z 	c #6A3313",
"A 	c #D4CCEC",
"B 	c #CAC4EB",
"C 	c #B6AADB",
"D 	c #6D564F",
"E 	c #D8B7A4",
"F 	c #F2CCB5",
"G 	c #E4B49C",
"H 	c #D4AD93",
"I 	c #FFE3CA",
"J 	c #FFF1DC",
"K 	c #FFF6E2",
"L 	c #EAD5C4",
"M 	c #A47B64",
"N 	c #FEC39C",
"O 	c #BA7C5A",
"P 	c #542917",
"Q 	c #A78D83",
"R 	c #E3DCFE",
"S 	c #B5AAE7",
"T 	c #A39AE4",
"U 	c #9793B8",
"V 	c #FDD7B7",
"W 	c #B78A74",
"X 	c #F4D1BB",
"Y 	c #D5BAAC",
"Z 	c #F8DBC9",
"` 	c #CEB196",
" .	c #F4B38C",
"..	c #5B2C13",
"+.	c #ECD2BB",
"@.	c #E8C4A9",
"#.	c #ECCCB5",
"$.	c #D7BDB1",
"%.	c #E3BCA4",
"&.	c #E8BDA6",
"*.	c #DDB39A",
"=.	c #D7B49A",
"-.	c #AC8976",
";.	c #865B43",
">.	c #D3A58A",
",.	c #9A7459",
"'.	c #E3B293",
").	c #FDC195",
"!.	c #632A0B",
"~.	c #F5C6A8",
"{.	c #D8AB96",
"].	c #DDA484",
"^.	c #EDB28A",
"/.	c #F3BC9B",
"(.	c #76502D",
"_.	c #5C3216",
":.	c #976548",
"<.	c #5B250D",
"[.	c #FCB48D",
"}.	c #B26E49",
"|.	c #B99277",
"1.	c #E9A47C",
"2.	c #DCB297",
"3.	c #C6825D",
"4.	c #CB916C",
"5.	c #88522A",
"6.	c #A97758",
"7.	c #E2AC8B",
"8.	c #552204",
"9.	c #F6B796",
"0.	c #AB653C",
"a.	c #632402",
"b.	c #672D11",
"c.	c #8D4C2F",
"d.	c #D9946B",
"e.	c #E49A74",
"f.	c #DCC5B8",
"g.	c #F6AC87",
"h.	c #E18C5E",
"i.	c #E59468",
"j.	c #612707",
"k.	c #C88E74",
"l.	c #FDCBAC",
"m.	c #F4B383",
"n.	c #FBB285",
"o.	c #823609",
"p.	c #6B2C0B",
"q.	c #F5A87C",
"r.	c #FBBA8C",
"s.	c #E6AC94",
"t.	c #C9B8AA",
"u.	c #E5C9B8",
"v.	c #E5CCC3",
"w.	c #C9C7E8",
"x.	c #E9966A",
"y.	c #D8865B",
"z.	c #6D2401",
"A.	c #DBAA8B",
"B.	c #BD936D",
"C.	c #FBBB94",
"D.	c #C77B57",
"E.	c #A35729",
"F.	c #E79D78",
"G.	c #958AC8",
"H.	c #9B92D4",
"I.	c #E9A785",
"J.	c #894516",
"K.	c #F3B392",
"L.	c #FDBC9A",
"M.	c #FDB693",
"N.	c #6B1D00",
"O.	c #974616",
"P.	c #8885CA",
"Q.	c #ABA4E4",
"R.	c #DDDAFF",
"S.	c #FFCBA3",
"T.	c #EAE8F6",
"U.	c #BBB7E7",
"V.	c #FBB9A1",
"W.	c #FFD3AC",
"X.	c #F2B07E",
"Y.	c #5C2303",
"Z.	c #FCFBFF",
"`.	c #E5E2FE",
" +	c #F7BB8E",
".+	c #F7C29A",
"++	c #653214",
"@+	c #CBA389",
"#+	c #B3ABF5",
"$+	c #F3ECFF",
"%+	c #9FA2C3",
"&+	c #C9C5F5",
"*+	c #9788E6",
"=+	c #8778E9",
"-+	c #FFCA9D",
";+	c #D88D64",
">+	c #A888FC",
",+	c #AC94FE",
"'+	c #9B8BF4",
")+	c #8A84D2",
"!+	c #A9AACD",
"~+	c #ECEAFF",
"{+	c #786EB4",
"]+	c #4F4895",
"^+	c #796DD6",
"/+	c #7958E7",
"(+	c #B38BFF",
"_+	c #B495FF",
":+	c #AD9CFF",
"<+	c #A593FB",
"[+	c #8E85DB",
"}+	c #C3BAFD",
"|+	c #8678D8",
"1+	c #A484FE",
"2+	c #9163FF",
"3+	c #D8A174",
"4+	c #CF965F",
"5+	c #834EF7",
"6+	c #A27BFE",
"7+	c #BBA2FE",
"8+	c #9B95E7",
"9+	c #FDF4FF",
"0+	c #6250B5",
"a+	c #8669D7",
"b+	c #9785F7",
"c+	c #9C74FF",
"d+	c #8B5CFE",
"e+	c #7947F7",
"f+	c #864926",
"g+	c #6C34F9",
"h+	c #743BED",
"i+	c #B5A4FC",
"j+	c #ECE3FE",
"k+	c #F4F4FD",
"l+	c #FDE0BD",
"m+	c #ACA7EB",
"n+	c #7C4CEC",
"o+	c #7C4CF4",
"p+	c #4D1ABB",
"q+	c #4515AB",
"r+	c #470500",
"s+	c #570807",
"t+	c #FDAC98",
"u+	c #652AEB",
"v+	c #6B2AF3",
"w+	c #824CFD",
"x+	c #966BFC",
"y+	c #B2A2F4",
"z+	c #8272BE",
"A+	c #763C23",
"B+	c #B59CFE",
"C+	c #8457EE",
"D+	c #5322BB",
"E+	c #511DB4",
"F+	c #6535C8",
"G+	c #582CB3",
"H+	c #A86762",
"I+	c #8E2D2C",
"J+	c #8E603C",
"K+	c #784B35",
"L+	c #7648E8",
"M+	c #4C1BB3",
"N+	c #40159B",
"O+	c #451C97",
"P+	c #421B8D",
"Q+	c #F5B7AF",
"R+	c #881922",
"S+	c #A83437",
"T+	c #CB6A56",
"U+	c #DE8777",
"V+	c #833404",
"W+	c #7B3205",
"X+	c #79360A",
"Y+	c #834214",
"Z+	c #8B491B",
"`+	c #945324",
" @	c #6D330A",
".@	c #BBB9EB",
"+@	c #5224B2",
"@@	c #3D1492",
"#@	c #350C84",
"$@	c #35137C",
"%@	c #B64847",
"&@	c #742601",
"*@	c #8A3B0C",
"=@	c #9B5729",
"-@	c #7D4115",
";@	c #7A431B",
">@	c #7B2B01",
",@	c #8C441B",
"'@	c #A79AF6",
")@	c #DCD4FE",
"!@	c #752F11",
"~@	c #822E01",
"{@	c #551BD2",
"]@	c #5D1FE7",
"^@	c #662AF9",
"/@	c #6B37E6",
"(@	c #D2C5FE",
"_@	c #E3D6FF",
":@	c #B79CFB",
"<@	c #8668EC",
"[@	c #65320A",
"}@	c #943B08",
"|@	c #A2430B",
"1@	c #8C3503",
"2@	c #6D2A02",
"3@	c #4A1BAD",
"4@	c #541CC3",
"5@	c #5A1DD4",
"6@	c #591BDB",
"7@	c #642AE3",
"8@	c #8757F7",
"9@	c #B3A4EC",
"0@	c #D6D3FD",
"a@	c #7D4CFC",
"b@	c #8E3A02",
"c@	c #A4490D",
"d@	c #AC4B0B",
"e@	c #B24C0B",
"f@	c #C25C15",
"g@	c #B15116",
"h@	c #9C430C",
"i@	c #3E149B",
"j@	c #4415A4",
"k@	c #4917AF",
"l@	c #561CCC",
"m@	c #5418C8",
"n@	c #642ADA",
"o@	c #6A34DC",
"p@	c #7446DA",
"q@	c #9D8273",
"r@	c #8E766C",
"s@	c #A64506",
"t@	c #B55106",
"u@	c #BA540A",
"v@	c #C75B08",
"w@	c #C35C0B",
"x@	c #401795",
"y@	c #9979F7",
"z@	c #8A67F9",
"A@	c #8452FD",
"B@	c #6538D7",
"C@	c #973D07",
"D@	c #AC4A03",
"E@	c #BC5504",
"F@	c #CB620A",
"G@	c #D56306",
"H@	c #5C29D7",
"I@	c #D5BAFF",
"J@	c #C8B3FF",
"K@	c #F2E3FF",
"L@	c #EADCFF",
"M@	c #9C8BFD",
"N@	c #5926C8",
"O@	c #4619AA",
"P@	c #320D7B",
"Q@	c #D4640B",
"R@	c #531DBC",
"S@	c #AA72FF",
"T@	c #BDA69D",
"U@	c #D7D2EC",
"V@	c #7855F8",
"W@	c #3B148B",
"X@	c #2E0D74",
"Y@	c #4D16C3",
"Z@	c #E8B1FF",
"`@	c #492A18",
" #	c #E2DFEE",
".#	c #DBD4F5",
"+#	c #B9B5DC",
"@#	c #4D24AC",
"##	c #CF6104",
"$#	c #4A16B7",
"%#	c #782F0C",
"&#	c #E5DCF8",
"*#	c #6C44E9",
"=#	c #BD4F05",
"-#	c #BCB4FE",
";#	c #7C63EA",
">#	c #7B53EC",
",#	c #B34C04",
"'#	c #D15F05",
")#	c #CB5B03",
"!#	c #C35404",
"~#	c #A54B17",
"{#	c #4D23B6",
"]#	c #9C4308",
"^#	c #CCC4FE",
"/#	c #A99AEA",
"(#	c #C4A9FF",
"_#	c #8B57F9",
":#	c #3A2112",
"<#	c #CBBDFF",
"[#	c #4E25C3",
"}#	c #BBB6F7",
"|#	c #482D91",
"1#	c #6A45D8",
"2#	c #C4B9E7",
"3#	c #948BD8",
"4#	c #3B358B",
"5#	c #9B99D5",
"6#	c #963E11",
"7#	c #6526E6",
"8#	c #887BF6",
"9#	c #7644FB",
"0#	c #9076D3",
"a#	c #ADA7FA",
"b#	c #9A94F2",
"c#	c #8884E8",
"d#	c #E4C9FF",
"e#	c #733AF8",
"f#	c #5C24D4",
"g#	c #8E4A16",
"h#	c #926CE4",
"i#	c #5849AA",
"j#	c #CDCBFD",
"k#	c #272377",
"l#	c #6747C6",
"m#	c #5923C5",
"n#	c #38190D",
"o#	c #6F54CC",
"p#	c #582ABB",
"q#	c #5C2CCC",
"r#	c #442622",
"s#	c #FAE9FE",
"t#	c #9779E8",
"u#	c #3B0C97",
"v#	c #3C1897",
"w#	c #9474FA",
"x#	c #5A3C30",
"y#	c #A98CEE",
"z#	c #5637C9",
"A#	c #7357D6",
"B#	c #5C44C5",
"C#	c #B8A9F6",
"D#	c #7F72ED",
"E#	c #A599DA",
"F#	c #4B3F7D",
"G#	c #9C96CA",
"H#	c #8D83FD",
"I#	c #CCD0F7",
"J#	c #9C95FC",
"K#	c #EBE0CA",
"                                                                                                                                ",
"                                                                                                                                ",
"                                                                                                                                ",
"                                                    .     .                                                                     ",
"                                                + @ # $ % $ &                                                                   ",
"                                            . + * = - ; > , ' ) ! ~ {                                                           ",
"                                          ] @ ^ / ( _ : , < [ } | ^ ^ 1 2 3 4 5                                                 ",
"                                        { 6 7 8 < 9 9 0 a b c c d e f # g ~ h i j k l                                           ",
"                                        m n o p q r s t o u n v w d x y z ^ ~ A B i C                                           ",
"                                      D 2 E F o 8 G G H I J K L M & N N O $ P Q   R S T h                                       ",
"                                U A 2 ~ J J V I H W H X K L Y Z ` M d N  .< ..!       U +.@.#.                                  ",
"                        $.@.%.&.*.F + =.@.-.+ ;.*.W >.Z w ,.. ~ Y v '.N ).[ !.P E   &.@.t ~.t %.                                ",
"                      Y %.{.].^./.'.(.~.| _.| _.:.s '.s <.@ % P v -.'. .[.}.!.$ |.~././.1.1.^.2.                                ",
"                      E >.b a 3.4.r 5.V } _.% # } 6.7.s 8.| (._.~ >.9.1.).0.a.b.c.6.a d.e.1.1.G f.                              ",
"                      H ].g.h.i.[ j.| '.{.:.k.o p s s l.(.g g @ w c  .m.n.o.a.p.j.0.i.h.q.r.^.s.f.                              ",
"        t.u.v.    U w.H /.e.x.y.z.> O ].e } d l.r :.4.4.A.B.B.c 7.x C.C.1.D.D.< z.( E.h.h.F. .G f.                              ",
"        ` X #.    G.H.=.d I.y.y.J.1.C.K.^.}.s ].< O C.I.^./././.9.L.x N L.[.M.C.0 N.O.x.F.i.n.7.                                ",
"        %.~.G     P.Q.R.=.d g.0 0.N C.N K.L.C. .L.S.C.N L.K.K.^.g.y.D. .L.^.m. . ._ z.3.e.d. .s.T.T.                            ",
"      I A.K.d     U.      u V.4.4.S.N x S.I.I.9.9.N N W.l.x L.L.[.y.D.X.m.m.r.m.M.[ Y.:.e G H X   Z.`.                          ",
"    L *.k.F.K.G         `.5 {.W p ~.S.x L.e.1.L.x S.W.S.N N N M.g.y.q.[.r.r. +)..+6.++@+u { #+R.$+                              ",
"  L u l.x 4.b 2.%+      &+Q.*+=+@+~.S..+S.1.e.[.C.-+S.-+-+ +).m.;+d.M.r.).-+C.9..+:.} >+,+'+*+)+3   `.                          ",
"  Y o t S.S.b @+!+    ~+{+]+^+=+/+H G ~.C.a 1.n.r.).)..+).).m.e.d. +C.L.).S.S./.l.% -.(+_+:+<+[+3   ] ]                         ",
"Z E &.b I.I.4.q M   R }+|+^+<+,+1+2+` 2.7.^.a  . .K.C.M.L.m.3+4+X.r.m.-+N C.x l.& + 5+6+_+7+:+8+5 9+R.A T.                      ",
"Z @+l.V.9.4.b 6.8.M #+0+a+b+:+,+c+d+e+u.2.s :.O I.K.s.a y f+y r.n.n.).).N .+V.G W g+h+2+>+_+:+i+H.G.3 j+T.k+                    ",
"l+@+c s.k.b y ' b.<.m+]+=+>+,+1+n+o+o+p+q+&.7 r+s+' ' r+r+r+t+t+g.[.[.9.L./.G F u+v+u+w+x+_+i+y+z+]+i j+$+k+  n H *.{.2.u Z     ",
"  ` o M W s.A+$ > = $ [+,+B+7+1+C+5+n+D+E+F+G+H+s+r+s+s+s+I+t+t+L.[.M.I.a 4.b b w ,.J+K+K+| % * * % ! ;.v u =.>.c b s.A.u f.    ",
"          h P.K+Y.A+f+z |.7+_+6+n+o+L+M+N+O+P+Q+f I+R+S+S+T+V.U+D.}.E._ V+o.W+W+X+Y+Z+`+`+Z+Z+Z+-  @ @Y.8.} 7.7.7.l./.t #.{     ",
"          .@[+[+M ++> [ = } 7+>+C+5+L++@@@#@$@Z V.U+%@S+T+t+D.&@z.: &@V+*@O.O.E.=@`+Z+-@-@-@; = / ;@=  @= y K.9.K.b ~.%.Y       ",
"          U.|+|+Q.  * | [ - Y+5.6.o >.p & 6.:.[ c.L.L.M.g.E.N.>@: z.W+_ _ ,@( p.* } M n g+2+6+n ,.(.$ Y./ a 9.7.A.              ",
"          B '@8+Q.  )@+ z < 0 =@- > / , !@!@, z.z.: Y+X+N.&@~@>@W+: W+X+> j.f+o {@]@]@^@/@d+6+B+7+(@_@;.[ K./.A.                ",
"            }+i+3   5 :@<@} [@-@=@=@=@=@< < f+X+&@&@>@}@|@|@|@1@~@N.W+2@) & 3@M+4@5@6@7@/@8@6+_+B+9@5 ~+2.~.*.%.                ",
"            9@}+0@  5 i+<@e+a@,.| ;@= z z !.9 z.>@b@c@d@e@f@e@g@h@b@&@, $ i@j@k@4@l@m@n@o@C+6+_+7+9@0@~+  F @.u.                ",
"          A S 4 )@  (@*+/+o+w+a@5+n+p@q@r@,.c.z.b@s@t@u@v@w@w@u@u@c@~@: 8.x@M+4@l@l@m@n@/@d+y@:@i+Q.j+    #.X $.                ",
"            `.5 )@  (@'+z@o+w+A@w+B@D+i@@@$@8 z.C@D@E@w@F@G@F@F@w@d@h@>@Y.x@p+l@m@l@l@H@/@o+(+I@J@S K@    X E                   ",
"              )@)@L@}+M@z@a@a@a@w+/@N@O@@@P@} z.h@t@w@F@Q@Q@Q@F@w@u@d@}@a.M R@l@N@L+S@5+h+d+6+Q Q 9@R     T@U@                  ",
"              ~+_@4 #+b+V@a@w+a@w+o+L++@W@X@* >@c@t@w@F@Q@Q@Q@F@w@f@e@|@z.% M+Y@p+x+Z@p J+* !...`@J@5 j+   #]                   ",
"              ~+.#+#S :+z@V@A@w+a@5+L+@#W@$@++W+c@t@w@F@Q@Q@G@##F@w@u@s@o.Y.-.$#4@n 5./ Y+Z+%#= P _@L@K@$+l +#                  ",
"              T.&#R }+:+z@*#o+e+a@o+L++@W@X@!.W+c@t@w@F@G@Q@G@##F@E@=#e@1@p...-.7 z ; `+O.*@&@, <._@R )@+#k                     ",
"                  j+-#b+;#>#A@w+w+w+L++@W@X@<.W+h@,#E@w@'#G@##)#v@!#,#e@b@: Y.Y.X+=@~#~#h@V+: / 8.%.j+K@C j                     ",
"            U@    #+'@M@b+c+5+w+w+w+L+{#@@$@!.W+]#D@u@w@)#'#'#)#v@!#=#s@h@: W+: O.~#~#~#*@z.p.b.$ G 9+9+C k                     ",
"          .@h   ^#[+/#(@(#(+_#e+w+a@e+p+i@P@* , C@d@t@E@v@)#)#)#!#!#,#s@c@W+&@b@~#g@~#*@; ;@!.b.z A.'.~.E               `@:#2   ",
"        !+h .@9@'@*+<#9+i+y@C+5+a@a@o+[#i@#@@ 2@b@c@e@E@v@v@!#!#=#=#e@g@b@>@1@b@h@O.,@a.d+:.<.b.p.a 9.l.t |.          + ++* 1   ",
"              .@'@|+}#$+z+|#1#5+5+o+a@H@{#@@} a.1@]#d@,#u@v@!#E@!#,#D@|@}@~@&@V+O.X+8.A@2+;.<.b.D.C.a 1.4.p {         $ = | !   ",
"              2#3#4#{+5#}+J@z@o+5+o+o+e+o@M+6.a.V+}@c@d@e@u@E@t@D@,#e@|@6#>@&@X+p.<.u+A@x+v r+r L.M.e.O r |.          a._ ( %   ",
"            +#    .@{+]+0@j+z@L+>#L+o+a@L+N@O+a.>@b@h@c@d@e@t@,#D@D@C@6#~@&@p.Y.% 7#7@5+y@q@..L.M.I.4.p G           6./ _ - A+  ",
"            .@      8+]+h ^#8#x+x+8@o+a@9#o@+@a.&@~@}@h@d@d@d@s@c@C@C@6#>@/ $ ,.7@A@(+x+0#{ p x L.b s .#            f+-@,@; }   ",
"              '@/#a#b#c#c#c#:+,+:@c+o+w+a@/@|.z %#>@~@}@C@|@s@]#O.O.O.>@z.a.@ 5@o@S@d#(#/#_@2.W.~.|.K@              [@-@`+[@w   ",
"            T c#b#a#:+c#c#^+c#'+B+x+L+A@e#f#+ f+_ >@&@~@1@}@h@g#- X+9 p.J+# `@m o@p@h#I@K@t.#.F *.@.                 @=@Z+[@    ",
"              8+b#5 -#'@i#4#^+c#y@<@/+o+9#{@;@`+,@W+2@2@>@: 2@a.# P ~ N@{@6@D :#D h#a+*+/#y+t.$.f.                5.Y+E. @}     ",
"              T [+'@}+j#]+k#^+|+b+l#{#*#o+e Y+E.J.o. @/ a.) ... D+m#M+$#H@7@H@r@n#r@d#I@J@i+m+h l                 = `+`+[@      ",
"                -#[+8+a#3#)+a#a#*+o#@#p#q#w J.E.O._ a.) ;.m@R@E+i@i@l#(+C+q#C+6+D r#s#_@(@5 )@.#                | 5.[ z w       ",
"                  #+T )+0@    ^#'@<+t#l#F+6.Z+~#O.>@p.l@m@f#R@u#i@v#o#I@w#o#_+:@J@x#r#C +#s#                  J+< [ | .         ",
"                    -#)+5       )@L@L@i+y#,.J.~#h@>@}.N@4@Q Q p#z#/+A#B#;#b+:+i+4 2#m r#r@                p f+Z+E.> +           ",
"                +#.@T 3#H.5#H.H.U.^#5 J@C#w ; O.*@N.2@Y.' P n#D <+D#8#8#M@<+i+E#F#G#j+D :#m r@      n ,.(.;@`+=@; r             ",
"                  h E#m+j )@S .@~+.@T /#S { * ; , / ) !.= p.A+W A#H#H#=+*+8+5 R ^#4 4     x#`@P * A+> f+f+f+;@| |.              ",
"                      h &+5 )@)@I#&+^##+.@  ! ..# ++:.6.= a k.{.^+8#=+c#a#^#j j ^#3 h R   l   ~ K+% > > | } |.                  ",
"                          )@    &+j#j -#i     v -#J#J#&.].l.s.u.'+J#c#8+^#R.k w.&+w.U@                                          ",
"                                  2#H.E#i $+  $+#+8+R.>./.x {.m+-#-#-#}#i w.`.                                                  ",
"                                  A C i C 2#S }##+T H t L.x u Z.Z.$+9+                                                          ",
"                                            s#K@4 E @+^.^.7.u.                                                                  ",
"                                                T@{ c ].N 7.+.                                                                  ",
"                                                  -.|.p t >.                                                                    ",
"                                                    K#u.Y                                                                       ",
"                                                                                                                                "};
