/* XPM */
static char * exitMonkey1_xpm[] = {
"64 64 452 2",
"  	c None",
". 	c #785949",
"+ 	c #BB8B72",
"@ 	c #5D2A0C",
"# 	c #6B3B22",
"$ 	c #56260B",
"% 	c #6C4227",
"& 	c #7B543A",
"* 	c #C6A99A",
"= 	c #8A6859",
"- 	c #653925",
"; 	c #541C02",
"> 	c #5B1A06",
", 	c #722D0C",
"' 	c #773918",
") 	c #7B3C14",
"! 	c #84421C",
"~ 	c #733514",
"{ 	c #6A391A",
"] 	c #B1ABCB",
"^ 	c #D4CCEC",
"/ 	c #B3968B",
"( 	c #664737",
"_ 	c #4B1A04",
": 	c #774627",
"< 	c #875638",
"[ 	c #975936",
"} 	c #8C4A26",
"| 	c #742B02",
"1 	c #853C15",
"2 	c #853C17",
"3 	c #72320D",
"4 	c #C9C7E8",
"5 	c #D7D2EC",
"6 	c #DCD9F3",
"7 	c #4E2305",
"8 	c #955C4B",
"9 	c #D59E84",
"0 	c #EDB59B",
"a 	c #D6A587",
"b 	c #D59C7B",
"c 	c #DA9876",
"d 	c #A45B35",
"e 	c #641F00",
"f 	c #B37D63",
"g 	c #956755",
"h 	c #5F402D",
"i 	c #ECEAFF",
"j 	c #D8CEF3",
"k 	c #6A3313",
"l 	c #CA8B6A",
"m 	c #FEC4A3",
"n 	c #A88265",
"o 	c #977866",
"p 	c #B99982",
"q 	c #CCA693",
"r 	c #C79B83",
"s 	c #ECBB9D",
"t 	c #BA876A",
"u 	c #A2684A",
"v 	c #E9B596",
"w 	c #C7967A",
"x 	c #5E4339",
"y 	c #E5E2FE",
"z 	c #B9B5DC",
"A 	c #D6D3FD",
"B 	c #A78D83",
"C 	c #542917",
"D 	c #BA7C5A",
"E 	c #FEC39C",
"F 	c #A47B64",
"G 	c #EAD5C4",
"H 	c #FFF6E2",
"I 	c #FFF1DC",
"J 	c #FFE3CA",
"K 	c #D4AD93",
"L 	c #E4B49C",
"M 	c #F2CCB5",
"N 	c #D8B7A4",
"O 	c #6D564F",
"P 	c #9793B8",
"Q 	c #ECCCB5",
"R 	c #E8C4A9",
"S 	c #ECD2BB",
"T 	c #D2CBF3",
"U 	c #9C96CA",
"V 	c #5B2C13",
"W 	c #F4B38C",
"X 	c #CEB196",
"Y 	c #F8DBC9",
"Z 	c #D5BAAC",
"` 	c #F4D1BB",
" .	c #B78A74",
"..	c #FDD7B7",
"+.	c #BBB7E7",
"@.	c #E3BCA4",
"#.	c #F5C6A8",
"$.	c #E8BDA6",
"%.	c #E3D6FF",
"&.	c #632A0B",
"*.	c #FDC195",
"=.	c #E3B293",
"-.	c #9A7459",
";.	c #D3A58A",
">.	c #DDB39A",
",.	c #865B43",
"'.	c #AC8976",
").	c #D7B49A",
"!.	c #D7BDB1",
"~.	c #C9C5F5",
"{.	c #CDCBFD",
"].	c #DCB297",
"^.	c #EDB28A",
"/.	c #E9A47C",
"(.	c #F3BC9B",
"_.	c #B99277",
":.	c #B26E49",
"<.	c #FCB48D",
"[.	c #5B250D",
"}.	c #976548",
"|.	c #5C3216",
"1.	c #76502D",
"2.	c #DDA484",
"3.	c #D8AB96",
"4.	c #BCB4E5",
"5.	c #DDDAFF",
"6.	c #DCC5B8",
"7.	c #E49A74",
"8.	c #D9946B",
"9.	c #A97758",
"0.	c #8D4C2F",
"a.	c #672D11",
"b.	c #632402",
"c.	c #AB653C",
"d.	c #F6B796",
"e.	c #552204",
"f.	c #E2AC8B",
"g.	c #88522A",
"h.	c #CB916C",
"i.	c #C6825D",
"j.	c #BBB9EB",
"k.	c #E6AC94",
"l.	c #FBBA8C",
"m.	c #F5A87C",
"n.	c #E18C5E",
"o.	c #E59468",
"p.	c #612707",
"q.	c #6B2C0B",
"r.	c #823609",
"s.	c #FBB285",
"t.	c #F4B383",
"u.	c #FDCBAC",
"v.	c #C88E74",
"w.	c #F6AC87",
"x.	c #DCD4FE",
"y.	c #E79D78",
"z.	c #A35729",
"A.	c #6D2401",
"B.	c #C77B57",
"C.	c #FBBB94",
"D.	c #BD936D",
"E.	c #DBAA8B",
"F.	c #D8865B",
"G.	c #E9966A",
"H.	c #E5CCC3",
"I.	c #E5C9B8",
"J.	c #C9B8AA",
"K.	c #958AC8",
"L.	c #9B92D4",
"M.	c #AAA5D9",
"N.	c #D4CBFD",
"O.	c #974616",
"P.	c #6B1D00",
"Q.	c #FDB693",
"R.	c #FDBC9A",
"S.	c #E9A785",
"T.	c #F3B392",
"U.	c #894516",
"V.	c #8885CA",
"W.	c #ABA4E4",
"X.	c #FFCBA3",
"Y.	c #CCC4FE",
"Z.	c #5C2303",
"`.	c #F2B07E",
" +	c #FFD3AC",
".+	c #FBB9A1",
"++	c #DACDFF",
"@+	c #B2A2F4",
"#+	c #9B8BF4",
"$+	c #8668EC",
"%+	c #CBA389",
"&+	c #653214",
"*+	c #F7C29A",
"=+	c #F7BB8E",
"-+	c #A9AACD",
";+	c #9FA2C3",
">+	c #9788E6",
",+	c #8778E9",
"'+	c #7958E7",
")+	c #7C51F5",
"!+	c #7C4CEC",
"~+	c #7C4CF4",
"{+	c #FFCA9D",
"]+	c #D88D64",
"^+	c #CBC4F4",
"/+	c #786EB4",
"(+	c #4F4895",
"_+	c #796DD6",
":+	c #6B37E6",
"<+	c #8E85DB",
"[+	c #9B99D5",
"}+	c #E3DCFE",
"|+	c #C3BAFD",
"1+	c #8678D8",
"2+	c #A593FB",
"3+	c #AC94FE",
"4+	c #A484FE",
"5+	c #9163FF",
"6+	c #8452FD",
"7+	c #703DDE",
"8+	c #CF965F",
"9+	c #D8A174",
"0+	c #AD9CFF",
"a+	c #9B95E7",
"b+	c #FDF4FF",
"c+	c #EAE8F6",
"d+	c #B3ABF5",
"e+	c #6250B5",
"f+	c #8669D7",
"g+	c #9785F7",
"h+	c #9C74FF",
"i+	c #8B5CFE",
"j+	c #7947F7",
"k+	c #642ADA",
"l+	c #5C2CCC",
"m+	c #622AC9",
"n+	c #4A1BAD",
"o+	c #864926",
"p+	c #B495FF",
"q+	c #B5A4FC",
"r+	c #ECE3FE",
"s+	c #F4F4FD",
"t+	c #ACA7EB",
"u+	c #A888FC",
"v+	c #4D1ABB",
"w+	c #4515AB",
"x+	c #582ABB",
"y+	c #491CA4",
"z+	c #2E0484",
"A+	c #FDAC98",
"B+	c #470500",
"C+	c #570807",
"D+	c #824CFD",
"E+	c #966BFC",
"F+	c #8272BE",
"G+	c #F3ECFF",
"H+	c #FDE0BD",
"I+	c #784B35",
"J+	c #8E603C",
"K+	c #8E2D2C",
"L+	c #A86762",
"M+	c #6B2AF3",
"N+	c #7D4CFC",
"O+	c #B3A4EC",
"P+	c #763C23",
"Q+	c #6D330A",
"R+	c #8B491B",
"S+	c #945324",
"T+	c #834214",
"U+	c #79360A",
"V+	c #7B3205",
"W+	c #833404",
"X+	c #DE8777",
"Y+	c #CB6A56",
"Z+	c #A83437",
"`+	c #881922",
" @	c #F5B7AF",
".@	c #611FE1",
"+@	c #662AF9",
"@@	c #6C34F9",
"#@	c #9979F7",
"$@	c #B59CFE",
"%@	c #7A431B",
"&@	c #7D4115",
"*@	c #9B5729",
"=@	c #8A3B0C",
"-@	c #742601",
";@	c #B64847",
">@	c #591BDB",
",@	c #9474FA",
"'@	c #A99AEA",
")@	c #6538D7",
"!@	c #4415A4",
"~@	c #8C441B",
"{@	c #7B2B01",
"]@	c #CAC4EB",
"^@	c #A79AF6",
"/@	c #A27BFE",
"(@	c #3D1492",
"_@	c #421B8D",
":@	c #320E73",
"<@	c #311269",
"[@	c #2D1263",
"}@	c #822E01",
"|@	c #752F11",
"1@	c #7B53EC",
"2@	c #3B148B",
"3@	c #2C0D6A",
"4@	c #2B0D64",
"5@	c #260D61",
"6@	c #250C5C",
"7@	c #6D2A02",
"8@	c #8C3503",
"9@	c #A2430B",
"0@	c #943B08",
"a@	c #65320A",
"b@	c #331274",
"c@	c #2E116B",
"d@	c #8E3A02",
"e@	c #9C430C",
"f@	c #B15116",
"g@	c #B24C0B",
"h@	c #C25C15",
"i@	c #AC4B0B",
"j@	c #A4490D",
"k@	c #B5AAE7",
"l@	c #C5B8F6",
"m@	c #834EF7",
"n@	c #7446DA",
"o@	c #4D24AC",
"p@	c #35137C",
"q@	c #250D56",
"r@	c #BA540A",
"s@	c #C35C0B",
"t@	c #C75B08",
"u@	c #B55106",
"v@	c #A64506",
"w@	c #8E766C",
"x@	c #9D8273",
"y@	c #B79CFB",
"z@	c #8A67F9",
"A@	c #5322BB",
"B@	c #3E149B",
"C@	c #CB620A",
"D@	c #D56306",
"E@	c #BC5504",
"F@	c #AC4A03",
"G@	c #973D07",
"H@	c #561CCC",
"I@	c #5C29D7",
"J@	c #B38BFF",
"K@	c #D5BAFF",
"L@	c #C8B3FF",
"M@	c #F2E3FF",
"N@	c #EADCFF",
"O@	c #BDA69D",
"P@	c #9C8BFD",
"Q@	c #5926C8",
"R@	c #4619AA",
"S@	c #320D7B",
"T@	c #D4640B",
"U@	c #AA72FF",
"V@	c #743BED",
"W@	c #C4A9FF",
"X@	c #7855F8",
"Y@	c #492A18",
"Z@	c #2E0D74",
"`@	c #2A0E5C",
" #	c #E8B1FF",
".#	c #8B57F9",
"+#	c #E2DFEE",
"@#	c #DBD4F5",
"##	c #782F0C",
"$#	c #CF6104",
"%#	c #6535C8",
"&#	c #7648E8",
"*#	c #8457EE",
"=#	c #E5DCF8",
"-#	c #6C44E9",
";#	c #BD4F05",
">#	c #531DBC",
",#	c #4A15B4",
"'#	c #4A16B7",
")#	c #BCB4FE",
"!#	c #7C63EA",
"~#	c #A54B17",
"{#	c #B34C04",
"]#	c #C35404",
"^#	c #CB5B03",
"/#	c #D15F05",
"(#	c #B6AADB",
"_#	c #9C4308",
":#	c #6A34DC",
"<#	c #8757F7",
"[#	c #D2C5FE",
"}#	c #3A2112",
"|#	c #FCFBFF",
"1#	c #4E25C3",
"2#	c #642AE3",
"3#	c #4D23B6",
"4#	c #9779E8",
"5#	c #C4B9E7",
"6#	c #948BD8",
"7#	c #3B358B",
"8#	c #4C1BB3",
"9#	c #963E11",
"0#	c #652AEB",
"a#	c #451C97",
"b#	c #6526E6",
"c#	c #CBBDFF",
"d#	c #7644FB",
"e#	c #5224B2",
"f#	c #9076D3",
"g#	c #ADA7FA",
"h#	c #9A94F2",
"i#	c #8884E8",
"j#	c #E4C9FF",
"k#	c #A39AE4",
"l#	c #733AF8",
"m#	c #5C24D4",
"n#	c #8E4A16",
"o#	c #926CE4",
"p#	c #5849AA",
"q#	c #551BD2",
"r#	c #541CC3",
"s#	c #272377",
"t#	c #6747C6",
"u#	c #38190D",
"v#	c #511DB4",
"w#	c #8A84D2",
"x#	c #6F54CC",
"y#	c #442622",
"z#	c #5A1DD4",
"A#	c #5418C8",
"B#	c #5A3C30",
"C#	c #3B0C97",
"D#	c #3C1897",
"E#	c #FAE9FE",
"F#	c #8054DF",
"G#	c #5637C9",
"H#	c #5C44C5",
"I#	c #B9B0CF",
"J#	c #C5C5DB",
"K#	c #6A45D8",
"L#	c #3F15A8",
"M#	c #C3B9DC",
"N#	c #7F72ED",
"O#	c #8D83FD",
"P#	c #9C95FC",
"Q#	c #A599DA",
"R#	c #BBB6F7",
"S#	c #EBE0CA",
"                                                                                                                                ",
"                                                                                                                                ",
"                                                                                                                                ",
"                                                                    .     .                                                     ",
"                                                                  + @ # @ $ % &                                                 ",
"                                                          * = - ; > , ' ) ! ~ { & .                                             ",
"                                          ] ^         / ( _ _ : < [ } , | 1 2 3 _ %                                             ",
"                                          4 ^ 5 ^ 6 = 7 $ 8 9 0 a a b c d e e } f g h *                                         ",
"                                          i j 4 4 = _ k l m 0 n o p q r s t u v w r p x                                         ",
"                                        y z A i B C @ D E E + F G H I J K L L f r M N / O                                       ",
"                                P Q R S 4 i T U - V } W E 0 F X Y Z G H ` K  .K J ..I I = /                                     ",
"                            ] +.@.s #.s R $.%.N C &.[ *.E =.o Z = . -.n Y ;. .>.,.& '.R ).& M >.$.@.R !.                        ",
"                        ^ z ~.{.].^././.(.(.#._.@ &.:.<.W =.'.o C # % [.t =.t }.|.: |.: #.1.=.(.^.2.3.@.Z                       ",
"                        4 4.5.6.L /./.7.8.c 9.0.a.b.c.*./.d.;.= |.1.: e.t f.9.< $ # |.< ..g.u h.i.c b ;.N                       ",
"                            j.6.k.^.l.m.n.o.c.p.q.b.r.s.t.W a n % 7 7 1.u.t t w r v.}.3.=.: p.[ o.n.w.2.K                       ",
"                  P 4   z U x.6.L W y.n.n.z.2 A.} B.B./.C.C.m f.a D.D.E.h.h.}.u u.0 < 9 2.D ' A.F.G.7.(.K         H.I.J.        ",
"                  K.L.M.{.i N.Y f.s.o.y.G.O.P.d C.Q.<.R.E m R.d.(.(.(.^.S.C.D } 2.t :.^.T.C./.U.F.F.S.0 ).        Q ` X         ",
"                  V.W.5.  i %.5.k.W 8.7.i.A.1 W W t.^.R.W B.F.w.^.T.T.R.E C.X.R.W C.R.T.E C.E c.d w.0 ).          L #.@.        ",
"                  +.      5.Y.Y.` K L 9 }.Z.[ Q.t.l.t.t.`.B.F.<.R.R.m u. +E E d.d.S.S.X.m E X.h.h..+q             0 T.E.J       ",
"                        y ++@+#+$+H.* q %+&+9.*+*.=+l.l.<.m.F.w.Q.E E E X. +X.m R./.7.R.m X.#.w  .3.            L T.y.v.>.G     ",
"              -+;+      ~.W.>+,+'+)+!+)+~+< }.*+d.C.{+*.l.Q.8.]+t.*.=+{+{+X.{+C.<.7./.X.*+X.#.%+^+  y           ].b h.m u.q G   ",
"              U -+    i /+(+_+,+'+)+~+~+:+'.# u.(.X.X.*.R.C.=+8.7.t.*.*.*+*.*.l.s./.c C.#.L K <+^+  ] ]         %+b X.X.s r Z   ",
"              [+M.  }+|+1+_+2+3+4+5+6+6+~+7+& + u.m C.E {+t.l.`.8+9+t.R.Q.C.T.W W c ^.f.].X 0+a+++b+5.^ c+    F v h.S.S.b $.N Y ",
"      6.I.6.I.L.M.  d+e+f+g+0+3+h+i+j+k+l+m+n+ .L .+*+E *.*.s.s.l.l o+l c k.T.S.D }.t ].I.p+0+q+L.K.^+r+c+s+F e.9.b h.d..+u.%+Y ",
"    Y q ].3.>.K p I.t+(+,+u+3+4+!+~+~+v+w+x+y+z+M L (.R.d.<.<.w.A+A+B+B+B+> > C+B+g $.D+E+p+q+@+F+(+4.r+G+s+[.a.> l b v.k.a %+H+",
"    6.q E.k.b a ;.).q o ,.- # { { # : I+I+J+-.n b b h.c S.Q.<.R.A+A+K+C+C+C+B+C+L+M+M+N+i+u+3+q+@+O+}+}+  @ ~ ' @ P+k. .F r X   ",
"    * Q s (.u.f.f.f.< e.Z.Q+Q+! R+R+R+S+S+R+T+U+V+V+r.W+1 z.:.B.X+.+Y+Z+Z+`+K+8  @.@+@@@@@5+#@$@@+O+++_.k o+P+Z.I+              ",
"      Z @.#.b T.d.T.l ~ Q+~ %@3 ~ ) &@&@&@R+S+*@z.O.O.=@W+-@| A.-@B.A+Y+Z+;@X+.+Y >@+@+@+@i+,@$@q+'@< ~ [ ' &+F                 ",
"          +.J E.f.d.c 3 Z.@ 1.-.p )@x+!@p F < { q.2 ~@1 1 V+A.| {@P.z.w.Q.R.R.0.[ }.9.+ w ;.r 9.g.T+! [ : {                     ",
"          ]@^@` E.(.T.[ ,.4+/@E+!+l+w+(@_@:@<@[@r o+p.' U+V+| V+{@}@-@P.U+T+| A.A., |@|@, 3 ' ! *@d } k &                       ",
"            |+q+@.>.#.].$+1@!+~+~+l+!@(@2@3@4@5@6@5@+ ; 7@V+P.}@8@9@9@9@0@{@-@-@U+o+} } *@*@*@*@&@a@< i                         ",
"            O+|+I.R M q+$+j+N+N+~+l+w+(@_@b@c@6@6@6@6@@ , -@d@e@f@g@h@g@i@j@d@{@A.e &.k k ~ %@: -.O+A i                         ",
"          ^ k@l@!.` Q >+'+~+D+N+m@!+n@o@2@p@3@6@6@q@q@e.| }@j@r@r@s@s@t@r@u@v@d@A.0.-.w@x@i+#@y@q+W.r+                          ",
"            y ++x.N ` #+z@~+D+6+D+)@A@B@(@p@3@6@6@q@q@Z.{@e@i@s@C@C@D@C@s@E@F@G@A.f H@I@:+~+J@K@L@k@M@                          ",
"              x.x.N@O@P@z@N+N+B B :+Q@R@(@S@3@5@6@q@F b.0@i@r@s@C@T@T@T@C@s@u@e@A.< U@m@V@i+/@W@$@O+}+      5                   ",
"              i %.l@d+g+X@N+D+Y@V &.{ J+w Z@3@`@6@q@# A.9@g@h@s@C@T@T@T@C@s@u@j@{@{  #.#k+D+m@$+^@L@++r+  +#]                   ",
"              i @#z k@0+z@X@6+C ~ ##R+T+3 g.p q@q@'.Z.r.v@r@s@C@$#D@T@T@C@s@u@j@V+&+%#m+k+:+&#*#$@%.N@M@G+6 z                   ",
"              c+=#}+|+0+z@-#~+[., -@=@O.S+) k g '.V q.8@g@;#E@C@$#D@T@D@C@s@u@j@V+&.>#,#'#I@&#z@W@%.}+x.z T                     ",
"                  r+)#g+!#1@@.e.3 | W+e@~#~#*@U+Z.Z.| d@g@{#]#t@^#$#D@/#s@E@{#e@V+[.Q@v+Q@~+i+J@'@l@r+M@(#N.                    ",
"            5     d+^@P@g+h+L @ a.q.A.=@~#~#~#O.| V+| e@v@;#]#t@^#/#/#^#s@r@F@_#V+&.H@H@:#<#h+p+[#++b+b+(#T                     ",
"  / }#Y@  j.M.  Y.<+'@N #.=.E.k a.&.%@) =@~#f@~#d@-@V+j@v@{#]#]#^#^#^#t@E@u@i@G@, { k+:+~+i+h+p+++|#  %.^+                      ",
"  ( { &+& M.j.O+^@>+_.s u.d.c q.a.[.}.1#b.~@O.e@d@8@{@d@f@g@;#;#]#]#t@t@E@g@j@d@7@% 2#D+i+<##@$@%.  ]@^+                        ",
"  - : ~ @     j.^@* w h./.c C.B.a.[.,.I@3#e.U+O.W+-@}@0@9@F@{#]#E@]#t@r@{#i@_#8@b.< M+6+5+E+4#@+j                               ",
"  # 2 1 b.    5#6#7#_.u D 7.Q.R.u B+o j+:#8#[.q.U+-@{@9#9@g@{#F@u@E@r@g@i@j@0@W+b.9.0#6+E+3+3+W.@#  [#5#                        ",
"  P+! 1 3 9.z     j./+L w h.S.Q.R.V x@N+&#Q@a## Z.q.-@}@9#G@F@F@{#u@g@i@j@e@d@{@b.b#2#m@#@L@c#U ]@N@l@5#                        ",
"  < ) ~@&@o+j.      a+(+M.t b R.m w * N+d#:#e#S@-.@ 3 {@9#G@G@j@v@i@i@i@e@0@}@-@b.6+J@E+f#++++k@5#N.T @#                        ",
"  n a@S+&@a@  ^@'@g#h#i#i#i#_.#. +].~+D+N+:+x+2@S@% b.A.{@O.O.O._#v@9@G@0@}@{@##k _.j#W@'@%.  r+|+k@M@                          ",
"    a@R+*@Q+k#i#h#g#0+i#i#_+R >.M Q J.6+l#m#A@o@x Y@$ J+q.e U+! n#e@0@8@}@-@{@1 o+& o#K@M@%.5.x.Y.z                             ",
"    < Q+z.T+g.a+h#++)#^@p#7#_+6.!.J.'+~+d#q#r#O }#O n+8#A@= C $ b.7@| {@7@7@V+~@S+%@f+>+'@@+d+k@T                               ",
"      a@S+S+~ k#<+^@|+{.(+s#_+1+g+t#3#-#~+j+w@u#w@>#r#m#r#v+x+v#. V ; b.3 Q+r.U.z.T+9 K@L@q+t+M.6                               ",
"      n k [ g.: )#<+a+g#6#w#g#g#>+x#o@x+l+I@y#O k+:#H@H@z#A#>#v#B@B@t#,.; b.1 O.z.U.n %.[#++x.@#                                ",
"        . : [ } J+d+k#w#A     Y.^@2+4#t#%#y#B#k+V@j+k+H@A#m#>#C#B@D#x#K@,@q.{@O.~#R+9.(#z E#                                    ",
"          & ' z.R+o+w w#++      x.N@N@w@y#x F#n@~+!+l+Q@r#Q@8#x+G#B B H#!#:.{@e@~#U.-.I#J#                                      ",
"            u ) *@S+%@1.-.p L.L.+.w@x }#O j#4+B@)@i+1@K#1#L#R@,@O u#C > Z.7@P.=@O.) n b+b+                                      ",
"              _.: %@o+o+o+' P+{ C Y@B#'@k@  ^@e+!#z@z@!#K#'+!#x# .P+q.~ &.; 3 , ) { *     ] M#                                  ",
"                  _.< : ' ' # I+= ~.Y.d+j.  ++q+0+P@$+N#O#P@P@N#3.v.c ~ 9.}.&+$ V - M.}+  6                                     ",
"                          x.    ~.{.N.)#4.    i )#P#P#2+P#P#P#h#I.k.u.2.$.5.T 4 o 4 5                                           ",
"                                  5#L.Q#4.G+  G+d+a+5.Y.i#h#a+t+)#3.m (.;.4 y                                                   ",
"                                  ^ (#4.(#5#k@R#d+k#>+>+6#R#s+|#|#q m R.s K                                                     ",
"                                            E#M@l@k@W.W.Q#~.      I.f.^.^.%+N                                                   ",
"                                                G+=#i }+%.        S f.E 2.a * O@                                                ",
"                                                                    ;.s w _.'.                                                  ",
"                                                                      Z I.S#                                                    ",
"                                                                                                                                "};
