/* XPM */
static char *f8835de4dc6b46eca6d5331e6efb39ee[] = {
/* columns rows colors chars-per-pixel */
"64 64 245 2 ",
"   c None",
".  c #250D56",
"X  c #250C5C",
"o  c #2A0E5C",
"O  c #280D57",
"+  c #28105B",
"@  c #260D61",
"#  c #2B0D64",
"$  c #2C0D6A",
"%  c #300E6A",
"&  c #2D1263",
"*  c #2E116B",
"=  c #311269",
"-  c #2E0D74",
";  c #320E73",
":  c #320D7B",
">  c #2E1173",
",  c #331274",
"<  c #35137C",
"1  c #39147E",
"2  c #272377",
"3  c #4B3F7D",
"4  c #350C84",
"5  c #380C88",
"6  c #351382",
"7  c #3A1585",
"8  c #3B148B",
"9  c #3B1787",
"0  c #3B0C97",
"q  c #3D1492",
"w  c #3E149B",
"e  c #3C1897",
"r  c #2E0484",
"t  c #3B358B",
"y  c #3F15A8",
"u  c #421B8D",
"i  c #401795",
"p  c #40159B",
"a  c #451C97",
"s  c #482D91",
"d  c #4415A4",
"f  c #451AA3",
"g  c #491CA4",
"h  c #4515AB",
"j  c #4619AA",
"k  c #4A1BAD",
"l  c #4917AF",
"z  c #4A15B4",
"x  c #4C1BB3",
"c  c #4D1ABB",
"v  c #4A16B7",
"b  c #511DB4",
"n  c #531DBC",
"m  c #4813B2",
"M  c #4D24AC",
"N  c #4D23B6",
"B  c #5224B2",
"V  c #5322BB",
"C  c #582ABB",
"Z  c #582CB3",
"A  c #4F4895",
"S  c #5849AA",
"D  c #6250B5",
"F  c #786EB4",
"G  c #605582",
"H  c #4D16C3",
"J  c #541CC3",
"K  c #561CCC",
"L  c #5A1CCD",
"P  c #5418C8",
"I  c #551BD2",
"U  c #5A1DD4",
"Y  c #591BDB",
"T  c #4E25C3",
"R  c #5923C5",
"E  c #5C2CCC",
"W  c #5926C8",
"Q  c #5637C9",
"!  c #5C24D4",
"~  c #5C29D7",
"^  c #5C38D6",
"/  c #622AC9",
"(  c #6535C8",
")  c #642ADA",
"_  c #6A34DC",
"`  c #6538D7",
"'  c #703DDE",
"]  c #5D1FE7",
"[  c #611FE1",
"{  c #5E26E1",
"}  c #642AE3",
"|  c #652AEB",
" . c #6526E6",
".. c #6B37E6",
"X. c #743BED",
"o. c #6B2AF3",
"O. c #662AF9",
"+. c #6C34F9",
"@. c #733AF8",
"#. c #5C44C5",
"$. c #6747C6",
"%. c #6A45D8",
"&. c #7446DA",
"*. c #7357D6",
"=. c #6F54CC",
"-. c #796DD6",
";. c #6C44E9",
":. c #7C4CEC",
">. c #7648E8",
",. c #7B53EC",
"<. c #7958E7",
"1. c #7C4CF4",
"2. c #7644FB",
"3. c #7D4CFC",
"4. c #7947F7",
"5. c #7C51F5",
"6. c #7855F8",
"7. c #7C63EA",
"8. c #7F72ED",
"9. c #8272BE",
"0. c #8669D7",
"q. c #8678D8",
"w. c #9076D3",
"e. c #8457EE",
"r. c #824CFD",
"t. c #834EF7",
"y. c #8452FD",
"u. c #8B5CFE",
"i. c #8757F7",
"p. c #8B57F9",
"a. c #8668EC",
"s. c #8778E9",
"d. c #9779E8",
"f. c #8A67F9",
"g. c #9163FF",
"h. c #966BFC",
"j. c #887BF6",
"k. c #9474FA",
"l. c #9C74FF",
"z. c #9979F7",
"x. c #926CE4",
"c. c #A27BFE",
"v. c #AA72FF",
"b. c #8054DF",
"n. c #9793B8",
"m. c #8885CA",
"M. c #958AC8",
"N. c #9C96CA",
"B. c #8E85DB",
"V. c #8A84D2",
"C. c #948BD8",
"Z. c #9B92D4",
"A. c #9B99D5",
"S. c #A599DA",
"D. c #A9AACD",
"F. c #B1ABCB",
"G. c #AAA5D9",
"H. c #B6AADB",
"J. c #B9B5DC",
"K. c #B9B0CF",
"L. c #8884E8",
"P. c #9788E6",
"I. c #9B95E7",
"U. c #9B8BF4",
"Y. c #9C8BFD",
"T. c #9785F7",
"R. c #9C95FC",
"E. c #9A94F2",
"W. c #8D83FD",
"Q. c #A39AE4",
"!. c #A99AEA",
"~. c #A484FE",
"^. c #A888FC",
"/. c #B38BFF",
"(. c #A593FB",
"). c #AC94FE",
"_. c #AD9CFF",
"`. c #A79AF6",
"'. c #B495FF",
"]. c #B59CFE",
"[. c #B79CFB",
"{. c #A98CEE",
"}. c #ABA4E4",
"|. c #ACA7EB",
" X c #B3A4EC",
".X c #B5AAE7",
"XX c #BCB4E5",
"oX c #BBB9EB",
"OX c #BBB7E7",
"+X c #ADA7FA",
"@X c #B2A2F4",
"#X c #B3ABF5",
"$X c #B5A4FC",
"%X c #BBA2FE",
"&X c #B8A9F6",
"*X c #BCB4FE",
"=X c #BBB6F7",
"-X c #9FA2C3",
";X c #C3B9DC",
":X c #C4B9E7",
">X c #C4A9FF",
",X c #C8B3FF",
"<X c #C3BAFD",
"1X c #CBBDFF",
"2X c #C5B8F6",
"3X c #D5BAFF",
"4X c #C4ABED",
"5X c #E8B1FF",
"6X c #BDC0EC",
"7X c #C5C5DB",
"8X c #CAC4EB",
"9X c #C9C7E8",
"0X c #D4CCEC",
"qX c #D7D2EC",
"wX c #CBC4F4",
"eX c #CCC4FE",
"rX c #CDCBFD",
"tX c #C9C5F5",
"yX c #D2CBF3",
"uX c #D2C5FE",
"iX c #D4CBFD",
"pX c #DACDFF",
"aX c #D8CEF3",
"sX c #DBD4F5",
"dX c #D6D3FD",
"fX c #DCD4FE",
"gX c #DDDAFF",
"hX c #DCD9F3",
"jX c #CCD0F7",
"kX c #E4C9FF",
"lX c #E3D6FF",
"zX c #E3DCFE",
"xX c #EADCFF",
"cX c #E5DCF8",
"vX c #E2DFEE",
"bX c #E5E2FE",
"nX c #ECE3FE",
"mX c #ECEAFF",
"MX c #EAE8F6",
"NX c #F2E3FF",
"BX c #F3ECFF",
"VX c #FAE9FE",
"CX c #FDF4FF",
"ZX c #FCFBFF",
"AX c #F4F4FD",
/* pixels */
"                                                                                                                                ",
"                                                                                                                                ",
"                                                                                                                                ",
"                                                                                                                                ",
"                                                                                                                                ",
"                                                                                                                                ",
"                                          F.0X                          lXwX2XpX                                                ",
"                                          9X0XqX0XhX          dX6X8XtXyX:XG.G.XXiXyXhX                                          ",
"                                          mXaX9X9X9X    nXlXfXI.q.V.Z.wX8X;X:X0X8XXXH.                                          ",
"                                        bXJ.dXmX    xXpX@XP.q.U.U.U.1X            zX.XQ.G.                                      ",
"                                n.0XAX9X9XmXyXN.1XpX0.*.k.7.#.,XVXNXxXCXVXVX          n.G F.                                    ",
"                            F.OXbXiXwXgX  BXlX3X%X^.>.;.;.^ Q a.d.d.P.d.0.w.xX                                                  ",
"                        0XJ.tXrXiXeXuX  zX&X(.z.f.u.2...;.` T Q ` ` ` ` &.&.{.4XCXxXJ.mX                                        ",
"                        9XXXgXiXwXeXnX1X$X0.%.` 4.2.....` E N x h c c H ....( =.S.H.:XxX                                        ",
"                            oXtXzX  xXP.7.^ 4.3.3.3.>.( g q 5 4 0 0 0 h H { E Z 1 F lX                                          ",
"                  n.9X  J.N.fXgXcXmXNX0.%.3.2.r.r.' B 5 4 4 4 5 0 Z b n } | u.:.w S 9.yX                                        ",
"                  M.Z.G.rXmXiXwXXX}.{.^.l.y.3.3.~ x f 8 4 4 5 M / ) ) U @.u.u.g.l.^.{.lX                                        ",
"                  m.}.gX  mXlXgXlX,X).l.g.3.4.t.N 0 a a 4 q g b J ! ~ { 2.y.y.u.l.a.x.lX  J.7X  MXMX                            ",
"                  OX      gXeXeXuX).k.,.1.1...( g 5 u u 5 w j h z c J ! +.@.+.2.1.>.*.>XpXS.J.ZX  ZXbX                          ",
"                        bXpX@XU.a.<.,.,.5.5.( d q 6 < < q g h n b x v H { o.O.+.g.g.<.~.].Q.#XgXBX                              ",
"              D.-X      tX}.P.s.<.5.:.5.1.;.( g 8 < - : u g l T V x z m U | O.+.p.g.f.^.).U.P.V.wX  bX                          ",
"              N.D.    mXF A -.s.<.5.1.1...T ( $.a ; ; 1 8 w h h d d h m I | o.o.r.y.g./.'._.(.B.wX  F.F.                        ",
"              A.G.  zX<Xq.-.(.).~.g.y.y.1.' C g 8 : ; 6 9 q f w w p k c K  .| o.o.@.t.c.'.%X_.I.pXCXgX0XMX                      ",
"              Z.G.  #XD 0.T._.).l.u.4.) E / k 5 4 9 < < u q q p q q j v H I Y  .o.+.X.g.^.'._.$XZ.M.wXnXMXAX                    ",
"            rXA.G.  |.A s.^.).~.:.1.1.c h C g r 8 7 1 6 7 8 q q 8 q h v J P L U | o.| r.h.'.$X@X9.A XXnXBXAX                    ",
"          XXV.|.tX  eXB.).].%X~.e.t.:.V b ( Z 8 7 7 1 1 7 8 q q 8 q d x n J L L  .o.o.3.u.^.).$X@X XzXzX                        ",
"          G.m.!.oX  Z.s w.%X'.c.:.1.>.x p a u : < , < < 6 7 8 q q q w j x n n J L [ O.+.+.g.z.].@X XpXxX                        ",
"          oXB.B.G.  uXM.{.%X%X^.e.t.>.B q 4 < , $ * * > < < 7 8 8 8 q d k b n J K Y O.O.O.u.k.].$X!.uXBX                        ",
"          OXq.q.}.  pX X%X[.'.~.:.` C d 8 ; ; * @ @ # $ - - < < 1 6 8 p k V J K U  .O.O.+.g.c.%X,XpXzXnX                        ",
"          8X`.I.}.  fX`.{.~.c.h.:.E h q u ; = & X @ @ # $ $ ; ; , 1 8 q j x n J I ] ] O...u.c.].%XuXlXcX                        ",
"            <X$XwX  pX[.a.,.:.1.1.E d q 8 $ # @ X @ @ @ # # & & ; < 8 q w d k x J U Y } ..i.c.'.]. XpXmX                        ",
"             X<XdX  pX$Xa.4.3.3.1.E h q u , * X X X X X & & & & ; < 8 q q w d l J K P ) _ e.c.'.%X XdXmX                        ",
"          0X.X2XfX  uXP.<.1.r.3.t.:.&.M 8 < $ X X . . . O O # & ; < 6 8 8 i x J K K P ) ..u.z.[.$X}.nX                          ",
"            bXpXfX  uXU.f.1.r.y.r.` V w q < $ X X . . O O o # # % , : 6 7 i c K P K K ~ ..1./.3X,X.XNX                          ",
"              fXfXxX<XY.f.3.3.3.r...W j q : $ @ X . . + o @ @ @ # = - 6 9 p n K W >.v.t.X.u.c.>X]. XzX      qX                  ",
"              mXlX2X#XT.6.3.r.3.r.1.>.B 8 - $ o X . X X @ @ @ @ # * ; 6 8 p x H c h.5Xp.) r.t.a.`.,XpXnX  vXF.                  ",
"              mXsXJ..X_.f.6.y.r.3.t.>.M 8 < * . . . X X @ @ @ # $ > > 1 9 q l v J / ( / ) ..>.e.].lXxXNXBXhXJ.                  ",
"              MXcXzX<X_.f.;.1.4.3.1.>.B 8 - # X . . X X X @ @ @ > < < 6 6 q x J J L n z v ~ >.f.>XlXzXfXJ.yX                    ",
"                  nX*XT.7.,.y.r.r.r.>.B 8 - # + . . X X X X X @ > 6 6 7 7 i x R K P W c W 1.u./.!.2XnXNXH.iX                    ",
"            qX    #X`.Y.T.l.t.r.r.r.>.N q < * . O . X X @ X X @ > 6 6 8 8 w x J K K K K _ i.l.'.uXpXCXCXH.yX                    ",
"          oXG.  eXB.!.uX>X/.p.4.r.3.4.c w : $ o . . X X X X + X * 1 9 q w j n K U I ) ..1.u.l.'.pXZX  lXwX                      ",
"        D.G.oX X`.P.1XCX$Xz.e.t.3.3.1.T w 4 ; # O . O X X & & + * , 8 q d V R K I  .} r.u.i.z.].lX  8XwX                        ",
"              oX`.q.=XBX9.s %.t.t.1.3.~ N q : @ o . X X @ & = & # , 8 w j V R P Y ] o.y.g.h.d.@XaX                              ",
"              :XC.t F A.<X,Xf.1.t.1.1.4._ x 9 ; # X X @ $ * , , ; 1 q g k n J K Y ] | y.h.).).}.sX  uX:X                        ",
"            J.    oXF A dXnXf.>.,.>.1.3.>.W a : # # $ , ; < 1 < 7 8 f B V n J !  . .} t.z.,X1XN.8XxX2X:X                        ",
"            oX      I.A G.eXj.h.h.i.1.3.2._ B : $ $ , 7 7 9 8 8 i w d V R J J K } y./.h.w.pXpX.X:XiXyXsX                        ",
"              `.!.+XE.L.L.L._.).[.l.1.r.3...C 8 : ; 1 9 8 q i p d h v J K K L U _ v.kX>X!.lX  nX<X.XNX                          ",
"            Q.L.E.+X_.L.L.-.L.U.].h.>.y.@.! V M u 4 4 5 0 0 p d h n R K I I Y ! _ &.x.3XNXlXgXfXeXJ.                            ",
"              I.E.pX*X`.S t -.L.z.a.<.1.2.I J V B B k x V l 0 B b n R W I Y  ...e.x.0.P.!.@X#X.XyX                              ",
"              Q.B.`.<XrXA 2 -.q.T.$.N ;.1.4._ J n n J ! J c C b V R x v ~ } ~ t.3XkXkX3X,X$X|.G.hX                              ",
"                *XB.I.+XC.V.+X+XP.=.M C E ~ ) I ) _ K K U P n b w w $./.e.E e.c.kX  VXlXuXpXfXsX                                ",
"                  #XQ.V.dX    eX`.(.d.$.( E ) ) X.4.) K P ! n 0 w e =.3Xk.=.'.[.,X3XiXH.J.VX                                    ",
"                    *XV.pX      fXxXxX$X{.x.b.&.1.:.E W J W x C Q <.*.#.7.T._.$X2X:X:XK.7X                                      ",
"                J.oXQ.C.Z.A.Z.Z.OXeXpX,X&XkX~.w ` u.,.%.T y j k.(.8.j.j.Y.(.$XS.3 N.nXCXCX                                      ",
"                  G.S.|.iXfX.XoXmXoXQ.!..X  `.D 7.f.f.7.%.<.7.=.*.W.W.s.P.I.pXzXeX2X2X    F.;X                                  ",
"                      G.tXpXfXfXjXtXeX#XoX  pX$X_.Y.a.8.W.Y.Y.8.-.j.s.L.+XeXiXiXeXwXG.zX  hX                                    ",
"                          fX    tXrXiX*XXX    mX*XR.R.(.R.R.R.E.U.R.L.I.eXgXyX9XtX9XqX                                          ",
"                                  :XZ.S.XXBX  BX#XI.gXeXL.E.I.|.*X*X*X=XXX9XbX                                                  ",
"                                  0XH.XXH.:X.X=X#XQ.P.P.C.=XAXZXZXBXCX                                                          ",
"                                            VXNX2X.X}.}.S.tX                                                                    ",
"                                                BXcXmXzXlX                                                                      ",
"                                                                                                                                ",
"                                                                                                                                ",
"                                                                                                                                "
};
