/* XPM */
static char * monkey1_xpm[] = {
"64 64 241 2",
"  	c None",
". 	c #785949",
"+ 	c #BB8B72",
"@ 	c #5D2A0C",
"# 	c #6B3B22",
"$ 	c #56260B",
"% 	c #6C4227",
"& 	c #7B543A",
"* 	c #C6A99A",
"= 	c #8A6859",
"- 	c #653925",
"; 	c #541C02",
"> 	c #5B1A06",
", 	c #722D0C",
"' 	c #773918",
") 	c #7B3C14",
"! 	c #84421C",
"~ 	c #733514",
"{ 	c #6A391A",
"] 	c #B3968B",
"^ 	c #664737",
"/ 	c #4B1A04",
"( 	c #774627",
"_ 	c #875638",
": 	c #975936",
"< 	c #8C4A26",
"[ 	c #742B02",
"} 	c #853C15",
"| 	c #853C17",
"1 	c #72320D",
"2 	c #4E2305",
"3 	c #955C4B",
"4 	c #D59E84",
"5 	c #EDB59B",
"6 	c #D6A587",
"7 	c #D59C7B",
"8 	c #DA9876",
"9 	c #A45B35",
"0 	c #641F00",
"a 	c #B37D63",
"b 	c #956755",
"c 	c #5F402D",
"d 	c #6A3313",
"e 	c #CA8B6A",
"f 	c #FEC4A3",
"g 	c #A88265",
"h 	c #977866",
"i 	c #B99982",
"j 	c #CCA693",
"k 	c #C79B83",
"l 	c #ECBB9D",
"m 	c #BA876A",
"n 	c #A2684A",
"o 	c #E9B596",
"p 	c #C7967A",
"q 	c #5E4339",
"r 	c #A78D83",
"s 	c #542917",
"t 	c #BA7C5A",
"u 	c #FEC39C",
"v 	c #A47B64",
"w 	c #EAD5C4",
"x 	c #FFF6E2",
"y 	c #FFF1DC",
"z 	c #FFE3CA",
"A 	c #D4AD93",
"B 	c #E4B49C",
"C 	c #F2CCB5",
"D 	c #D8B7A4",
"E 	c #6D564F",
"F 	c #ECCCB5",
"G 	c #E8C4A9",
"H 	c #ECD2BB",
"I 	c #5B2C13",
"J 	c #F4B38C",
"K 	c #CEB196",
"L 	c #F8DBC9",
"M 	c #D5BAAC",
"N 	c #F4D1BB",
"O 	c #B78A74",
"P 	c #FDD7B7",
"Q 	c #E3BCA4",
"R 	c #F5C6A8",
"S 	c #E8BDA6",
"T 	c #632A0B",
"U 	c #FDC195",
"V 	c #E3B293",
"W 	c #9A7459",
"X 	c #D3A58A",
"Y 	c #DDB39A",
"Z 	c #865B43",
"` 	c #AC8976",
" .	c #D7B49A",
"..	c #D7BDB1",
"+.	c #DCB297",
"@.	c #EDB28A",
"#.	c #E9A47C",
"$.	c #F3BC9B",
"%.	c #B99277",
"&.	c #B26E49",
"*.	c #FCB48D",
"=.	c #5B250D",
"-.	c #976548",
";.	c #5C3216",
">.	c #76502D",
",.	c #DDA484",
"'.	c #D8AB96",
").	c #DCC5B8",
"!.	c #E49A74",
"~.	c #D9946B",
"{.	c #A97758",
"].	c #8D4C2F",
"^.	c #672D11",
"/.	c #632402",
"(.	c #AB653C",
"_.	c #F6B796",
":.	c #552204",
"<.	c #E2AC8B",
"[.	c #88522A",
"}.	c #CB916C",
"|.	c #C6825D",
"1.	c #E6AC94",
"2.	c #FBBA8C",
"3.	c #F5A87C",
"4.	c #E18C5E",
"5.	c #E59468",
"6.	c #612707",
"7.	c #6B2C0B",
"8.	c #823609",
"9.	c #FBB285",
"0.	c #F4B383",
"a.	c #FDCBAC",
"b.	c #C88E74",
"c.	c #F6AC87",
"d.	c #E79D78",
"e.	c #A35729",
"f.	c #6D2401",
"g.	c #C77B57",
"h.	c #FBBB94",
"i.	c #BD936D",
"j.	c #DBAA8B",
"k.	c #D8865B",
"l.	c #E9966A",
"m.	c #E5CCC3",
"n.	c #E5C9B8",
"o.	c #C9B8AA",
"p.	c #974616",
"q.	c #6B1D00",
"r.	c #FDB693",
"s.	c #FDBC9A",
"t.	c #E9A785",
"u.	c #F3B392",
"v.	c #894516",
"w.	c #FFCBA3",
"x.	c #5C2303",
"y.	c #F2B07E",
"z.	c #FFD3AC",
"A.	c #FBB9A1",
"B.	c #CBA389",
"C.	c #653214",
"D.	c #F7C29A",
"E.	c #F7BB8E",
"F.	c #FFCA9D",
"G.	c #D88D64",
"H.	c #CF965F",
"I.	c #D8A174",
"J.	c #864926",
"K.	c #FDAC98",
"L.	c #470500",
"M.	c #570807",
"N.	c #FDE0BD",
"O.	c #784B35",
"P.	c #8E603C",
"Q.	c #8E2D2C",
"R.	c #A86762",
"S.	c #763C23",
"T.	c #6D330A",
"U.	c #8B491B",
"V.	c #945324",
"W.	c #834214",
"X.	c #79360A",
"Y.	c #7B3205",
"Z.	c #833404",
"`.	c #DE8777",
" +	c #CB6A56",
".+	c #A83437",
"++	c #881922",
"@+	c #F5B7AF",
"#+	c #7A431B",
"$+	c #7D4115",
"%+	c #9B5729",
"&+	c #8A3B0C",
"*+	c #742601",
"=+	c #B64847",
"-+	c #8C441B",
";+	c #7B2B01",
">+	c #822E01",
",+	c #752F11",
"'+	c #6D2A02",
")+	c #8C3503",
"!+	c #A2430B",
"~+	c #943B08",
"{+	c #65320A",
"]+	c #8E3A02",
"^+	c #9C430C",
"/+	c #B15116",
"(+	c #B24C0B",
"_+	c #C25C15",
":+	c #AC4B0B",
"<+	c #A4490D",
"[+	c #BA540A",
"}+	c #C35C0B",
"|+	c #C75B08",
"1+	c #B55106",
"2+	c #A64506",
"3+	c #8E766C",
"4+	c #9D8273",
"5+	c #CB620A",
"6+	c #D56306",
"7+	c #BC5504",
"8+	c #AC4A03",
"9+	c #973D07",
"0+	c #BDA69D",
"a+	c #D4640B",
"b+	c #492A18",
"c+	c #782F0C",
"d+	c #CF6104",
"e+	c #BD4F05",
"f+	c #A54B17",
"g+	c #B34C04",
"h+	c #C35404",
"i+	c #CB5B03",
"j+	c #D15F05",
"k+	c #9C4308",
"l+	c #3A2112",
"m+	c #963E11",
"n+	c #8E4A16",
"o+	c #38190D",
"p+	c #442622",
"q+	c #5A3C30",
"r+	c #EBE0CA",
"                                                                                                                                ",
"                                                                                                                                ",
"                                                                                                                                ",
"                                                                    .     .                                                     ",
"                                                                  + @ # @ $ % &                                                 ",
"                                                          * = - ; > , ' ) ! ~ { & .                                             ",
"                                                      ] ^ / / ( _ : < , [ } | 1 / %                                             ",
"                                                    = 2 $ 3 4 5 6 6 7 8 9 0 0 < a b c *                                         ",
"                                                  = / d e f 5 g h i j k l m n o p k i q                                         ",
"                                                r s @ t u u + v w x y z A B B a k C D ] E                                       ",
"                                  F G H         - I < J u 5 v K L M w x N A O A z P y y = ]                                     ",
"                                Q l R l G S   D s T : U u V h M = . W g L X O Y Z & ` G  .& C Y S Q G ..                        ",
"                                +.@.#.#.$.$.R %.@ T &.*.J V ` h s # % =.m V m -.;.( ;.( R >.V $.@.,.'.Q M                       ",
"                              ).B #.#.!.~.8 {.].^./.(.U #._.X = ;.>.( :.m <.{._ $ # ;._ P [.n }.|.8 7 X D                       ",
"                              ).1.@.2.3.4.5.(.6.7./.8.9.0.J 6 g % 2 2 >.a.m m p k b.-.'.V ( 6.: 5.4.c.,.A                       ",
"                              ).B J d.4.4.e.| f.< g.g.#.h.h.f <.6 i.i.j.}.}.-.n a.5 _ 4 ,.t ' f.k.l.!.$.A         m.n.o.        ",
"                              L <.9.5.d.l.p.q.9 h.r.*.s.u f s._.$.$.$.@.t.h.t < ,.m &.@.u.h.#.v.k.k.t.5  .        F N K         ",
"                                1.J ~.!.|.f.} J J 0.@.s.J g.k.c.@.u.u.s.u h.w.s.J h.s.u.u h.u (.9 c.5  .          B R Q         ",
"                                N A B 4 -.x.: r.0.2.0.0.y.g.k.*.s.s.f a.z.u u _._.t.t.w.f u w.}.}.A.j             5 u.j.z       ",
"                                  m.* j B.C.{.D.U E.2.2.*.3.k.c.r.u u u w.z.w.f s.#.!.s.f w.R p O '.            B u.d.b.Y w     ",
"                                          _ -.D._.h.F.U 2.r.~.G.0.U E.F.F.w.F.h.*.!.#.w.D.w.R B.                +.7 }.f a.j w   ",
"                                          ` # a.$.w.w.U s.h.E.~.!.0.U U D.U U 2.9.#.8 h.R B A                   B.7 w.w.l k M   ",
"                                            & + a.f h.u F.0.2.y.H.I.0.s.r.h.u.J J 8 @.<.+.K                   v o }.t.t.7 S D L ",
"      ).n.).n.                                O B A.D.u U U 9.9.2.e J.e 8 1.u.t.t -.m +.n.                  v :.{.7 }._.A.a.B.L ",
"    L j +.'.Y A i n.                            C B $.s._.*.*.c.K.K.L.L.L.> > M.L.b S                       =.^.> e 7 b.1.6 B.N.",
"    ).j j.1.7 6 X  .j h Z - # { { # ( O.O.P.W g 7 7 }.8 t.r.*.s.K.K.Q.M.M.M.L.M.R.                        @ ~ ' @ S.1.O v k K   ",
"    * F l $.a.<.<.<._ :.x.T.T.! U.U.U.V.V.U.W.X.Y.Y.8.Z.} e.&.g.`.A. +.+.+++Q.3 @+                    %.d J.S.x.O.              ",
"      M Q R 7 u._.u.e ~ T.~ #+1 ~ ) $+$+$+U.V.%+e.p.p.&+Z.*+[ f.*+g.K. +.+=+`.A.L                   _ ~ : ' C.v                 ",
"            z j.<._.8 1 x.@ >.W i       i v _ { 7.| -+} } Y.f.[ ;+q.e.c.r.s.s.].: -.{.+ p X k {.[.W.! : ( {                     ",
"              N j.$.u.: Z                       k J.6.' X.Y.[ Y.;+>+*+q.X.W.[ f.f., ,+,+, 1 ' ! %+9 < d &                       ",
"                Q Y R +.                            + ; '+Y.q.>+)+!+!+!+~+;+*+*+X.J.< < %+%+%+%+$+{+_                           ",
"                n.G C                                 @ , *+]+^+/+(+_+(+:+<+]+;+f.0 T d d ~ #+( W                               ",
"                ..N F                                 :.[ >+<+[+[+}+}+|+[+1+2+]+f.].W 3+4+                                      ",
"                  D N                                 x.;+^+:+}+5+5+6+5+}+7+8+9+f.a                                             ",
"                    0+        r r                   v /.~+:+[+}+5+a+a+a+5+}+1+^+f._                                             ",
"                              b+I T { P.p           # f.!+(+_+}+5+a+a+a+5+}+1+<+;+{                                             ",
"                              s ~ c+U.W.1 [.i     ` x.8.2+[+}+5+d+6+a+a+5+}+1+<+Y.C.                                            ",
"                              =., *+&+p.V.) d b ` I 7.)+(+e+7+5+d+6+a+6+5+}+1+<+Y.T                                             ",
"                            Q :.1 [ Z.^+f+f+%+X.x.x.[ ]+(+g+h+|+i+d+6+j+}+7+g+^+Y.=.                                            ",
"                            B @ ^.7.f.&+f+f+f+p.[ Y.[ ^+2+e+h+|+i+j+j+i+}+[+8+k+Y.T                                             ",
"  ] l+b+              D R V j.d ^.T #+) &+f+/+f+]+*+Y.<+2+g+h+h+i+i+i+|+7+1+:+9+, {                                             ",
"  ^ { C.&           %.l a._.8 7.^.=.-.  /.-+p.^+]+)+;+]+/+(+e+e+h+h+|+|+7+(+<+]+'+%                                             ",
"  - ( ~ @         * p }.#.8 h.g.^.=.Z     :.X.p.Z.*+>+~+!+8+g+h+7+h+|+[+g+:+k+)+/._                                             ",
"  # | } /.          %.n t !.r.s.n L.h       =.7.X.*+;+m+!+(+g+8+1+7+[+(+:+<+~+Z./.{.                                            ",
"  S.! } 1 {.          B p }.t.r.s.I 4+        # x.7.*+>+m+9+8+8+g+1+(+:+<+^+]+;+/.                                              ",
"  _ ) -+$+J.              m 7 s.f p *           W @ 1 ;+m+9+9+<+2+:+:+:+^+~+>+*+/.                                              ",
"  g {+V.$+{+                %.R z.+.              % /.f.;+p.p.p.k+2+!+9+~+>+;+c+d %.                                            ",
"    {+U.%+T.                G Y C F o.          q b+$ P.7.0 X.! n+^+~+)+>+*+;+} J.&                                             ",
"    _ T.e.W.[.                )...o.          E l+E       = s $ /.'+[ ;+'+'+Y.-+V.#+                                            ",
"      {+V.V.~                               3+o+3+              . I ; /.1 T.8.v.e.W.4                                           ",
"      g d : [.(                             p+E                       Z ; /.} p.e.v.g                                           ",
"        . ( : < P.                        p+q+                            7.;+p.f+U.{.                                          ",
"          & ' e.U.J.p                 3+p+q                       r r     &.;+^+f+v.W                                           ",
"            n ) %+V.#+>.W i       3+q l+E                       E o+s > x.'+q.&+p.) g                                           ",
"              %.( #+J.J.J.' S.{ s b+q+                          O S.7.~ T ; 1 , ) { *                                           ",
"                  %._ ( ' ' # O.=                               '.b.8 ~ {.-.C.$ I -                                             ",
"                                                                n.1.a.,.S       h                                               ",
"                                                                  '.f $.X                                                       ",
"                                                                  j f s.l A                                                     ",
"                                                                  n.<.@.@.B.D                                                   ",
"                                                                  H <.u ,.6 * 0+                                                ",
"                                                                    X l p %.`                                                   ",
"                                                                      M n.r+                                                    ",
"                                                                                                                                "};
