/* XPM */
static char *_3b3d050e6bf4949ab6efb93b93a77cc[] = {
/* columns rows colors chars-per-pixel */
"64 64 154 2 ",
"   c None",
".  c #401D00",
"X  c #442301",
"o  c #4E2F02",
"O  c #502F03",
"+  c #563A03",
"@  c #5D3F04",
"#  c #674306",
"$  c #684A06",
"%  c #835E1F",
"&  c #8B6E0C",
"*  c #947010",
"=  c #9D741C",
"-  c #AA7C13",
";  c #926C23",
":  c #AC8C13",
">  c #B78716",
",  c #B69714",
"<  c #B69C13",
"1  c #C09C17",
"2  c #C9971B",
"3  c #CE9B19",
"4  c #D7A21D",
"5  c #DBA51D",
"6  c #D0AC1A",
"7  c #CDB218",
"8  c #E6AF1E",
"9  c #E7B01E",
"0  c #E8B11F",
"q  c #E0BB1D",
"w  c #C99926",
"e  c #C79B2F",
"r  c #C49932",
"t  c #DAA725",
"y  c #D1A12D",
"u  c #DAA728",
"i  c #D4A637",
"p  c #E6AF20",
"a  c #E7B021",
"s  c #EDB522",
"d  c #EDB924",
"f  c #E5B12B",
"g  c #ECB62C",
"h  c #EEB92C",
"j  c #F0B722",
"k  c #F4BB23",
"l  c #F8BF24",
"z  c #F3BC2A",
"x  c #EDB933",
"c  c #EEBC3B",
"v  c #F1BC33",
"b  c #F0BE3D",
"n  c #E1C51C",
"m  c #EAC41F",
"M  c #E5CC1C",
"N  c #EDCA1E",
"B  c #EDC420",
"V  c #E4CC27",
"C  c #F3C422",
"Z  c #FDC326",
"A  c #F3C921",
"S  c #F3C42B",
"D  c #FEC52B",
"F  c #F6C92D",
"G  c #EEC43E",
"H  c #FEC634",
"J  c #FDC835",
"K  c #F7C33F",
"L  c #FDC63A",
"P  c #FEC83B",
"I  c #D8B04E",
"U  c #EFBE40",
"Y  c #F0BF41",
"T  c #F2C144",
"R  c #F9C740",
"E  c #F2CC42",
"W  c #FECA44",
"Q  c #F4C54B",
"!  c #FBCA4B",
"~  c #FCCA4B",
"^  c #FECC48",
"/  c #FAC94C",
"(  c #FFCC4C",
")  c #FFCD4C",
"_  c #FFCD4D",
"`  c #FDCC4F",
"'  c #FFCD4E",
"]  c #FECD4F",
"[  c #FECC4C",
"{  c #F3C550",
"}  c #F5C750",
"|  c #F4C652",
" . c #F6C853",
".. c #F7CA57",
"X. c #F6C953",
"o. c #FBCC53",
"O. c #FFCE50",
"+. c #FFCE51",
"@. c #FDCD52",
"#. c #FFCE52",
"$. c #FFCE53",
"%. c #FACB54",
"&. c #F8CC55",
"*. c #FACC57",
"=. c #FECE54",
"-. c #FFCF54",
";. c #FFCF55",
":. c #FECF56",
">. c #FECF57",
",. c #FDCD53",
"<. c #F6CA58",
"1. c #F8CB5A",
"2. c #FACD58",
"3. c #FBCE59",
"4. c #F9CD5B",
"5. c #FBCE5B",
"6. c #FCCF59",
"7. c #FACD5A",
"8. c #FFD056",
"9. c #FFD057",
"0. c #FFD056",
"q. c #FED059",
"w. c #FDD05B",
"e. c #FFD05A",
"r. c #FFD15B",
"t. c #FFD15C",
"y. c #FED15D",
"u. c #FFD15D",
"i. c #FED25E",
"p. c #FFD25F",
"a. c #FFD35F",
"s. c #FED15C",
"d. c #FACF60",
"f. c #FBD162",
"g. c #FCD060",
"h. c #FED261",
"j. c #FFD361",
"k. c #FCD163",
"l. c #FDD364",
"z. c #FDD366",
"x. c #FFD464",
"c. c #FFD465",
"v. c #FFD566",
"b. c #FFD567",
"n. c #FDD262",
"m. c #FFD568",
"M. c #FFD668",
"N. c #FFD669",
"B. c #FFD66A",
"V. c #FFD76B",
"C. c #FFD66C",
"Z. c #FFD76C",
"A. c #FFD76D",
"S. c #FDD468",
/* pixels */
"                                                                                                                                ",
"                                                                                                                                ",
"                                                                                                                                ",
"                                                                                                                                ",
"                                                                                                                                ",
"                                                                                                                                ",
"                                                                                                                                ",
"                                                                                                                                ",
"                                                                                                                                ",
"                                                                                                                                ",
"                                                                                                                                ",
"                                                                                                                                ",
"                                                                                                                                ",
"                          . . . X                                                                                               ",
"                          X o + $ *                                                                                             ",
"                        O @ & : , 7 n N A C                                                                                     ",
"                        < 1 6 q d B M N N N N A D ^ j.                                                                          ",
"                        m C B N A A   N A A A F D L -.c.                                                                        ",
"                        A A A M A D   E S Z D P R H L -.c.                                                                      ",
"                      M A D F V N J q.&.c j D W o.Q H L $.c.                                                                    ",
"                      B A J R G d D W / c s z H ` 5.T l L 8.c.                                                                  ",
"                    s l D ` 6.Q d l D W T c s Z W q.} h z L -.c.                                                                ",
"                    j Z D ` j.1.x k Z P ` Q g z H $.5.Q h l P $.u.z.                                                            ",
"                  s j Z Z P q.d.b d Z D ` &.b z Z W u.d.T z Z L W -.c.                                                          ",
"                  s j Z Z D ` 5.c s l Z W 6. .z l H -.z...x k Z D P 8.c.A.                                                      ",
"                  s j Z Z Z P ! b d l Z P -.5.c z Z W u.j.T d j Z D P q.c.S.                                                    ",
"                  0 s l Z Z P ~ Q g k Z D W o.Q z l D ^ q.Q x s j Z D P $.u.S.A.                                                ",
"                  9 0 j Z Z D W &.c d l Z H W Q g s l J $.j.Q x s j Z D H W ` u.S.S.S.S.A.A.A.A.A.A.A.A.A.A.                    ",
"                    0 j Z Z Z P $.Q g z Z D P o.Q c l D W u.f.{ x 0 j l Z D H W $.-.-.-.u.S.S.S.S.S.S.S.S.S.c.                  ",
"                      s l Z Z D W X.x d l D J $.5.Q z l H ^ u.f.} x s s Z Z Z D H J J P W $.$.$.$.$.$.$.$.$.` W P K i %         ",
"                      0 l Z Z D L $.T h l Z D P -.&.Y h l D W u.u. .T h z l Z Z Z Z Z Z D D D D D D D D D D D D D z u =         ",
"                      9 j Z Z Z J $.&.b z Z Z D P -.X.b h l D W -.u.j.Q x g z l Z Z Z Z Z Z Z Z Z Z Z Z Z Z Z l l j s 4         ",
"                        s l Z Z D W q.Q x j Z Z D P $.1.b d l D H ~ u.j...T x g z z z l Z Z Z Z Z l d d d j j s 0 0             ",
"                        0 l Z Z D P u.1.c s Z Z Z D ` u.Q g s l Z H W ^ u.5... . .T x g d s s s j s 0 0 0 0                     ",
"                        8 s l Z Z D ^ u.} x z Z Z Z P $.&.U g s l Z D H W W ` 6.u.5... .T x g g                                 ",
"                          0 j Z Z D J q.f.Q h Z Z Z D P ` X.U x z l Z Z D D J W ^ ` q.q.&. .<.<.f.                              ",
"                          0 s l Z Z D ` j.5.h k Z Z Z D P $.&.Q c h l Z Z Z Z Z D H W W ^ -.j.j.u.` W W T e                     ",
"                            0 s l Z Z P 8.5.c h k Z Z Z D P 8.j.<.T v z l Z Z Z Z Z Z Z D J W W W H Z Z a - #                   ",
"                            8 9 s l Z D W q.5.Q g z l Z Z D P -.u.u.&.b z l Z Z Z Z Z Z Z D D D D Z Z l p 2                     ",
"                              9 0 k Z Z D W 6.&.U g d j Z Z D J W $.j.1.T x z l Z Z Z Z Z Z Z l l j s s 9                       ",
"                                0 s Z Z Z D W -.5.} x s j Z Z Z D P $.-.5.} T v d s j l l j j s j                               ",
"                                8 0 j l Z Z D W -.6.Q x s j l Z Z D J W -.$.X.Q Y b x d                                         ",
"                                  0 s s l Z Z D J ^ $.} U x d k Z Z Z D J P W ` ! / Q                                           ",
"                                    8 9 s l Z Z Z D W q.5.Q c x z l Z Z Z Z D H P W ` $.u.c.S.                                  ",
"                                      8 9 s l Z Z Z D W -.-.5.Q b v z l l Z Z Z D D D D W -.| I                                 ",
"                                        8 0 s l Z Z Z D H J W ~ &. .Q U h l Z Z Z Z Z Z D v y ;                                 ",
"                                          8 9 s j l Z Z Z Z D J W W c r t s s j k Z Z Z Z s 3 -                                 ",
"                                              8 0 s j l Z Z Z Z D h w = y f s 0 s j j j j s 5                                   ",
"                                                    0 s j j l l l 8 >           9 0 0 0 0                                       ",
"                                                      9 9 0 s s s 8               9 9 9                                         ",
"                                                          8 9 9                                                                 ",
"                                                                                                                                ",
"                                                                                                                                ",
"                                                                                                                                ",
"                                                                                                                                ",
"                                                                                                                                ",
"                                                                                                                                ",
"                                                                                                                                ",
"                                                                                                                                ",
"                                                                                                                                ",
"                                                                                                                                ",
"                                                                                                                                ",
"                                                                                                                                ",
"                                                                                                                                "
};
