/* XPM */
static char * banana2_xpm[] = {
"64 64 682 2",
"  	c None",
". 	c #E7B01F",
"+ 	c #E9B11F",
"@ 	c #E8B11F",
"# 	c #E7B01E",
"$ 	c #E6AF1E",
"% 	c #EAB220",
"& 	c #EBB320",
"* 	c #EDB521",
"= 	c #EEB722",
"- 	c #F0B722",
"; 	c #EFB722",
"> 	c #EDB522",
", 	c #ECB421",
"' 	c #E9B21F",
") 	c #EAB320",
"! 	c #E9B220",
"~ 	c #F1B922",
"{ 	c #F3BB23",
"] 	c #F5BB24",
"^ 	c #F7BE24",
"/ 	c #F8BF24",
"( 	c #F9C025",
"_ 	c #F6BE24",
": 	c #F5BC23",
"< 	c #F4BB23",
"[ 	c #F3BA23",
"} 	c #F2BA23",
"| 	c #EFB822",
"1 	c #EBB420",
"2 	c #EBB421",
"3 	c #F5BC24",
"4 	c #FAC025",
"5 	c #FCC225",
"6 	c #FCC327",
"7 	c #FDC326",
"8 	c #FDC327",
"9 	c #FCC226",
"0 	c #FBC225",
"a 	c #FAC125",
"b 	c #EEB621",
"c 	c #ECB521",
"d 	c #E8B120",
"e 	c #FBC125",
"f 	c #FDC428",
"g 	c #FDC42B",
"h 	c #FEC532",
"i 	c #FEC633",
"j 	c #FEC52C",
"k 	c #FDC52C",
"l 	c #FDC52E",
"m 	c #FEC52D",
"n 	c #FEC630",
"o 	c #FEC429",
"p 	c #FDC328",
"q 	c #FDC429",
"r 	c #F7BF25",
"s 	c #F6BD24",
"t 	c #F5BD23",
"u 	c #F2B922",
"v 	c #DAA51D",
"w 	c #EEB724",
"x 	c #FAC22A",
"y 	c #FDC52D",
"z 	c #FDC632",
"A 	c #FEC736",
"B 	c #FEC93C",
"C 	c #FECB48",
"D 	c #FECC4B",
"E 	c #FECA47",
"F 	c #FECA41",
"G 	c #FDCA44",
"H 	c #FECB49",
"I 	c #FECB47",
"J 	c #FECA44",
"K 	c #FEC941",
"L 	c #FEC83A",
"M 	c #FEC838",
"N 	c #FEC634",
"O 	c #FDC42C",
"P 	c #FCC326",
"Q 	c #EFB721",
"R 	c #EAB321",
"S 	c #C2921F",
"T 	c #E8B52E",
"U 	c #FDC73C",
"V 	c #FDCA43",
"W 	c #FCC943",
"X 	c #FCCB4D",
"Y 	c #FDCC51",
"Z 	c #FBCC54",
"` 	c #F9CA52",
" .	c #FAC950",
"..	c #FACA4F",
"+.	c #FACB4F",
"@.	c #FBCD55",
"#.	c #FCCE57",
"$.	c #FBCC52",
"%.	c #FCCD53",
"&.	c #FDCE54",
"*.	c #FECD50",
"=.	c #FDC940",
"-.	c #FEC62F",
";.	c #FDC52B",
">.	c #FBC126",
",.	c #F1B923",
"'.	c #ECB420",
").	c #B98D25",
"!.	c #C19429",
"~.	c #E6B63A",
"{.	c #F7C749",
"].	c #F8C94F",
"^.	c #F6C64A",
"/.	c #F5C54A",
"(.	c #F3C346",
"_.	c #F2C245",
":.	c #F2C042",
"<.	c #F0BD3D",
"[.	c #EFBD3D",
"}.	c #F2C144",
"|.	c #F2C246",
"1.	c #F1C043",
"2.	c #F3C449",
"3.	c #F6C64D",
"4.	c #F5C64D",
"5.	c #FBCD59",
"6.	c #FED05C",
"7.	c #FDCE56",
"8.	c #FDCB47",
"9.	c #FEC93D",
"0.	c #FDC427",
"a.	c #F9BF24",
"b.	c #E1AD29",
"c.	c #D3A228",
"d.	c #D4A531",
"e.	c #E8B83E",
"f.	c #F4C242",
"g.	c #F3C03C",
"h.	c #F2BE38",
"i.	c #F2BE36",
"j.	c #F0BB30",
"k.	c #EEB92A",
"l.	c #F0BA2C",
"m.	c #EFB828",
"n.	c #EDB623",
"o.	c #EEB92B",
"p.	c #F0BC2F",
"q.	c #F0BA2E",
"r.	c #F1BB32",
"s.	c #F1BD35",
"t.	c #EFBC34",
"u.	c #F5C54B",
"v.	c #F8CB56",
"w.	c #FACD58",
"x.	c #FCCE56",
"y.	c #FDCD52",
"z.	c #FECC4A",
"A.	c #FEC52F",
"B.	c #E8B01E",
"C.	c #EBB524",
"D.	c #EBB426",
"E.	c #EBB62E",
"F.	c #F3BF36",
"G.	c #F6C032",
"H.	c #F7C02B",
"I.	c #F8BF27",
"J.	c #F7BF28",
"K.	c #F7BF26",
"L.	c #F8BE24",
"M.	c #F5BD24",
"N.	c #F9C027",
"O.	c #F8BF26",
"P.	c #F7BE26",
"Q.	c #F5BD28",
"R.	c #F2BE33",
"S.	c #F2C03F",
"T.	c #F2C145",
"U.	c #F4C64E",
"V.	c #F9CB56",
"W.	c #FECC4D",
"X.	c #FEC42B",
"Y.	c #F0B822",
"Z.	c #EBB321",
"`.	c #EEB721",
" +	c #F4BC24",
".+	c #FBC227",
"++	c #FCC227",
"@+	c #F9C028",
"#+	c #F5BE2C",
"$+	c #EFB82A",
"%+	c #EEBA34",
"&+	c #F3C143",
"*+	c #F6C64C",
"=+	c #F9CA4F",
"-+	c #FCCA4D",
";+	c #FDC944",
">+	c #FEC737",
",+	c #FEC52E",
"'+	c #FDC42A",
")+	c #FBC226",
"!+	c #F9BF25",
"~+	c #F6BC24",
"{+	c #FDC62F",
"]+	c #FDC731",
"^+	c #FEC735",
"/+	c #FEC635",
"(+	c #FEC734",
"_+	c #FEC738",
":+	c #FEC632",
"<+	c #FDC42D",
"[+	c #F7BD24",
"}+	c #F3BC29",
"|+	c #F3BD30",
"1+	c #F2BE37",
"2+	c #F1BE3C",
"3+	c #F4C346",
"4+	c #F9C84C",
"5+	c #FDCA4A",
"6+	c #FEC942",
"7+	c #FEC530",
"8+	c #EFB622",
"9+	c #EEB521",
"0+	c #FDC52F",
"a+	c #FECB43",
"b+	c #FECD4B",
"c+	c #FECD4D",
"d+	c #FFCC4B",
"e+	c #FECD4F",
"f+	c #FECE52",
"g+	c #FDCA46",
"h+	c #FDC941",
"i+	c #FEC93F",
"j+	c #FEC73A",
"k+	c #FAC127",
"l+	c #F6BE28",
"m+	c #EFBA29",
"n+	c #EEBA31",
"o+	c #F2C041",
"p+	c #F5C64A",
"q+	c #F9CA4E",
"r+	c #FCC946",
"s+	c #FEC83C",
"t+	c #E5AE20",
"u+	c #F0B723",
"v+	c #F9BF26",
"w+	c #FEC739",
"x+	c #FDC841",
"y+	c #FBC845",
"z+	c #FDCC4D",
"A+	c #FBCC53",
"B+	c #FCCD57",
"C+	c #FDCF5A",
"D+	c #FDCE57",
"E+	c #FBCD58",
"F+	c #FACE59",
"G+	c #F9CC54",
"H+	c #F8C950",
"I+	c #F9C94D",
"J+	c #FBCB50",
"K+	c #FECD52",
"L+	c #FECB4A",
"M+	c #FEC93E",
"N+	c #FEC52B",
"O+	c #F6BF27",
"P+	c #F2BB29",
"Q+	c #F0BB2E",
"R+	c #EFBC36",
"S+	c #F1C142",
"T+	c #F7C648",
"U+	c #FBC949",
"V+	c #FDC945",
"W+	c #FEC73B",
"X+	c #FDC530",
"Y+	c #F8BF25",
"Z+	c #D29E1B",
"`+	c #E7B125",
" @	c #F9C232",
".@	c #FDC633",
"+@	c #FDC83F",
"@@	c #FCC945",
"#@	c #FBCA49",
"$@	c #F9C84A",
"%@	c #F6C649",
"&@	c #F5C64B",
"*@	c #F5C54C",
"=@	c #F4C348",
"-@	c #F4C245",
";@	c #F2C142",
">@	c #F0BE3E",
",@	c #EEBD3D",
"'@	c #F1BF42",
")@	c #F4C54A",
"!@	c #FACB54",
"~@	c #FBCB54",
"{@	c #FBCB4E",
"]@	c #FDCD4F",
"^@	c #FDCB4A",
"/@	c #FECB46",
"(@	c #FECA42",
"_@	c #FCC329",
":@	c #F6BE25",
"<@	c #F2BB27",
"[@	c #EFBA2D",
"}@	c #F1BF3C",
"|@	c #F6C74D",
"1@	c #FCCE58",
"2@	c #F9C226",
"3@	c #F0BC22",
"4@	c #BA8C21",
"5@	c #D9A931",
"6@	c #F6C445",
"7@	c #FECC4E",
"8@	c #FFCD51",
"9@	c #F7C548",
"0@	c #F4C243",
"a@	c #F1BF3E",
"b@	c #F1BE39",
"c@	c #F3BE36",
"d@	c #F3BE34",
"e@	c #F5BE2F",
"f@	c #F4BD30",
"g@	c #F5BF30",
"h@	c #F5BE2D",
"i@	c #F3BC2B",
"j@	c #F3BD2E",
"k@	c #EFB92A",
"l@	c #EDB628",
"m@	c #EEB82C",
"n@	c #EFBC35",
"o@	c #F1C040",
"p@	c #F3C347",
"q@	c #F4C448",
"r@	c #F5C74D",
"s@	c #F9CB52",
"t@	c #FACB52",
"u@	c #FCCA46",
"v@	c #FEC83B",
"w@	c #FEC636",
"x@	c #FCC32A",
"y@	c #EDB82C",
"z@	c #F1C042",
"A@	c #F8CB5A",
"B@	c #FDD05E",
"C@	c #FCC93F",
"D@	c #F6C62A",
"E@	c #EEC720",
"F@	c #BF9639",
"G@	c #DFB44A",
"H@	c #FACD5A",
"I@	c #FFD25F",
"J@	c #F0BC35",
"K@	c #EFBA31",
"L@	c #F0BA2A",
"M@	c #FAC027",
"N@	c #FAC126",
"O@	c #FAC128",
"P@	c #F7BE25",
"Q@	c #F5BD26",
"R@	c #F4BD28",
"S@	c #F3BD2A",
"T@	c #F1BB2E",
"U@	c #F2BD33",
"V@	c #F3BF37",
"W@	c #F4C23F",
"X@	c #F3C348",
"Y@	c #F4C246",
"Z@	c #FCCA4A",
"`@	c #FDCA49",
" #	c #FECA43",
".#	c #FDC738",
"+#	c #FCC32B",
"@#	c #F2BC26",
"##	c #F0BB31",
"$#	c #F6C84F",
"%#	c #F9CA4D",
"&#	c #FBC83C",
"*#	c #F7C829",
"=#	c #EFCA1F",
"-#	c #FCD266",
";#	c #F4BC26",
">#	c #F4BB25",
",#	c #FCC534",
"'#	c #FDC42F",
")#	c #FDC634",
"!#	c #FCC533",
"~#	c #FBC32E",
"{#	c #FAC22C",
"]#	c #F9C12F",
"^#	c #F8C02B",
"/#	c #F7BF2A",
"(#	c #F1BC31",
"_#	c #F0BA31",
":#	c #F2C03E",
"<#	c #F9CA51",
"[#	c #FDC83D",
"}#	c #FBC229",
"|#	c #F6BE27",
"1#	c #F2BD2D",
"2#	c #F0C037",
"3#	c #F1C73C",
"4#	c #F8C832",
"5#	c #FAC628",
"6#	c #F2C821",
"7#	c #FEC83D",
"8#	c #FECB4C",
"9#	c #FFCC4D",
"0#	c #FECD4E",
"a#	c #FEC943",
"b#	c #FAC32D",
"c#	c #F7BF29",
"d#	c #F6BD28",
"e#	c #F4BE2E",
"f#	c #F2BF39",
"g#	c #F4C244",
"h#	c #F6C850",
"i#	c #F9CC53",
"j#	c #FCCB4C",
"k#	c #FDC840",
"l#	c #FCC430",
"m#	c #EFC125",
"n#	c #E9C92A",
"o#	c #F0CA26",
"p#	c #ECC220",
"q#	c #D8B51B",
"r#	c #F2B923",
"s#	c #F8BE25",
"t#	c #FEC631",
"u#	c #FEC83F",
"v#	c #FDCA45",
"w#	c #FDCB49",
"x#	c #FDCC4F",
"y#	c #FCCD54",
"z#	c #FED05A",
"A#	c #FED05D",
"B#	c #FCCF5A",
"C#	c #FBCE5A",
"D#	c #FCCF5B",
"E#	c #FED15D",
"F#	c #FECF57",
"G#	c #FECB44",
"H#	c #FCC536",
"I#	c #FBC22A",
"J#	c #F4BE2D",
"K#	c #F1BE3A",
"L#	c #F5C547",
"M#	c #F6C444",
"N#	c #FBC745",
"O#	c #F7C930",
"P#	c #EECA22",
"Q#	c #EDCA1F",
"R#	c #EBC41F",
"S#	c #DAB31C",
"T#	c #B29114",
"U#	c #7F650A",
"V#	c #FEC529",
"W#	c #FECA46",
"X#	c #FECC4C",
"Y#	c #FDCD51",
"Z#	c #F9CB55",
"`#	c #F7C852",
" $	c #F4C44B",
".$	c #F6C64B",
"+$	c #F4C347",
"@$	c #F3C247",
"#$	c #F3C44C",
"$$	c #F4C650",
"%$	c #F6C952",
"&$	c #F9CC56",
"*$	c #FACB53",
"=$	c #FECF58",
"-$	c #FDC534",
";$	c #F4BD2D",
">$	c #F0BA2F",
",$	c #EFBB35",
"'$	c #EFBC38",
")$	c #F2C244",
"!$	c #FBCC4A",
"~$	c #FBC72C",
"{$	c #F4C823",
"]$	c #EEC420",
"^$	c #E0BB1D",
"/$	c #BD9B16",
"($	c #84660B",
"_$	c #5D4004",
":$	c #FECA40",
"<$	c #FACC57",
"[$	c #F7C84F",
"}$	c #EFBB36",
"|$	c #F1BD36",
"1$	c #F1BC33",
"2$	c #F1BB2F",
"3$	c #EFB92E",
"4$	c #EFB92D",
"5$	c #EDB72D",
"6$	c #EEBA35",
"7$	c #F0BD3B",
"8$	c #F3C245",
"9$	c #F9CA55",
"0$	c #FCCF5F",
"a$	c #FDCF5D",
"b$	c #FECE56",
"c$	c #FDC842",
"d$	c #FBC436",
"e$	c #F8C028",
"f$	c #F0B929",
"g$	c #F0BC36",
"h$	c #F4C741",
"i$	c #F2CC3E",
"j$	c #F0C620",
"k$	c #E5B920",
"l$	c #C7A419",
"m$	c #96780F",
"n$	c #634704",
"o$	c #492A01",
"p$	c #EEB622",
"q$	c #F4BB24",
"r$	c #FBC22C",
"s$	c #FECD51",
"t$	c #FCCC52",
"u$	c #F8CA53",
"v$	c #F6C74F",
"w$	c #F2C146",
"x$	c #F5C13D",
"y$	c #F4BD2F",
"z$	c #F5BD29",
"A$	c #F9C026",
"B$	c #F2B924",
"C$	c #F1BA25",
"D$	c #EFB825",
"E$	c #EFB927",
"F$	c #F1BC30",
"G$	c #F1BF3D",
"H$	c #F7C953",
"I$	c #FBCD56",
"J$	c #FBC433",
"K$	c #F9C02A",
"L$	c #F8C229",
"M$	c #F3C72B",
"N$	c #EFCA27",
"O$	c #E9CB1E",
"P$	c #E5C51D",
"Q$	c #D0AD1A",
"R$	c #A38412",
"S$	c #684C06",
"T$	c #4A2A01",
"U$	c #432000",
"V$	c #FFD15C",
"W$	c #FBCF5C",
"X$	c #F6C750",
"Y$	c #F1BF40",
"Z$	c #F1BE3B",
"`$	c #F4BC2B",
" %	c #FBC22B",
".%	c #FCC22A",
"+%	c #F4BE31",
"@%	c #F2BF3A",
"#%	c #F2BF3C",
"$%	c #FACB51",
"%%	c #FBCB4C",
"&%	c #FBC62F",
"*%	c #F6C824",
"=%	c #F2C920",
"-%	c #EFC91F",
";%	c #EBCA1E",
">%	c #E0C31C",
",%	c #C0A316",
"'%	c #8B6D0D",
")%	c #4D2E02",
"!%	c #401D00",
"~%	c #E7B020",
"{%	c #FEC73C",
"]%	c #FBCF5D",
"^%	c #F5C753",
"/%	c #EDB82E",
"(%	c #EFB926",
"_%	c #F4BE26",
":%	c #F8C027",
"<%	c #FEC83E",
"[%	c #FFC942",
"}%	c #FEC940",
"|%	c #FDC636",
"1%	c #FDC63B",
"2%	c #FCC638",
"3%	c #FAC330",
"4%	c #F6C033",
"5%	c #F6BF31",
"6%	c #F7C034",
"7%	c #F8C441",
"8%	c #FAC745",
"9%	c #FBC741",
"0%	c #FBC739",
"a%	c #F8C82D",
"b%	c #F1C921",
"c%	c #EECA1E",
"d%	c #F0C820",
"e%	c #C8961B",
"f%	c #D5A120",
"g%	c #FBC53D",
"h%	c #FECA45",
"i%	c #F0BC39",
"j%	c #EEB727",
"k%	c #F3BA25",
"l%	c #FDC734",
"m%	c #FDCD53",
"n%	c #FECF56",
"o%	c #FFD05A",
"p%	c #FED15B",
"q%	c #FED057",
"r%	c #FECE51",
"s%	c #FFCE50",
"t%	c #FFCD4F",
"u%	c #FECE53",
"v%	c #FFCD50",
"w%	c #FDCB4B",
"x%	c #FDC948",
"y%	c #FDC843",
"z%	c #F8C82A",
"A%	c #F1C922",
"B%	c #8A620D",
"C%	c #B6891F",
"D%	c #DFAE34",
"E%	c #FECC49",
"F%	c #FED15E",
"G%	c #FED362",
"H%	c #FED467",
"I%	c #FDD467",
"J%	c #FED465",
"K%	c #FFD568",
"L%	c #FFD360",
"M%	c #FDD365",
"N%	c #FFD15E",
"O%	c #FFD260",
"P%	c #FFD261",
"Q%	c #FFD15B",
"R%	c #FFD15D",
"S%	c #FFD059",
"T%	c #FFCE53",
"U%	c #FBC830",
"V%	c #FEC428",
"W%	c #FED15C",
"X%	c #FDD468",
"Y%	c #FFD361",
"Z%	c #FFD15A",
"`%	c #E8B21F",
" &	c #EAB421",
".&	c #EEB923",
"+&	c #FEC839",
"@&	c #FED05B",
"#&	c #FED363",
"$&	c #FFD363",
"%&	c #FED364",
"&&	c #F1BB24",
"*&	c #F7C026",
"=&	c #FFCA42",
"-&	c #FFCE54",
";&	c #FED25F",
">&	c #FED468",
",&	c #FFD66C",
"'&	c #FFD76D",
")&	c #F0B622",
"!&	c #F5BB23",
"~&	c #FFCB48",
"{&	c #FED059",
"]&	c #FED56A",
"^&	c #FED66C",
"/&	c #FFC93F",
"(&	c #FED466",
"_&	c #FED66B",
":&	c #FECE55",
"<&	c #FDD262",
"[&	c #FDD46A",
"}&	c #E9B120",
"|&	c #FDC531",
"1&	c #FDCF56",
"2&	c #D09E20",
"3&	c #E1AC27",
"4&	c #F2BD32",
"5&	c #FCC538",
"6&	c #FED569",
"7&	c #AD821F",
"8&	c #C0942C",
"9&	c #E3B239",
"                                                                                                                                ",
"                                                                                                                                ",
"                                                                                                                                ",
"                                                                                                                                ",
"                                                                                                                                ",
"                                                                                                                                ",
"                                                                                                                                ",
"                                                                                                                                ",
"                                                                                                                                ",
"                                                                                                                                ",
"                                                                                                                                ",
"                                                                                                                                ",
"                                                                                                                                ",
"                                                                                                                                ",
"                                                          . + @ . . # $ @                                                       ",
"                                            $ # @ % & * = * - ; > , & ' , ) @ .                                                 ",
"                                          @ ! ) , ~ { ] ^ / ( ( / _ : < [ } | 1 + # $                                           ",
"                                          2 - < 3 4 5 6 6 7 7 7 7 8 9 0 0 a 4 < b c ) & '                                       ",
"                                        d ; ^ e 6 f g h i j k l m n l o p q 8 e r s t u * ) +                                   ",
"                                        v w x y z A B C D E F G H I J K L M N O 8 P 9 a 3 [ Q R                                 ",
"                                        S T U V W X Y Z `  ...+.@.#.$.%.&.*.D =.-.;.f 7 9 >.^ ,.'.'                             ",
"                                      ).!.~.{.].^./.(._.:.<.[.}.|.1.2.3.4.5.6.7.8.9.i j 0.7 5 a.< - 2                           ",
"                                    b.c.d.e.f.g.h.i.j.k.l.m.n.o.p.q.r.s.t.u.v.w.x.y.z.M A.q 8 7 a ^ ; ! B.                      ",
"                          # # ' ) R C.D.E.F.G.H.I.J.K./ L.^ s M.r N.O.P.Q.R.S.T.U.V.7.W.K z X.8 7 9 s Y.c Z.                    ",
"                        # @ ' * `.;  +/ K.( .+++7 p 6 7 f p 6 6 9 P 7 7 9 @+#+$+%+&+*+=+-+;+>+,+'+8 )+!+3 ; >                   ",
"                        ' '.- ~+^ a 7 8 P q {+z ]+^+/+(+_+>+:+-.<+j '+8 7 7 8 [+}+|+1+2+3+4+5+6+_+7+7 7 9 [ 8+                  ",
"                        9+[ 4 7 8 f '+0+N M a+I b+c+d+e+f+e+D g+h+i+j+N O f p 6 9 k+l+m+n+o+p+q+r+s+l '+8 ( [ 8+                ",
"                      t+u+v+7 8 ,+^+w+x+y+z+%.A+B+C+D+E+F+G+H+].I+J+K+L+M+A N n N+'+.+O+P+Q+R+S+T+U+V+W+X+6 Y+-                 ",
"                      Z+`+ @.@n +@@@#@$@%@&@*@=@=@&@^.-@}.;@>@,@'@)@!@~@{@]@^@/@(@M l _@4 :@<@[@}@|@1@K+g+n 2@3@                ",
"                      4@5@6@7@8@{@9@0@a@b@c@d@|+e@f@g@h@i@j@k@l@m@n@o@p@q@r@s@t@{@u@v@w@N+x@Y+{ y@z@A@B@&.C@D@E@                ",
"                      F@G@H@I@    J@K@L@O+N.M@N@N@N@.+)+0 O@O.P@Q@R@S@T@U@V@W@X@Y@*+Z@`@ #.#+#( @###}.$#%#&#*#=#                ",
"                          -#      ;#>#Y+9 7 7 7 7 f k ,+,+/+,#'#)#!#~#{#]#^#/#(#_#:#^.<#%.^@[#l }#|#1#2#3#4#5#6#                ",
"                                ^ a 9 7 7 7 8 O {+n 7#J J 8#8#9#0#W.D C a#.#b#c#d#e#f#g#h#i#j#k#w@l#x m#n#o#6#p#q#              ",
"                              r#s#P 7 8 <+A.t#u#v#w#x#y#z#A#1@B+B#C#D#E#F#0#G#[#H#I#J.J#K#}.L#M#N#g+=.O#P#Q#R#S#T#U#            ",
"                          Y.r#a.q ;.V#l i+W#X#Y#A+Z#`#4. $*+.$+$@$#$$$%$&$*$=$F#e+K -$]#;$>$,$'$)$=+!$~${$]$^$/$($_$            ",
"                          [ P@_@t#v@:$I x#y#E+<$[$z@}$|$1$2$3$4$D.5$6$}$7$8$9$0$a$b$X#c$d$e$P+f$g$h$i$  j$k$l$m$n$o$            ",
"                        p$q$r$w+/@s$t$*$u$v$w$o+x$y$z$l+I.A$ +q$[ B$C$D$E$F$G$*@H$Z#I$&.^@s+J$K$L$M$N$O$P$Q$R$S$T$U$            ",
"                      c 3 8 )#z.V$W$X$1.Y$Z$(#`$e$k+9 8 6 p +# %+#.%O@N@O.c#/#+%@%#%X@` $%%%+@&%*%=%-%;%>%,%'%)%!%              ",
"                      ~%s P {%s$]%^%[./%(%_%:%>.7 q O :+/+_+<%[%}%L M (+|%1%2%3%4%5%6%7%8%9%0%a%b%c%d%-%                        ",
"                    e%f%/%g%h%    i%j%k%( P P 7 g l%F D 0#m%n%o%p%q%r%s%t%s$u%v%w%x%y%k#k#1%A.z%A%                              ",
"                    B%C%D%        - 3 a 7 0.m :+s+E%q%F%G%H%I%J%K%K%L%I@M%N%O%P%I@Q%R%S%T%7@F U%                                ",
"                                c  +9 7 V%^+J X#f+W%M%X%                                Y%Z%                                    ",
"                            `% &.&r 8 j +&9#@&#&$&%&                                                                            ",
"                          ) c &&*&0.:+=&-&;&>&,&'&                                                                              ",
"                          )&!&N@q N ~&{&M%]&^&                                                                                  ",
"                        ; s 6 7+/&v%E#(&_&'&                                                                                    ",
"                      '.{ .+A.6+:&<&[&_&                                                                                        ",
"                    }&u+c#|&K 1&#&]&'&                                                                                          ",
"                    2&3&4&5&    6&                                                                                              ",
"                    7&8&9&                                                                                                      ",
"                                                                                                                                ",
"                                                                                                                                ",
"                                                                                                                                ",
"                                                                                                                                ",
"                                                                                                                                ",
"                                                                                                                                ",
"                                                                                                                                ",
"                                                                                                                                ",
"                                                                                                                                ",
"                                                                                                                                ",
"                                                                                                                                ",
"                                                                                                                                ",
"                                                                                                                                ",
"                                                                                                                                "};
